<svg xmlns="http://www.w3.org/2000/svg" viewBox="0 0 250 250">
  <path id="go-1" d="M75.3 123.4l23.5-40.6-23.5-40.6H28.5L5 82.8l23.5 40.6"/>
  <path d="M75.3 126.6H28.5L5 167.2l23.5 40.6h46.8l23.5-40.6"/>
  <path d="M101.6 168.8l-23.5 40.6 23.5 40.6h46.8l23.5-40.6-23.5-40.6"/>
  <path d="M174.7 126.6l-23.5 40.6 23.5 40.6h46.8l23.5-40.6-23.5-40.6"/>
  <path d="M174.7 123.4h46.8L245 82.8l-23.5-40.6h-46.8l-23.5 40.6"/>
  <path d="M148.4 81.2l23.5-40.6L148.4 0h-46.8L78.1 40.6l23.5 40.6"/>
  <path fill="#C95026" d="M99.7 123.4l11.2-19.5L100.6 86l-21.5 37.4"/>
  <path fill="#C95026" d="M110.9 146.1l-11.2-19.5H79.1l21.5 37.4"/>
  <path fill="#C95026" d="M136.3 147.7h-22.6l-10.3 17.9h43.2"/>
  <path fill="#C95026" d="M150.3 126.6l-11.2 19.5 10.3 17.9 21.5-37.4"/>
  <path fill="#C95026" d="M149.4 86l-10.3 17.9 11.2 19.5h20.6"/>
  <path fill="#C95026" d="M103.4 84.4l10.3 17.9h22.6l10.3-17.9"/>
  <path fill="#319F49" d="M113.7 144.5h22.6l11.2-19.5-11.2-19.5h-22.6L102.5 125"/>
</svg>