<svg width="162px" height="162px" viewBox="70 -1 162 162" version="1.1" xmlns="http://www.w3.org/2000/svg" xmlns:xlink="http://www.w3.org/1999/xlink">
    <!-- Generator: Sketch 3.8.2 (29753) - http://www.bohemiancoding.com/sketch -->
    <desc>Created with Sketch.</desc>
    <defs></defs>
    <g id="ICON" stroke="none" stroke-width="1" fill="none" fill-rule="evenodd" transform="translate(71.000000, 0.000000)">
        <circle id="Oval-79" stroke="#000000" stroke-width="2" cx="80" cy="80" r="80"></circle>
        <path d="M109.538323,49.3470898 C109.316588,49.1269531 109.027572,49.0058398 108.716763,49.0058398 C108.647455,49.0058398 108.580174,49.0118066 108.512894,49.0237402 C98.7782251,50.6761621 66.382884,56.7243359 57.8974064,65.2243555 C48.5547651,74.5871484 48.0084103,89.7503027 56.6521433,99.7399902 L57.0935858,100.251738 L45.3355546,112.030703 C44.8881569,112.48291 44.8881569,113.218857 45.3355546,113.66916 C45.7730692,114.103594 46.5353304,114.101562 46.9709444,113.667129 L58.7269483,101.890068 L59.2376988,102.332373 C63.822923,106.315654 69.7029522,108.507627 75.792806,108.507627 C82.553693,108.507627 88.9069678,105.871318 93.6880789,101.084678 C102.096266,92.6581641 108.110857,60.6338574 109.817455,50.6124316 L109.815428,50.6084961 L109.85496,50.3665234 C109.922494,49.9937891 109.803644,49.6129297 109.538323,49.3470898 L109.538323,49.3470898 Z M107.123059,52.6043262 C106.364853,56.8572559 105.111607,63.3716016 103.450623,70.254873 C98.5346969,90.6449414 94.2009834,97.2961426 92.0568704,99.4444434 C89.8553596,101.652285 87.2953986,103.354346 84.4484493,104.508857 C81.6905741,105.627568 78.7783713,106.194922 75.7929327,106.194922 C72.8073674,106.194922 69.895038,105.627568 67.1352622,104.508857 C64.9000478,103.602285 62.8213148,102.342656 60.9602622,100.767549 L60.3584103,100.25377 L91.2215,69.3325586 C91.6688977,68.8803516 91.6688977,68.1444043 91.2215,67.6941016 C90.785886,67.259668 90.0237515,67.2576367 89.5862368,67.6961328 L58.7249211,98.6172168 L58.2160712,98.0141895 C56.6460614,96.1595312 55.3890146,94.0766113 54.4782544,91.8272559 C53.3617242,89.0679297 52.7954766,86.1480078 52.7954766,83.1526758 C52.7954766,80.1573437 53.3617242,77.2394531 54.4782544,74.480127 C55.6305156,71.6276172 57.3311589,69.0648145 59.528615,66.8590039 C61.6788099,64.7067676 68.3189464,60.3644629 88.6653402,55.4410937 C95.5668704,53.7708984 102.054707,52.5211719 106.281481,51.7633887 L107.305009,51.5789258 L107.123059,52.6043262 Z" id="Fill-1" fill="#1D1C1B"></path>
    </g>
</svg>