
<svg width="162px" height="162px" viewBox="570 115 162 162" version="1.1" xmlns="http://www.w3.org/2000/svg" xmlns:xlink="http://www.w3.org/1999/xlink">
    <!-- Generator: Sketch 3.8.2 (29753) - http://www.bohemiancoding.com/sketch -->
    <desc>Created with Sketch.</desc>
    <defs>
        <polygon id="path-1" points="0 0.299242424 97 0.299242424 97 79 0 79"></polygon>
    </defs>
    <g id="BLOCK-2" stroke="none" stroke-width="1" fill="none" fill-rule="evenodd" transform="translate(571.000000, 116.000000)">
        <g id="ICON" stroke-width="2" stroke="#000000">
            <circle id="Oval-79" cx="80" cy="80" r="80"></circle>
        </g>
        <g id="Page-1" transform="translate(37.000000, 45.000000)">
            <path d="M0,0.299242424 L0,79" id="Stroke-1" stroke="#1D1C1B" stroke-width="1.5"></path>
            <path d="M12.7737025,7.18181818 L67.8601222,7.18181818" id="Stroke-3" stroke="#1D1C1B" stroke-width="1.5"></path>
            <path d="M12.7737025,70.6212121 L67.8601222,70.6212121" id="Stroke-4" stroke="#1D1C1B" stroke-width="1.5"></path>
            <path d="M12.7737025,22.7424242 L82.6292704,22.7424242" id="Stroke-5" stroke="#1D1C1B" stroke-width="1.5"></path>
            <path d="M12.7737025,55.0606061 L82.6292704,55.0606061" id="Stroke-6" stroke="#1D1C1B" stroke-width="1.5"></path>
            <path d="M12.7737025,39.5 L96.9996407,39.5" id="Stroke-7" stroke="#1D1C1B" stroke-width="1.5"></path>
            <polygon id="Fill-9" fill="#FEFEFE" points="30.2034049 39.5993485 24.6995531 45.1006212 19.1957012 39.5993485 24.6995531 34.0980758"></polygon>
            <polygon id="Stroke-10" stroke="#1D1C1B" stroke-width="1.5" points="30.2034049 39.5993485 24.6995531 45.1006212 19.1957012 39.5993485 24.6995531 34.0980758"></polygon>
            <polygon id="Fill-11" fill="#FEFEFE" points="48.1663679 39.5993485 42.662516 45.1006212 37.1586642 39.5993485 42.662516 34.0980758"></polygon>
            <polygon id="Stroke-12" stroke="#1D1C1B" stroke-width="1.5" points="48.1663679 39.5993485 42.662516 45.1006212 37.1586642 39.5993485 42.662516 34.0980758"></polygon>
            <polygon id="Fill-13" fill="#FEFEFE" points="74.8114296 39.7489697 69.3075778 45.2502424 63.8037259 39.7489697 69.3075778 34.247697"></polygon>
            <polygon id="Stroke-14" stroke="#1D1C1B" stroke-width="1.5" points="74.8114296 39.7489697 69.3075778 45.2502424 63.8037259 39.7489697 69.3075778 34.247697"></polygon>
            <polygon id="Fill-15" fill="#FEFEFE" points="92.7743926 39.7489697 87.2705407 45.2502424 81.7666889 39.7489697 87.2705407 34.247697"></polygon>
            <polygon id="Stroke-16" stroke="#1D1C1B" stroke-width="1.5" points="92.7743926 39.7489697 87.2705407 45.2502424 81.7666889 39.7489697 87.2705407 34.247697"></polygon>
            <g id="Group-42">
                <path d="M63.3259039,7.09375153 C63.3259039,8.39431929 59.0028329,9.44875155 53.6704373,9.44875155 C48.3365216,9.44875155 44.0134506,8.39431929 44.0134506,7.09375153 C44.0134506,5.79318378 48.3365216,4.73875152 53.6704373,4.73875152 C59.0028329,4.73875152 63.3259039,5.79318378 63.3259039,7.09375153" id="Fill-17" fill="#FEFEFE"></path>
                <path d="M63.3259039,7.09375153 C63.3259039,8.39431929 59.0028329,9.44875155 53.6704373,9.44875155 C48.3365216,9.44875155 44.0134506,8.39431929 44.0134506,7.09375153 C44.0134506,5.79318378 48.3365216,4.73875152 53.6704373,4.73875152 C59.0028329,4.73875152 63.3259039,5.79318378 63.3259039,7.09375153 L63.3259039,7.09375153 Z" id="Stroke-19" stroke="#1D1C1B" stroke-width="1.5"></path>
                <path d="M39.983752,7.16269699 C39.983752,8.46326474 35.660681,9.51769701 30.3282854,9.51769701 C24.9943698,9.51769701 20.6712988,8.46326474 20.6712988,7.16269699 C20.6712988,5.86212924 24.9943698,4.80769697 30.3282854,4.80769697 C35.660681,4.80769697 39.983752,5.86212924 39.983752,7.16269699" id="Fill-21" fill="#FEFEFE"></path>
                <path d="M39.983752,7.16269699 C39.983752,8.46326474 35.660681,9.51769701 30.3282854,9.51769701 C24.9943698,9.51769701 20.6712988,8.46326474 20.6712988,7.16269699 C20.6712988,5.86212924 24.9943698,4.80769697 30.3282854,4.80769697 C35.660681,4.80769697 39.983752,5.86212924 39.983752,7.16269699 L39.983752,7.16269699 Z" id="Stroke-23" stroke="#1D1C1B" stroke-width="1.5"></path>
                <mask id="mask-2" fill="white">
                    <use xlink:href="#path-1"></use>
                </mask>
                <g id="Clip-26"></g>
                <polygon id="Fill-25" fill="#FEFEFE" mask="url(#mask-2)" points="22.1171975 73.5322424 18.6742963 73.5322424 18.6742963 70.0909545 22.1171975 70.0909545"></polygon>
                <polygon id="Stroke-27" stroke="#1D1C1B" stroke-width="1.5" mask="url(#mask-2)" points="22.1171975 72.5322424 18.6742963 72.5322424 18.6742963 69.0909545 22.1171975 69.0909545"></polygon>
                <polygon id="Fill-28" fill="#FEFEFE" mask="url(#mask-2)" points="28.1108395 73.5322424 24.6679383 73.5322424 24.6679383 70.0909545 28.1108395 70.0909545"></polygon>
                <polygon id="Stroke-29" stroke="#1D1C1B" stroke-width="1.5" mask="url(#mask-2)" points="28.1108395 72.5322424 24.6679383 72.5322424 24.6679383 69.0909545 28.1108395 69.0909545"></polygon>
                <polygon id="Fill-30" fill="#FEFEFE" mask="url(#mask-2)" points="53.699679 73.5322424 50.2567778 73.5322424 50.2567778 70.0909545 53.699679 70.0909545"></polygon>
                <polygon id="Stroke-31" stroke="#1D1C1B" stroke-width="1.5" mask="url(#mask-2)" points="53.699679 72.5322424 50.2567778 72.5322424 50.2567778 69.0909545 53.699679 69.0909545"></polygon>
                <polygon id="Fill-32" fill="#FEFEFE" mask="url(#mask-2)" points="59.693321 73.5322424 56.2504198 73.5322424 56.2504198 70.0909545 59.693321 70.0909545"></polygon>
                <polygon id="Stroke-33" stroke="#1D1C1B" stroke-width="1.5" mask="url(#mask-2)" points="59.693321 72.5322424 56.2504198 72.5322424 56.2504198 69.0909545 59.693321 69.0909545"></polygon>
                <polygon id="Fill-34" fill="#FEFEFE" mask="url(#mask-2)" points="37.909037 73.5322424 34.4661358 73.5322424 34.4661358 70.0909545 37.909037 70.0909545"></polygon>
                <polygon id="Stroke-35" stroke="#1D1C1B" stroke-width="1.5" mask="url(#mask-2)" points="37.909037 72.5322424 34.4661358 72.5322424 34.4661358 69.0909545 37.909037 69.0909545"></polygon>
                <polygon id="Fill-36" fill="#FEFEFE" mask="url(#mask-2)" points="43.902679 73.5322424 40.4597778 73.5322424 40.4597778 70.0909545 43.902679 70.0909545"></polygon>
                <polygon id="Stroke-37" stroke="#1D1C1B" stroke-width="1.5" mask="url(#mask-2)" points="43.902679 72.5322424 40.4597778 72.5322424 40.4597778 69.0909545 43.902679 69.0909545"></polygon>
                <polygon id="Fill-38" fill="#FEFEFE" mask="url(#mask-2)" points="56.9827099 17.9546652 62.4482407 27.4179076 51.517179 27.4179076"></polygon>
                <polygon id="Stroke-39" stroke="#1D1C1B" stroke-width="1.5" mask="url(#mask-2)" points="56.9827099 17.9546652 62.4482407 27.4179076 51.517179 27.4179076"></polygon>
                <path d="M44.2088877,55.6836288 C44.2088877,58.3277348 41.080937,60.4715076 37.2236901,60.4715076 C33.3652457,60.4715076 30.2372951,58.3277348 30.2372951,55.6836288 C30.2372951,53.0395227 33.3652457,50.89575 37.2236901,50.89575 C41.080937,50.89575 44.2088877,53.0395227 44.2088877,55.6836288" id="Fill-40" fill="#FEFEFE" mask="url(#mask-2)"></path>
                <path d="M44.2088877,55.6836288 C44.2088877,58.3277348 41.080937,60.4715076 37.2236901,60.4715076 C33.3652457,60.4715076 30.2372951,58.3277348 30.2372951,55.6836288 C30.2372951,53.0395227 33.3652457,50.89575 37.2236901,50.89575 C41.080937,50.89575 44.2088877,53.0395227 44.2088877,55.6836288 L44.2088877,55.6836288 Z" id="Stroke-41" stroke="#1D1C1B" stroke-width="1.5" mask="url(#mask-2)"></path>
            </g>
        </g>
    </g>
</svg>