
<svg width="162px" height="162px" viewBox="902 115 162 162" version="1.1" xmlns="http://www.w3.org/2000/svg" xmlns:xlink="http://www.w3.org/1999/xlink">
    <!-- Generator: Sketch 3.8.2 (29753) - http://www.bohemiancoding.com/sketch -->
    <desc>Created with Sketch.</desc>
    <defs></defs>
    <g id="BLOCK-3" stroke="none" stroke-width="1" fill="none" fill-rule="evenodd" transform="translate(903.000000, 116.000000)">
        <g id="Persone" stroke-width="2" stroke="#000000">
            <circle id="Oval-79" cx="80" cy="80" r="80"></circle>
        </g>
        <g id="Page-1" transform="translate(55.000000, 36.000000)">
            <path d="M21.5613474,82.5142857 L19.5241263,82.5142857 C18.0689684,82.6605714 16.9048421,82.2217143 16.1772632,80.9051429 C15.4496842,79.5885714 15.7407158,78.272 16.6138105,77.1017143 C15.5952,75.6388571 15.3041684,74.176 16.4682947,72.7131429 C16.6138105,72.5668571 16.6138105,72.2742857 16.4682947,72.128 C15.5952,70.9577143 15.5952,69.7874286 16.1772632,68.4708571 C15.8862316,68.1782857 15.7407158,68.032 15.4496842,67.8857143 C14.4310737,66.8617143 13.7034947,65.5451429 13.7034947,63.936 C13.8490105,60.5714286 13.7034947,57.2068571 12.1028211,54.2811429 C11.2297263,52.672 10.3566316,51.2091429 9.33802105,49.6 C6.42770526,45.0651429 3.95393684,40.5302857 1.91671579,35.5565714 C-4.19494737,20.928 5.70012632,4.10514286 20.8337684,0.740571429 C35.9674105,-2.77028571 50.5189895,6.88457143 53.5748211,22.3908571 C54.4479158,27.3645714 53.5748211,31.8994286 51.8286316,36.4342857 C50.0824421,40.8228571 47.7541895,44.9188571 45.2804211,48.8685714 C44.1162947,50.624 43.0976842,52.3794286 42.0790737,54.1348571 C40.6239158,57.0605714 40.1873684,60.2788571 40.4784,63.4971429 C40.6239158,65.5451429 39.7508211,67.1542857 38.1501474,68.4708571 C38.5866947,69.7874286 38.7322105,71.2502857 37.5680842,72.4205714 C38.7322105,74.0297143 38.7322105,75.4925714 37.7136,76.9554286 C38.0046316,77.5405714 38.2956632,78.1257143 38.4411789,78.7108571 C38.8777263,80.9051429 37.4225684,82.5142857 35.2398316,82.6605714 L32.7660632,82.6605714 C32.7660632,83.392 32.9115789,83.9771429 32.9115789,84.7085714 C32.9115789,86.464 31.4564211,87.7805714 29.7102316,87.9268571 L25.1992421,87.9268571 C22.8709895,87.9268571 21.5613474,86.6102857 21.5613474,84.1234286 L21.5613474,82.5142857 L21.5613474,82.5142857 Z M27.2364632,66.7154286 L36.1129263,66.7154286 C37.1315368,66.7154286 37.8591158,66.2765714 38.2956632,65.3988571 C38.5866947,64.8137143 38.7322105,64.2285714 38.7322105,63.6434286 C38.5866947,59.9862857 38.8777263,56.3291429 40.6239158,53.1108571 C41.4970105,51.3554286 42.6611368,49.6 43.8252632,47.8445714 C46.2990316,43.8948571 48.6272842,39.9451429 50.3734737,35.5565714 C52.1196632,31.168 53.1382737,26.6331429 51.9741474,21.952 C49.5003789,11.712 43.2432,4.98285714 33.0570947,2.496 C22.8709895,0.155428571 14.2855579,3.37371429 7.73734737,11.5657143 C3.80842105,16.3931429 2.06223158,22.2445714 2.64429474,28.5348571 C2.93532632,32.0457143 4.536,35.4102857 5.84564211,38.6285714 C7.88286316,43.3097143 10.9386947,47.4057143 13.5579789,51.7942857 C14.7221053,53.8422857 15.5952,56.0365714 15.8862316,58.3771429 C16.1772632,60.2788571 16.0317474,62.1805714 16.0317474,64.0822857 C16.0317474,65.6914286 17.0503579,66.7154286 18.6510316,66.7154286 L27.2364632,66.7154286 L27.2364632,66.7154286 Z M27.2364632,77.8331429 L19.2330947,77.8331429 C18.2144842,77.8331429 17.7779368,78.4182857 17.7779368,79.1497143 C17.7779368,80.0274286 18.36,80.4662857 19.2330947,80.4662857 L35.2398316,80.4662857 C35.9674105,80.4662857 36.5494737,80.1737143 36.6949895,79.296 C36.8405053,78.4182857 36.2584421,77.6868571 35.0943158,77.6868571 C32.4750316,77.8331429 29.8557474,77.8331429 27.2364632,77.8331429 L27.2364632,77.8331429 Z M27.0909474,68.6171429 L19.5241263,68.6171429 C18.36,68.6171429 17.7779368,69.056 17.7779368,69.9337143 C17.7779368,70.8114286 18.36,71.2502857 19.5241263,71.2502857 L34.9488,71.2502857 C36.1129263,71.2502857 36.6949895,70.8114286 36.6949895,69.9337143 C36.6949895,69.056 36.1129263,68.6171429 35.0943158,68.6171429 L27.0909474,68.6171429 Z M27.2364632,75.9314286 L35.0943158,75.9314286 C36.1129263,75.9314286 36.6949895,75.4925714 36.6949895,74.6148571 C36.6949895,73.8834286 36.1129263,73.2982857 35.2398316,73.2982857 L19.3786105,73.2982857 C18.9420632,73.2982857 18.2144842,73.7371429 18.0689684,74.0297143 C17.4869053,74.9074286 18.2144842,75.9314286 19.5241263,75.9314286 L27.2364632,75.9314286 Z M27.0909474,85.7325714 L29.4192,85.7325714 C30.4378105,85.7325714 30.8743579,85.2937143 30.8743579,84.2697143 C30.8743579,83.2457143 30.4378105,82.6605714 29.5647158,82.6605714 L24.7626947,82.6605714 C23.7440842,82.6605714 23.3075368,83.2457143 23.3075368,84.2697143 C23.3075368,85.2937143 23.7440842,85.7325714 24.7626947,85.8788571 C25.6357895,85.7325714 26.3633684,85.7325714 27.0909474,85.7325714 L27.0909474,85.7325714 Z" id="Fill-1" fill="#1D1C1B"></path>
            <path d="M39.8963368,25.9017143 L28.2550737,39.2137143 L12.5393684,28.9737143 L5.11806316,36.4342857 C4.68151579,36.8731429 4.68151579,37.6045714 5.11806316,38.0434286 C5.40909474,38.336 5.70012632,38.336 5.84564211,38.336 C6.13667368,38.336 6.42770526,38.1897143 6.57322105,38.0434286 L12.6848842,31.8994286 L28.5461053,42.1394286 L41.6425263,27.072 L44.6983579,28.9737143 L45.2804211,20.1965714 L37.4225684,23.5611429 L39.8963368,25.9017143 Z" id="Fill-3" fill="#1E1E1C"></path>
        </g>
    </g>
</svg>