<svg width="43px" height="40px" viewBox="138 383 43 40" version="1.1" xmlns="http://www.w3.org/2000/svg" xmlns:xlink="http://www.w3.org/1999/xlink">
    <!-- Generator: Sketch 3.8.3 (29802) - http://www.bohemiancoding.com/sketch -->
    <desc>Created with Sketch.</desc>
    <defs></defs>
    <g id="ICON" stroke="none" stroke-width="1" fill="none" fill-rule="evenodd" transform="translate(139.000000, 384.000000)" stroke-linecap="round" stroke-linejoin="round">
        <g id="Group-9" transform="translate(0.000000, 0.330645)" stroke="#007DC7" stroke-width="1.5">
            <path d="M28.3508387,15.9937859 L40.8917137,15.9937859 C40.8917137,15.9937859 40.8917137,20.4066589 34.6674839,20.4066589 C28.443254,20.4066589 28.3508387,15.9937859 28.3508387,15.9937859 L28.3508387,15.9937859 Z" id="Stroke-1"></path>
            <path d="M20.4851871,4.45806391 C24.2095742,4.45806391 27.636298,3.37958206 29.2798524,3.32808407 C32.3207133,3.23351956 33.243296,3.79288851 34.1412456,4.1025377 C35.0391952,4.4121869 36.6954794,3.6397998 36.6954794,2.22835827 C36.6954794,1.52086028 36.4076528,0.880400605 35.9421044,0.418406653 C35.9427657,0.421217137 35.9421044,0.425432863 35.9427657,0.428987298 C35.6909794,0.173646573 35.3171024,0.0106385081 34.8995802,0.0106385081" id="Stroke-3"></path>
            <path d="M12.6195355,15.9937859 L0.0779165323,15.9937859 C0.0779165323,15.9937859 0.0779165323,20.4066589 6.30289032,20.4066589 C12.5264589,20.4066589 12.6195355,15.9937859 12.6195355,15.9937859 L12.6195355,15.9937859 Z" id="Stroke-5"></path>
            <path d="M20.4851871,4.45806391 C16.761544,4.45806391 13.3340762,3.37958206 11.6905218,3.32808407 C8.6489996,3.23351956 7.72633427,3.79288851 6.82838468,4.1025377 C5.93043508,4.4121869 4.27348952,3.6397998 4.27348952,2.22835827 C4.27348952,1.52086028 4.56206008,0.880400605 5.02686452,0.418406653 L5.02686452,0.428987298 C5.27798952,0.172902621 5.65252782,0.0106385081 6.07013266,0.0106385081" id="Stroke-7"></path>
        </g>
        <path d="M20,36.0023149 L20,0.0379580645" id="Stroke-10" stroke="#007DC7" stroke-width="1.5"></path>
        <path d="M31.4735425,36 L9.68237319,36" id="Stroke-11" stroke="#007DC7" stroke-width="1.5"></path>
        <path d="M28.3508387,16.324431 L34.6216069,4.43955605" id="Stroke-12" stroke="#007DC7" stroke-width="1.5"></path>
        <g id="Group-17" transform="translate(0.000000, 4.381048)" stroke="#007DC7" stroke-width="1.5">
            <path d="M40.9559167,11.9433827 L34.6851486,0.0585076613" id="Stroke-13"></path>
            <path d="M0.0440832661,11.9433827 L6.31485141,0.0585076613" id="Stroke-15"></path>
        </g>
        <path d="M12.6491613,16.324431 L6.37839315,4.43955605" id="Stroke-18" stroke="#007DC7" stroke-width="1.5"></path>
    </g>
</svg>