<svg width="38px" height="38px" viewBox="144 890 38 38" version="1.1" xmlns="http://www.w3.org/2000/svg" xmlns:xlink="http://www.w3.org/1999/xlink">
    <!-- Generator: Sketch 3.8.3 (29802) - http://www.bohemiancoding.com/sketch -->
    <desc>Created with Sketch.</desc>
    <defs></defs>
    <g id="Page-1" stroke="none" stroke-width="1" fill="none" fill-rule="evenodd" transform="translate(144.000000, 890.000000)">
        <path d="M11.233569,27.1084219 C10.2046376,26.1918529 8.57387033,24.6401862 6.94487095,22.6856471 C4.56578867,19.8321276 1.72783467,15.5430586 1.72783467,11.312039 C1.72783467,6.02898048 5.99359071,1.72758857 11.2353333,1.72758857 C16.4770805,1.72758857 20.7410695,6.02898048 20.7410695,11.312039 C20.7410695,17.9585195 13.9215081,24.707039 11.233569,27.1084219 M11.2353333,0 C5.02995686,0 0,5.06491143 0,11.312039 C0,20.5041667 11.2353333,29.3813883 11.2353333,29.3813883 C11.2353333,29.3813883 22.4706667,20.5041667 22.4706667,11.312039 C22.4706667,5.06491143 17.4407152,0 11.2353333,0 M30.63332,34.4885177 C30.2273986,34.7700009 29.7491052,35.0250931 29.216101,35.243242 C28.7748848,35.4262048 28.5648624,35.9311126 28.7466471,36.3726844 C28.8825424,36.706946 29.2055243,36.9075009 29.5443757,36.9075009 C29.6537976,36.9075009 29.7667571,36.8863883 29.8726505,36.8424087 C30.5221338,36.5750009 31.10984,36.2600922 31.6181352,35.908242 C32.0117067,35.6355559 32.1087695,35.0972225 31.836979,34.7049087 C31.5651886,34.314351 31.0251271,34.2158342 30.63332,34.4885177 M28.6778129,22.9442552 C28.4307314,22.5009219 28.2807129,22.0417552 28.2295305,21.5773138 C28.1783481,21.1023138 27.7635962,20.7610195 27.2782548,20.8102838 C26.80349,20.8630586 26.4593367,21.287039 26.5122833,21.762039 C26.5864105,22.460461 26.8087919,23.1412943 27.1705881,23.7887057 C27.3276729,24.0701862 27.6224081,24.2302748 27.9242005,24.2302748 C28.0689262,24.2302748 28.2118786,24.1950886 28.3460095,24.1194414 C28.7625257,23.8872252 28.9125443,23.3612057 28.6778129,22.9442552 M32.2076057,26.8357448 C31.8405076,26.355461 31.4204629,25.8751862 30.9527643,25.4019414 C30.6191967,25.0624114 30.0720781,25.0588919 29.729689,25.3931471 C29.3908286,25.7274114 29.3873,26.274539 29.7226319,26.6158333 C30.1373838,27.0362943 30.511539,27.4655586 30.834521,27.8860195 C31.005711,28.1076862 31.2616229,28.2237943 31.5210633,28.2237943 C31.7046124,28.2237943 31.8881614,28.1675 32.0452371,28.0461081 C32.4264586,27.7558333 32.4970481,27.2139805 32.2076057,26.8357448 M37.9029281,10.4288919 C37.6840843,10.0049114 37.163439,9.83777476 36.7398657,10.0576862 C36.7398657,10.0576862 36.4451305,10.2089805 35.9527229,10.4887057 C35.537971,10.7244414 35.3932452,11.2522252 35.62975,11.6674114 C35.788581,11.9471276 36.081561,12.1037057 36.381589,12.1037057 C36.528079,12.1037057 36.67456,12.0667552 36.8087,11.9893529 C37.2534538,11.7377748 37.52348,11.597039 37.5305371,11.5935195 C37.9558838,11.3753724 38.121781,10.8546276 37.9029281,10.4288919 M32.9312162,29.706851 C32.4652819,29.8036126 32.1652538,30.2610177 32.2623257,30.7289832 C32.318801,31.006945 32.3505671,31.2813883 32.3505671,31.5417589 C32.3505671,31.7546294 32.3293867,31.9675 32.2905543,32.1715754 C32.1987843,32.6412961 32.5058786,33.0934255 32.9735771,33.1831499 C33.0300524,33.1954637 33.0847633,33.1989832 33.1394743,33.1989832 C33.5453957,33.1989832 33.907201,32.9122225 33.986621,32.498797 C34.048389,32.1874087 34.0784,31.8672216 34.0784,31.5417589 C34.0784,31.1652793 34.036039,30.7729628 33.9548548,30.3771294 C33.8560276,29.9091676 33.3971505,29.611852 32.9312162,29.706851 M32.8094443,12.5012943 C32.3276224,12.8478724 31.8299219,13.2261081 31.3375143,13.625461 C30.9668876,13.9280586 30.9121676,14.4716667 31.213969,14.8411081 C31.3851681,15.0522252 31.6340138,15.159539 31.8846329,15.159539 C32.075239,15.159539 32.2693829,15.0962057 32.4282229,14.9660195 C32.8923838,14.5877748 33.3618557,14.2324114 33.8171952,13.9069414 C34.2037095,13.6289805 34.2937152,13.0888919 34.0148676,12.7018529 C33.7377752,12.3130586 33.1977138,12.2250886 32.8094443,12.5012943 M25.9510505,36.0859255 C25.4021676,36.1633342 24.8232738,36.2231499 24.2302748,36.2600922 C23.7537548,36.2917589 23.3919495,36.7034255 23.4237157,37.1801847 C23.4537176,37.6375926 23.8331748,37.9876848 24.2849857,37.9876848 C24.3044019,37.9876848 24.3220538,37.985926 24.341461,37.985926 C24.976821,37.9437023 25.6015952,37.8821321 26.1946033,37.7976847 C26.6675948,37.7308339 26.9958695,37.292779 26.9287995,36.8195381 C26.8617386,36.348055 26.4258062,36.015555 25.9510505,36.0859255 M15.6952305,35.376946 C15.1463476,35.1799087 14.6468829,34.949446 14.2109505,34.694351 C13.7979629,34.4498165 13.2702605,34.5923165 13.0284719,35.0022216 C12.784919,35.4138883 12.9243429,35.9451844 13.3355662,36.184446 C13.8650329,36.4940754 14.4615695,36.7702793 15.1110438,37.0042589 C15.2081157,37.0376844 15.3051876,37.0535177 15.4040238,37.0535177 C15.7569986,37.0535177 16.0905662,36.8353715 16.21764,36.4817589 C16.3782443,36.0331499 16.1452771,35.5370381 15.6952305,35.376946 M20.7393052,36.2724087 C20.1410043,36.240742 19.558591,36.1914832 19.0097081,36.1228715 C18.5349524,36.0525009 18.1043129,36.3990754 18.0460733,36.8723165 C17.9860695,37.3473163 18.3231567,37.7783339 18.7961571,37.8363909 C19.3856276,37.9102769 20.0086376,37.9648164 20.6475352,38 L20.6934157,38 C21.1505286,38 21.53175,37.6428689 21.55645,37.1819457 C21.5811681,36.7034255 21.2158252,36.2970381 20.7393052,36.2724087 M12.0718943,31.9833333 C12.0648371,31.511851 11.6818514,31.131851 11.20886,31.131851 C10.7305757,31.131851 10.3440614,31.5188892 10.3440614,31.9974087 C10.3440614,32.0783333 10.3546562,32.5181499 10.5840857,33.1338883 C10.7129238,33.4839832 11.0429629,33.6986126 11.3941733,33.6986126 C11.4930095,33.6986126 11.5953743,33.6810177 11.6942105,33.6440754 C12.1424929,33.4787048 12.3701671,32.9825922 12.204261,32.5339832 C12.0877819,32.2190754 12.0736586,32.0026844 12.0718943,31.9833333 M27.8147786,18.9964805 C27.9524381,19.0774114 28.104221,19.1161081 28.2524752,19.1161081 C28.5489748,19.1161081 28.8366529,18.9648138 28.9990214,18.6921276 C29.2566976,18.2540781 29.5814348,17.8037057 29.9626562,17.3480586 C30.2697505,16.9821276 30.2220967,16.4367552 29.8567629,16.1306471 C29.4896648,15.8227748 28.9443105,15.872039 28.6389895,16.237961 C28.196,16.7639805 27.8165429,17.297039 27.5094486,17.8125 C27.26766,18.2241667 27.4035552,18.7519414 27.8147786,18.9964805 M11.2353333,15.5536081 C8.8491939,15.5536081 6.91310205,13.6184219 6.91310205,11.2311081 C6.91310205,8.84379429 8.8491939,6.9086081 11.2353333,6.9086081 C13.6232443,6.9086081 15.5558067,8.84379429 15.5558067,11.2311081 C15.5558067,13.6184219 13.6232443,15.5536081 11.2353333,15.5536081 M11.2353333,5.1986081 C7.8943851,5.1986081 5.18526738,7.9061081 5.18526738,11.2451862 C5.18526738,14.5860195 7.8943851,17.2952748 11.2353333,17.2952748 C14.5762843,17.2952748 17.2854038,14.5860195 17.2854038,11.2451862 C17.2854038,7.9061081 14.5762843,5.1986081 11.2353333,5.1986081" id="Fill-3" fill="#007DC7"></path>
    </g>
</svg>