<svg width="28px" height="34px" viewBox="142 1309 28 34" version="1.1" xmlns="http://www.w3.org/2000/svg" xmlns:xlink="http://www.w3.org/1999/xlink">
    <!-- Generator: Sketch 3.8.3 (29802) - http://www.bohemiancoding.com/sketch -->
    <desc>Created with Sketch.</desc>
    <defs></defs>
    <g id="icon" stroke="none" stroke-width="1" fill="none" fill-rule="evenodd" transform="translate(142.000000, 1309.000000)">
        <path d="M18.666664,9.163776 L18.666664,1.527552 L19.444448,1.527552 L26.444448,9.163776 L18.666664,9.163776 L18.666664,9.163776 Z M26.444448,30.5448904 C26.444448,31.3895552 25.74704,32.0724456 24.888888,32.0724456 L3.1111112,32.0724456 C2.2516664,32.0724456 1.555556,31.3895552 1.555556,30.5448904 L1.555556,3.055112 C1.555556,2.212 2.2516664,1.527552 3.1111112,1.527552 L17.111112,1.527552 L17.111112,9.163776 C17.111112,10.006888 17.80852,10.691336 18.666664,10.691336 L26.444448,10.691336 L26.444448,30.5448904 L26.444448,30.5448904 Z M20.222224,0 L3.1111112,0 C1.3935184,0 0,1.367336 0,3.055112 L0,30.5448904 C0,32.232668 1.3935184,33.6 3.1111112,33.6 L24.888888,33.6 C26.60648,33.6 28,32.232668 28,30.5448904 L28,8.4 L20.222224,0 L20.222224,0 Z M6.2222224,13.744888 C6.2222224,14.168 6.5696296,14.508664 7,14.508664 L21,14.508664 C21.430368,14.508664 21.777776,14.168 21.777776,13.744888 C21.777776,13.324888 21.430368,12.981112 21,12.981112 L7,12.981112 C6.5696296,12.981112 6.2222224,13.324888 6.2222224,13.744888 L6.2222224,13.744888 Z M21,19.091336 L7,19.091336 C6.5696296,19.091336 6.2222224,19.433552 6.2222224,19.855112 C6.2222224,20.276664 6.5696296,20.618888 7,20.618888 L21,20.618888 C21.430368,20.618888 21.777776,20.276664 21.777776,19.855112 C21.777776,19.433552 21.430368,19.091336 21,19.091336 L21,19.091336 Z M7,8.4 L10.888888,8.4 C11.319256,8.4 11.666664,8.059336 11.666664,7.636224 C11.666664,7.214664 11.319256,6.872448 10.888888,6.872448 L7,6.872448 C6.5696296,6.872448 6.2222224,7.214664 6.2222224,7.636224 C6.2222224,8.059336 6.5696296,8.4 7,8.4 L7,8.4 Z M16.333336,25.2 L7,25.2 C6.5696296,25.2 6.2222224,25.542224 6.2222224,25.9637776 C6.2222224,26.3853336 6.5696296,26.727556 7,26.727556 L16.333336,26.727556 C16.763704,26.727556 17.111112,26.3853336 17.111112,25.9637776 C17.111112,25.542224 16.763704,25.2 16.333336,25.2 L16.333336,25.2 Z" id="Fill-3" fill="#007DC7"></path>
    </g>
</svg>