
<svg width="35px" height="32px" viewBox="11 329 35 32" version="1.1" xmlns="http://www.w3.org/2000/svg" xmlns:xlink="http://www.w3.org/1999/xlink">
    <!-- Generator: Sketch 3.8.2 (29753) - http://www.bohemiancoding.com/sketch -->
    <desc>Created with Sketch.</desc>
    <defs></defs>
    <g id="bubble" stroke="none" stroke-width="1" fill="none" fill-rule="evenodd" transform="translate(12.000000, 329.000000)">
        <path d="M0.894736842,31.2105263 C0.492105263,31.2105263 0.139578947,30.9421053 0.0322105263,30.5537895 C-0.0751578947,30.1654737 0.0894736842,29.7538947 0.434842105,29.5481053 C3.46084211,27.7335789 4.71526316,25.0941053 5.16084211,23.8593684 C1.87178947,21.3415789 -1.23941059e-13,17.8574737 -1.23941059e-13,14.2105263 C-1.23941059e-13,12.3691579 0.461684211,10.5850526 1.37431579,8.90652632 C2.244,7.30673684 3.48589474,5.87336842 5.06242105,4.64578947 C8.26021053,2.15842105 12.4994737,0.787684211 17,0.787684211 C21.5005263,0.787684211 25.7397895,2.15842105 28.9375789,4.64578947 C30.5141053,5.87157895 31.756,7.30494737 32.6256842,8.90652632 C33.5383158,10.5832632 34,12.3673684 34,14.2105263 C34,16.0536842 33.5383158,17.836 32.6256842,19.5145263 C31.756,21.1143158 30.5141053,22.5476842 28.9375789,23.7752632 C25.7397895,26.2626316 21.5005263,27.6333684 17,27.6333684 C15.1514737,27.6333684 13.3369474,27.4025263 11.6029474,26.9444211 C10.8352632,27.4562105 9.40010526,28.3634737 7.68578947,29.2170526 C5.02305263,30.5412632 2.73968421,31.2123158 0.896526316,31.2123158 L0.894736842,31.2105263 Z M17,2.57894737 C8.61273684,2.57894737 1.78947368,7.79705263 1.78947368,14.2105263 C1.78947368,17.4584211 3.58789474,20.5846316 6.72126316,22.7856842 C7.02905263,23.0022105 7.16863158,23.3869474 7.072,23.7502105 C6.86263158,24.5304211 6.15042105,26.6724211 4.24463158,28.7392632 C6.57452632,27.9232632 9.08336842,26.5077895 10.9354737,25.2336842 C11.1555789,25.0815789 11.4311579,25.0368421 11.6888421,25.1102105 C13.3852632,25.5951579 15.1729474,25.8421053 17,25.8421053 C25.3872632,25.8421053 32.2105263,20.624 32.2105263,14.2105263 C32.2105263,7.79705263 25.3872632,2.57894737 17,2.57894737 L17,2.57894737 Z" id="Shape" fill="#007DC7"></path>
    </g>
</svg>