<svg width="30px" height="40px" viewBox="142 385 30 40" version="1.1" xmlns="http://www.w3.org/2000/svg" xmlns:xlink="http://www.w3.org/1999/xlink">
    <!-- Generator: Sketch 3.8.3 (29802) - http://www.bohemiancoding.com/sketch -->
    <desc>Created with Sketch.</desc>
    <defs></defs>
    <path d="M167.347,411.779 L146.592,411.779 C146.179,411.779 145.842,412.115 145.842,412.529 C145.842,412.943 146.179,413.279 146.592,413.279 L167.347,413.279 C167.762,413.279 168.097,412.943 168.097,412.529 C168.097,412.115 167.762,411.779 167.347,411.779 L167.347,411.779 Z M163.593,397.431 L171.192,397.431 C171.198,397.43 171.205,397.43 171.211,397.431 C171.625,397.431 171.961,397.095 171.961,396.681 C171.961,396.424 171.831,396.196 171.633,396.061 L160.955,385.223 C160.742,385.007 160.419,384.943 160.136,385.055 C159.855,385.172 159.671,385.445 159.671,385.75 L159.671,393.509 C159.671,395.672 161.43,397.431 163.593,397.431 L163.593,397.431 Z M161.171,387.58 L169.4,395.931 L163.593,395.931 C162.257,395.931 161.171,394.844 161.171,393.509 L161.171,387.58 L161.171,387.58 Z M167.347,416.882 L146.592,416.882 C146.179,416.882 145.842,417.218 145.842,417.632 C145.842,418.047 146.179,418.382 146.592,418.382 L167.347,418.382 C167.762,418.382 168.097,418.047 168.097,417.632 C168.097,417.218 167.762,416.882 167.347,416.882 L167.347,416.882 Z M146.592,392.861 L156.122,392.861 C156.535,392.861 156.871,392.525 156.871,392.111 C156.871,391.697 156.535,391.361 156.122,391.361 L146.592,391.361 C146.179,391.361 145.842,391.697 145.842,392.111 C145.842,392.525 146.179,392.861 146.592,392.861 L146.592,392.861 Z M171.192,397.789 C170.777,397.789 170.441,398.125 170.441,398.539 L170.441,420.558 C170.441,422.028 169.246,423.224 167.776,423.224 L146.163,423.224 C144.695,423.224 143.5,422.028 143.5,420.558 L143.502,389.09 C143.547,387.637 144.716,386.5 146.163,386.5 L158.57,386.5 C158.984,386.5 159.32,386.164 159.32,385.75 C159.32,385.336 158.984,385 158.57,385 L146.163,385 C143.9,385 142.073,386.776 142.003,389.066 L142,420.558 C142,422.855 143.868,424.724 146.163,424.724 L167.776,424.724 C170.073,424.724 171.941,422.855 171.941,420.558 L171.941,398.539 C171.941,398.125 171.605,397.789 171.192,397.789 L171.192,397.789 Z M146.592,397.965 L156.122,397.965 C156.535,397.965 156.871,397.629 156.871,397.215 C156.871,396.8 156.535,396.465 156.122,396.465 L146.592,396.465 C146.179,396.465 145.842,396.8 145.842,397.215 C145.842,397.629 146.179,397.965 146.592,397.965 L146.592,397.965 Z M167.347,401.57 L146.592,401.57 C146.179,401.57 145.842,401.906 145.842,402.32 C145.842,402.734 146.179,403.07 146.592,403.07 L167.347,403.07 C167.762,403.07 168.097,402.734 168.097,402.32 C168.097,401.906 167.762,401.57 167.347,401.57 L167.347,401.57 Z M167.347,406.674 L146.592,406.674 C146.179,406.674 145.842,407.009 145.842,407.424 C145.842,407.838 146.179,408.174 146.592,408.174 L167.347,408.174 C167.762,408.174 168.097,407.838 168.097,407.424 C168.097,407.009 167.762,406.674 167.347,406.674 L167.347,406.674 Z" id="Fill-73" stroke="none" fill="#007DC7" fill-rule="evenodd"></path>
</svg>