<svg width="35px" height="32px" viewBox="145 398 35 32" version="1.1" xmlns="http://www.w3.org/2000/svg" xmlns:xlink="http://www.w3.org/1999/xlink">
    <!-- Generator: Sketch 3.8.2 (29753) - http://www.bohemiancoding.com/sketch -->
    <desc>Created with Sketch.</desc>
    <defs></defs>
    <g id="Page-1" stroke="none" stroke-width="1" fill="none" fill-rule="evenodd" transform="translate(145.000000, 398.000000)">
        <polygon id="Fill-1" fill-opacity="0" fill="#FFFFFF" points="0 0 35 0 35 31.6666667 0 31.6666667"></polygon>
        <path d="M33.1754667,10.0600333 L29.3627333,13.8541667 L28.2381917,12.7341083 L32.050925,8.93996667 C32.1951417,8.7963 32.3944417,8.70833333 32.6131917,8.70833333 C33.0523167,8.70833333 33.4088,9.06311667 33.4088,9.5 C33.4088,9.71844167 33.319675,9.91635833 33.1754667,10.0600333 L33.1754667,10.0600333 Z M35,9.5 C35,8.18935 33.932175,7.125 32.6131917,7.125 C31.9537,7.125 31.3574083,7.39035833 30.9263917,7.821375 L11.0395833,27.61304 C10.6085667,28.0425942 10.3412,28.6363442 10.3412,29.2916675 C10.3412,30.6023158 11.409025,31.6666667 12.7280083,31.6666667 C13.3875,31.6666667 13.9838,31.4013128 14.4148167,30.9702945 L34.301625,11.178625 C34.7326417,10.749075 35,10.155325 35,9.5 L35,9.5 Z M32.6131917,20.5833333 L30.2280083,20.5833333 L30.2280083,17.472375 L25.5111083,22.1666667 L32.6131917,22.1666667 C33.0523167,22.1666667 33.4088,22.52145 33.4088,22.9583333 C33.4088,23.3952167 33.0523167,23.75 32.6131917,23.75 L23.9199083,23.75 L22.3287083,25.3333342 L32.6131917,25.3333342 C33.932175,25.3333342 35,24.2689825 35,22.9583333 C35,21.6476833 33.932175,20.5833333 32.6131917,20.5833333 L32.6131917,20.5833333 Z M12.6713,23.75 L2.38680583,23.75 C1.947685,23.75 1.59120417,23.3952167 1.59120417,22.9583333 C1.59120417,22.52145 1.947685,22.1666667 2.38680583,22.1666667 L14.2625,22.1666667 L20.6257,15.8333333 L6.363195,15.8333333 L6.363195,1.58333333 L28.6368083,1.58333333 L28.6368083,7.86095833 L30.2280083,6.277625 L30.2280083,0.791666667 C30.2280083,0.354783333 29.8699083,0 29.4324083,0 L5.5675925,0 C5.1300925,0 4.77199083,0.354783333 4.77199083,0.791666667 L4.77199083,20.5833333 L2.38680583,20.5833333 C1.06782417,20.5833333 0,21.6476833 0,22.9583333 C0,24.2689825 1.06782417,25.3333342 2.38680583,25.3333342 L11.0800917,25.3333342 L12.6713,23.75 L12.6713,23.75 Z" id="Fill-3" fill="#007DC7"></path>
    </g>
</svg>