<svg width="37px" height="37px" viewBox="140 395 37 37" version="1.1" xmlns="http://www.w3.org/2000/svg" xmlns:xlink="http://www.w3.org/1999/xlink">
    <!-- Generator: Sketch 3.8.3 (29802) - http://www.bohemiancoding.com/sketch -->
    <desc>Created with Sketch.</desc>
    <defs></defs>
    <g id="Page-1" stroke="none" stroke-width="1" fill="none" fill-rule="evenodd" transform="translate(140.000000, 395.000000)">
        <polygon id="Fill-1" fill-opacity="0" fill="#FFFFFF" points="0 0 37 0 37 36.1395349 0 36.1395349"></polygon>
        <path d="M21.0369007,33.2048704 L16.1241181,21.5532142 L33.6682877,4.41706 L21.0369007,33.2048704 L21.0369007,33.2048704 Z M3.00625,15.5935381 L32.4777826,3.25422744 L14.9353253,20.3903988 L3.00625,15.5935381 L3.00625,15.5935381 Z M37,0.821503256 C37,0.368089767 36.6231507,0 36.1589298,0 C36.0304709,0 35.9105565,0.0334634884 35.8009247,0.0870016279 L35.7975,0.0803072093 L0.517314812,14.8489949 C0.515601798,14.8489949 0.512175942,14.8506728 0.50875,14.8523421 L0.479629623,14.8657309 L0.481342637,14.8690781 C0.198703681,15.0029235 0,15.2789951 0,15.6052491 C0,15.9783553 0.258657449,16.281196 0.608101884,16.3815865 L0.604675942,16.3949667 L14.4950942,21.9815365 L20.2146747,35.5505953 L20.2283819,35.5455773 C20.3311558,35.8868923 20.6412072,36.1395349 21.0231935,36.1395349 C21.357226,36.1395349 21.6415753,35.9454522 21.7769007,35.6693878 L21.7820377,35.6710604 L21.794024,35.6426168 C21.7957363,35.6392715 21.7974572,35.6375988 21.7974572,35.6342493 L36.9194949,1.17453488 L36.9092123,1.16951837 C36.9623202,1.0641114 37,0.948662791 37,0.821503256 L37,0.821503256 Z M13.4553253,27.1046512 C13.222363,27.1046512 13.0116695,27.1966693 12.8592123,27.3455814 L10.3377312,29.8100963 C10.185274,29.9573331 10.0910616,30.164799 10.0910616,30.3906711 C10.0910616,30.8440906 10.4679195,31.2121786 10.9321319,31.2121786 C11.1633819,31.2121786 11.3740753,31.1201553 11.526524,30.9712484 L14.049726,28.5067309 C14.2021747,28.3594976 14.2946747,28.1537018 14.2946747,27.9261561 C14.2946747,27.4727409 13.9195377,27.1046512 13.4553253,27.1046512 L13.4553253,27.1046512 Z M13.4553253,23.8203074 C13.4553253,23.3668853 13.078476,22.9971263 12.6142551,22.9971263 C12.3812928,22.9971263 12.1705993,23.0908223 12.019863,23.2380565 L3.60921319,31.4514335 C3.4584726,31.6020149 3.36425942,31.8078115 3.36425942,32.0320083 C3.36425942,32.4871005 3.7411113,32.8535158 4.20532449,32.8535158 C4.43657363,32.8535158 4.64726884,32.763167 4.79972174,32.6142583 L13.2086558,24.3992026 C13.361113,24.2519684 13.4553253,24.0461795 13.4553253,23.8203074 L13.4553253,23.8203074 Z M8.16226884,24.3992026 L9.00333047,23.5793772 C9.15578767,23.4304651 9.25,23.2246677 9.25,22.9971263 C9.25,22.5453821 8.8731507,22.1772923 8.40893493,22.1772923 C8.17768579,22.1772923 7.96699058,22.2693191 7.81453681,22.4165533 L6.97347174,23.2380565 C6.82101884,23.3886379 6.72680565,23.5927574 6.72680565,23.8203074 C6.72680565,24.2720516 7.10365753,24.6401328 7.56787072,24.6401328 C7.80083391,24.6401328 8.00981507,24.549784 8.16226884,24.3992026 L8.16226884,24.3992026 Z" id="Fill-3" fill="#007DC7"></path>
    </g>
</svg>