<svg width="39px" height="39px" viewBox="139 390 39 39" version="1.1" xmlns="http://www.w3.org/2000/svg" xmlns:xlink="http://www.w3.org/1999/xlink">
    <!-- Generator: Sketch 3.8.3 (29802) - http://www.bohemiancoding.com/sketch -->
    <desc>Created with Sketch.</desc>
    <defs></defs>
    <g id="Page-1" stroke="none" stroke-width="1" fill="none" fill-rule="evenodd" transform="translate(139.000000, 390.000000)">
        <path d="M32.4241636,31.60625 C31.3661121,30.5933336 29.3258364,28.7895864 27.2945864,27.8290257 C25.6190257,27.0381986 24.6584743,26.2365257 24.35875,25.3806986 C24.1529136,24.7866636 24.245,24.1059743 24.6440257,23.2988879 C24.94375,22.6904136 25.2272243,22.1830514 25.4890257,21.7172243 C26.5958364,19.7419486 27.4498621,18.3173621 27.4498621,13.2672243 C27.4498621,5.70916357 23.0876379,5.32819857 22.2245864,5.32819857 C21.5168014,5.32819857 21.0744486,5.48347429 20.6465257,5.63513786 C20.1770864,5.80125 19.6931986,5.97458643 18.59,5.99263786 C16.5930514,6.02513786 12.4095864,6.09375 12.4095864,13.0469486 C12.4095864,17.9093014 13.6752757,20.1427757 14.6701379,21.9375 C14.9247243,22.3961121 15.1648621,22.83125 15.35625,23.2645864 C16.20125,25.1856986 15.58375,26.5290257 13.4080514,27.4877757 C10.6618014,28.7029136 9.36722429,29.3348621 6.66791729,31.7091682 C3.64180607,28.5277757 1.77305607,24.2359743 1.77305607,19.5 C1.77305607,9.70847429 9.70847429,1.77305143 19.5,1.77305143 C29.2915257,1.77305143 37.2269486,9.70847429 37.2269486,19.5 C37.2269486,24.1854136 35.3943014,28.4356986 32.4241636,31.60625 M19.5,37.2269458 C15.0872243,37.2269458 11.0590257,35.6055561 7.95708271,32.9369458 C10.3458364,30.8461103 11.4869486,30.2737509 14.1248621,29.1091636 C17.1798621,27.7604136 18.2198621,25.3698621 16.9776379,22.5495864 C16.75375,22.0422243 16.4955514,21.5745864 16.2211121,21.0780514 C15.2768014,19.3772243 14.1826379,17.4506986 14.1826379,13.0469486 C14.1826379,7.83791357 16.6544486,7.79638786 18.6188879,7.76388786 C20.0127757,7.74041357 20.6934743,7.50027571 21.23875,7.30708643 C21.6016636,7.17708643 21.8219486,7.10125 22.2245864,7.10125 C23.8658364,7.10125 25.6768107,8.72083643 25.6768107,13.2672243 C25.6768107,17.8533364 24.9888879,18.9818014 23.9434743,20.8505514 C23.6672243,21.3416636 23.3693014,21.8743014 23.0533364,22.5152757 C22.4430607,23.7520864 22.3202757,24.9130514 22.6868014,25.9638879 C23.15625,27.3108364 24.3786121,28.4140257 26.5344486,29.4341636 C28.3020864,30.2683327 30.1527757,31.89875 31.1476379,32.84125 C28.03125,35.5640276 23.9633364,37.2269458 19.5,37.2269458 M19.5,0 C8.72986121,0 0,8.72986214 0,19.5 C0,30.2683327 8.72986121,39 19.5,39 C30.2701379,39 39,30.2683327 39,19.5 C39,8.72986214 30.2701379,0 19.5,0" id="Fill-3" fill="#007DC7"></path>
    </g>
</svg>