<svg width="31px" height="38px" viewBox="142 1726 31 38" version="1.1" xmlns="http://www.w3.org/2000/svg" xmlns:xlink="http://www.w3.org/1999/xlink">
    <!-- Generator: Sketch 3.8.2 (29753) - http://www.bohemiancoding.com/sketch -->
    <desc>Created with Sketch.</desc>
    <defs></defs>
    <g id="Page-1" stroke="none" stroke-width="1" fill="none" fill-rule="evenodd" transform="translate(142.000000, 1726.000000)">
        <path d="M19.8055546,32.1280572 C19.3290757,32.1280572 18.9444454,32.5052218 18.9444454,32.9719437 C18.9444454,33.44039 19.3290757,33.8175572 19.8055546,33.8175572 C20.2820334,33.8175572 20.6666637,33.44039 20.6666637,32.9719437 C20.6666637,32.5052218 20.2820334,32.1280572 19.8055546,32.1280572 L19.8055546,32.1280572 Z M14.6388909,27.0543909 C14.1624031,27.0543909 13.7777817,26.6772183 13.7777817,26.2087817 C13.7777817,25.7420546 14.1624031,25.3631637 14.6388909,25.3631637 C15.1153697,25.3631637 15.5,25.7420546 15.5,26.2087817 C15.5,26.6772183 15.1153697,27.0543909 14.6388909,27.0543909 L14.6388909,27.0543909 Z M14.6388909,23.6719454 C13.2123151,23.6719454 12.0555546,24.8086091 12.0555546,26.2087817 C12.0555546,27.6089454 13.2123151,28.7456109 14.6388909,28.7456109 C16.0654666,28.7456109 17.2222183,27.6089454 17.2222183,26.2087817 C17.2222183,24.8086091 16.0654666,23.6719454 14.6388909,23.6719454 L14.6388909,23.6719454 Z M22.3888909,23.6719454 C21.438794,23.6719454 20.6666637,24.4314454 20.6666637,25.3631637 C20.6666637,26.2966091 21.438794,27.0543909 22.3888909,27.0543909 C23.3389789,27.0543909 24.1111091,26.2966091 24.1111091,25.3631637 C24.1111091,24.4314454 23.3389789,23.6719454 22.3888909,23.6719454 L22.3888909,23.6719454 Z M20.6666637,35.5087791 L10.3333363,35.5087791 C5.58574031,35.5087791 1.72222271,31.7164437 1.72222271,27.0543909 C1.72222271,22.6007183 3.13157394,20.0122183 4.76481514,17.0155546 C4.99013909,16.6005 5.21833274,16.1751091 5.44939789,15.7411091 C5.60439789,15.6601637 9.21389086,13.8432183 14.0849031,16.5763909 C15.7281954,17.4977817 17.3140757,17.8422183 18.7707923,17.8422183 C21.7459243,17.8422183 24.1771303,16.4007183 25.4185651,15.4845 C25.6926849,16.0080546 25.9668046,16.5195546 26.2351849,17.0155546 C27.8684243,20.0122183 29.2777817,22.6007183 29.2777817,27.0543909 C29.2777817,31.7164437 25.4142606,35.5087791 20.6666637,35.5087791 L20.6666637,35.5087791 Z M8.56375,5.07194543 L22.43625,5.07194543 C22.6500969,8.84016371 23.5729137,11.5991637 24.6564789,13.9327817 C23.36625,14.9661091 19.3879137,17.6011091 14.9402817,15.1073363 C11.3680986,13.1043909 8.32407483,13.2249454 6.48703697,13.6262183 C7.50745334,11.3563363 8.35851849,8.67483629 8.56375,5.07194543 L8.56375,5.07194543 Z M5.16666637,1.69121829 L25.8333363,1.69121829 L25.8333363,3.38244543 L5.16666637,3.38244543 L5.16666637,1.69121829 L5.16666637,1.69121829 Z M24.1728257,5.07194543 L25.8333363,5.07194543 C26.7834243,5.07194543 27.5555546,4.31416371 27.5555546,3.38244543 L27.5555546,1.69121829 C27.5555546,0.757781714 26.7834243,0 25.8333363,0 L5.16666637,0 C4.21657394,0 3.44444454,0.757781714 3.44444454,1.69121829 L3.44444454,3.38244543 C3.44444454,4.31416371 4.21657394,5.07194543 5.16666637,5.07194543 L6.82717606,5.07194543 C6.2028706,15.3915 0,17.4185546 0,27.0543909 C0,32.6567791 4.62703697,37.2 10.3333363,37.2 L20.6666637,37.2 C26.3729577,37.2 31,32.6567791 31,27.0543909 C31,17.4185546 24.7971303,15.3915 24.1728257,5.07194543 L24.1728257,5.07194543 Z M24.9722183,20.2912183 C24.4957394,20.2912183 24.1111091,20.6683909 24.1111091,21.1368363 C24.1111091,21.6035546 24.4957394,21.9824454 24.9722183,21.9824454 C25.448706,21.9824454 25.8333363,21.6035546 25.8333363,21.1368363 C25.8333363,20.6683909 25.448706,20.2912183 24.9722183,20.2912183 L24.9722183,20.2912183 Z M8.61111091,18.6 C7.66101849,18.6 6.88888909,19.3577817 6.88888909,20.2912183 C6.88888909,21.2246726 7.66101849,21.9824454 8.61111091,21.9824454 C9.561206,21.9824454 10.3333363,21.2246726 10.3333363,20.2912183 C10.3333363,19.3577817 9.561206,18.6 8.61111091,18.6 L8.61111091,18.6 Z M7.75,28.7456109 C7.27351849,28.7456109 6.88888909,29.1227791 6.88888909,29.5912227 C6.88888909,30.0579437 7.27351849,30.4368327 7.75,30.4368327 C8.22648151,30.4368327 8.61111091,30.0579437 8.61111091,29.5912227 C8.61111091,29.1227791 8.22648151,28.7456109 7.75,28.7456109 L7.75,28.7456109 Z" id="Fill-3" fill="#007DC7"></path>
    </g>
</svg>