<svg width="37px" height="37px" viewBox="139 392 37 37" version="1.1" xmlns="http://www.w3.org/2000/svg" xmlns:xlink="http://www.w3.org/1999/xlink">
    <!-- Generator: Sketch 3.8.2 (29753) - http://www.bohemiancoding.com/sketch -->
    <desc>Created with Sketch.</desc>
    <defs></defs>
    <g id="Page-1" stroke="none" stroke-width="1" fill="none" fill-rule="evenodd" transform="translate(140.000000, 393.000000)">
        <path d="M34.3634743,34.3634705 L29.4570402,34.3634705 L29.4570402,31.9102543 C29.4570402,31.4596295 29.0904873,31.0930741 28.6398583,31.0930741 L26.1866412,31.0930741 L26.1866412,28.6398587 C26.1866412,28.1875506 25.8200884,27.8209969 25.3677794,27.8209969 L22.4370365,27.8209969 L17.3338732,22.6942967 C17.1859064,22.5463299 16.9824487,22.4538453 16.7554542,22.4538453 C16.5099628,22.4538453 16.2981053,22.5681868 16.1484585,22.7396905 L14.8218054,24.0646636 C14.1828557,24.7036133 13.1487764,24.7036133 12.5115067,24.0646636 L2.11181526,13.6666565 C1.4745507,13.0277068 1.4745507,11.9936274 2.11181526,11.3546777 L11.3563573,2.11013142 C11.993627,1.47287029 13.0293863,1.47287029 13.666656,2.11013142 L24.0646632,12.5098271 C24.7019329,13.1487682 24.7019329,14.1828561 24.0646632,14.8218058 L22.7649155,16.1215535 C22.5934118,16.2712003 22.4807502,16.4847464 22.4807502,16.7302378 C22.4807502,16.9555438 22.5715463,17.1606814 22.7212017,17.3086482 L34.3634743,28.9778262 L34.3634743,34.3634705 L34.3634743,34.3634705 Z M35.7607466,28.0614432 L24.4598014,16.7369577 L25.2198125,15.9769552 C26.4960233,14.7007358 26.4960233,12.6308886 25.2198125,11.3546777 L14.8218054,0.956670607 C13.5455946,-0.319540202 11.4757388,-0.319540202 10.1995279,0.956670607 L0.956667607,10.1995284 C-0.319543202,11.4757392 -0.319543202,13.545595 0.956667607,14.8218058 L11.3563573,25.219813 C12.6325681,26.4960238 14.7007354,26.4960238 15.9769548,25.219813 L16.7605028,24.436265 L21.51897,29.2165909 C21.6669369,29.3662385 21.8720745,29.4570363 22.0973804,29.4570363 L24.5505975,29.4570363 L24.5505975,31.9102543 C24.5505975,32.3625615 24.9171589,32.7274336 25.3677794,32.7274336 L27.8209964,32.7274336 L27.8209964,35.1823322 C27.8209964,35.6346384 28.1875493,35.9995099 28.6398583,35.9995099 L35.1823362,35.9995099 C35.6329566,35.9995099 35.9995095,35.6346384 35.9995095,35.1823322 L35.9995095,28.6398587 C35.9995095,28.4145451 35.9087134,28.2094109 35.7607466,28.0614432 L35.7607466,28.0614432 Z M11.4656503,13.1000145 C10.5627209,13.1000145 9.82961513,12.3685888 9.82961513,11.4656507 C9.82961513,10.5627213 10.5627209,9.82961556 11.4656503,9.82961556 C12.3685883,9.82961556 13.1016941,10.5627213 13.1016941,11.4656507 C13.1016941,12.3685888 12.3685883,13.1000145 11.4656503,13.1000145 L11.4656503,13.1000145 Z M11.4656503,8.19357181 C9.6597914,8.19357181 8.1952565,9.65811184 8.1952565,11.4656507 C8.1952565,13.2715182 9.6597914,14.7377297 11.4656503,14.7377297 C13.2715178,14.7377297 14.7377292,13.2715182 14.7377292,11.4656507 C14.7377292,9.65811184 13.2715178,8.19357181 11.4656503,8.19357181 L11.4656503,8.19357181 Z" id="Fill-3" fill="#007DC7"></path>
    </g>
</svg>