<svg width="37px" height="28px" viewBox="142 392 37 28" version="1.1" xmlns="http://www.w3.org/2000/svg" xmlns:xlink="http://www.w3.org/1999/xlink">
    <!-- Generator: Sketch 3.8.3 (29802) - http://www.bohemiancoding.com/sketch -->
    <desc>Created with Sketch.</desc>
    <defs></defs>
    <g id="Page-1" stroke="none" stroke-width="1" fill="none" fill-rule="evenodd" transform="translate(142.000000, 392.000000)">
        <path d="M35.3178743,23.8958333 C35.3178743,23.9969808 35.3058845,24.0955981 35.28875,24.1929513 L24.9047705,13.6547619 L35.28875,3.11657167 C35.3058845,3.21392571 35.3178743,3.31254833 35.3178743,3.41369048 L35.3178743,23.8958333 L35.3178743,23.8958333 Z M33.6357398,25.6026786 L3.36425936,25.6026786 C3.16726871,25.6026786 2.97884269,25.5622208 2.80412076,25.4990046 L13.2840307,14.8609355 L16.1703743,17.7916526 C16.8144474,18.4453105 17.6572193,18.7715042 18.5,18.7715042 C19.3427807,18.7715042 20.1855526,18.4453105 20.8279167,17.7916526 L23.7159781,14.8609355 L34.1975936,25.4990046 C34.0211564,25.5622208 33.8344474,25.6026786 33.6357398,25.6026786 L33.6357398,25.6026786 Z M1.68213012,23.8958333 L1.68213012,3.41369048 C1.68213012,3.31254833 1.69412076,3.21392571 1.71125,3.11657167 L12.0952295,13.6547619 L1.71125,24.1929513 C1.69412076,24.0955981 1.68213012,23.9969808 1.68213012,23.8958333 L1.68213012,23.8958333 Z M3.36425936,1.70684524 L33.6357398,1.70684524 C33.8344474,1.70684524 34.0211564,1.74730738 34.1975936,1.81178429 L19.6391243,16.585479 C19.3359269,16.893971 18.9299576,17.0646555 18.5,17.0646555 C18.0700424,17.0646555 17.6640731,16.893971 17.3591667,16.585479 L2.80412076,1.81178429 C2.97884269,1.74730738 3.16726871,1.70684524 3.36425936,1.70684524 L3.36425936,1.70684524 Z M33.6357398,0 L3.36425936,0 C1.50569474,0 0,1.52857571 0,3.41369048 L0,23.8958333 C0,25.7809507 1.50569474,27.3095238 3.36425936,27.3095238 L33.6357398,27.3095238 C35.4943114,27.3095238 37,25.7809507 37,23.8958333 L37,3.41369048 C37,1.52857571 35.4943114,0 33.6357398,0 L33.6357398,0 Z" id="Fill-3" fill="#007DC7"></path>
    </g>
</svg>