<svg width="35px" height="32px" viewBox="0 7 35 32" version="1.1" xmlns="http://www.w3.org/2000/svg" xmlns:xlink="http://www.w3.org/1999/xlink">
    <!-- Generator: Sketch 3.8.3 (29802) - http://www.bohemiancoding.com/sketch -->
    <desc>Created with Sketch.</desc>
    <defs></defs>
    <g id="Page-1" stroke="none" stroke-width="1" fill="none" fill-rule="evenodd" transform="translate(0.000000, 7.000000)">
        <path d="M12.7280083,27.7083333 C11.794675,27.7083333 10.8305583,27.6013125 9.861575,27.3902008 C9.74976667,27.3652792 9.634725,27.35355 9.5213,27.35355 C9.32685,27.35355 9.13240833,27.388735 8.94930833,27.4576383 L4.791435,29.0497683 L5.45254667,26.7451383 C5.62916667,26.1352633 5.42013917,25.4799383 4.924305,25.0811725 C2.77407417,23.3483025 1.59120417,21.0495333 1.59120417,18.6041667 C1.59120417,13.5844167 6.58680583,9.5 12.7280083,9.5 C18.8675917,9.5 23.8631917,13.5844167 23.8631917,18.6041667 C23.8631917,23.6239192 18.8675917,27.7083333 12.7280083,27.7083333 M12.7280083,7.91666667 C5.6988425,7.91666667 0,12.70185 0,18.6041667 C0,21.6359583 1.510185,24.36574 3.9245375,26.3111883 L2.38680583,31.6666667 L9.5213,28.9368833 C10.5469917,29.1611883 11.6164333,29.2916675 12.7280083,29.2916675 C19.7555583,29.2916675 25.4544,24.5064825 25.4544,18.6041667 C25.4544,12.70185 19.7555583,7.91666667 12.7280083,7.91666667 M35,10.6875 C35,4.78518333 29.302775,0 22.2719917,0 C17.0236083,0 12.5173583,2.669675 10.5729167,6.48286667 C11.2,6.40224167 11.838425,6.350925 12.4898167,6.34213333 C14.3807833,3.509725 18.0557833,1.58333333 22.2719917,1.58333333 C28.4131917,1.58333333 33.4088,5.66775 33.4088,10.6875 C33.4088,13.1328667 32.225925,15.4316333 30.0757,17.1630417 C29.5798583,17.563275 29.3708333,18.2200583 29.5458333,18.828475 L30.2085667,21.1331 L26.9192083,19.8737667 C26.8544,20.4103417 26.7361167,20.93225 26.5919,21.4453667 L32.6131917,23.75 L31.0754667,18.394525 C33.4914333,16.449075 35,13.7192917 35,10.6875" id="Fill-3" fill="#007DC7"></path>
    </g>
</svg>