<svg width="32px" height="32px" viewBox="143 702 32 32" version="1.1" xmlns="http://www.w3.org/2000/svg" xmlns:xlink="http://www.w3.org/1999/xlink">
    <!-- Generator: Sketch 3.8.2 (29753) - http://www.bohemiancoding.com/sketch -->
    <desc>Created with Sketch.</desc>
    <defs></defs>
    <g id="Page-1" stroke="none" stroke-width="1" fill="none" fill-rule="evenodd" transform="translate(143.000000, 702.000000)">
        <path d="M29.2666667,8.90370286 L27.6,10.5718552 L21.4296305,4.4 L23.0962971,2.73333333 C23.0962971,2.73333333 24.2829638,1.45481143 26.1822248,1.45481143 C28.5925943,1.45481143 30.5451886,3.40740571 30.5451886,5.81777524 C30.5451886,7.02370286 30.0562971,8.11407238 29.2666667,8.90370286 L29.2666667,8.90370286 Z M10.9096305,27.2622217 L10.9096305,21.8177752 C10.9096305,21.4162971 10.5837029,21.0903695 10.1822248,21.0903695 L4.73777829,21.0903695 L20.4,5.42963048 L26.5703695,11.6 L10.9096305,27.2622217 L10.9096305,27.2622217 Z M9.45481143,28.2103718 L4.36296305,29.4000008 L4.36296305,27.6370385 L2.6,27.6370385 L3.78962971,22.5451886 L9.45481143,22.5451886 L9.45481143,28.2103718 L9.45481143,28.2103718 Z M26.1822248,0 C24.5748114,0 23.12,0.650369524 22.0681524,1.70518857 L2.43111086,21.340739 L0,32 L10.659261,29.5688884 L30.2948114,9.93185524 C31.3481448,8.88 32,7.42518857 32,5.81777524 C32,2.6044419 29.3955581,0 26.1822248,0 L26.1822248,0 Z" id="Fill-3" fill="#007DC7"></path>
    </g>
</svg>