
<svg width="38px" height="32px" viewBox="142 1856 38 32" version="1.1" xmlns="http://www.w3.org/2000/svg" xmlns:xlink="http://www.w3.org/1999/xlink">
    <!-- Generator: Sketch 3.8.2 (29753) - http://www.bohemiancoding.com/sketch -->
    <desc>Created with Sketch.</desc>
    <defs></defs>
    <g id="Page-1" stroke="none" stroke-width="1" fill="none" fill-rule="evenodd" transform="translate(142.000000, 1856.250000)">
        <polygon id="Fill-1" fill-opacity="0" fill="#FFFFFF" points="0 0 38 0 38 30.9302326 0 30.9302326"></polygon>
        <path d="M7.84101809,29.2118876 C8.24388879,26.793314 10.3743535,25.8267442 12.5505516,25.0491917 L12.6191637,25.0262813 C14.1708363,24.6153095 16.9346293,22.9671311 16.9346293,19.4302042 C16.9346293,16.4302544 15.713707,14.9667949 15.0557414,14.1792228 C14.9255516,14.0202767 14.7672242,13.8169326 14.8024051,13.8613307 C14.7496293,13.7453423 14.4910172,13.0723181 14.8639828,11.5057637 C15.0399051,10.7711707 14.7425949,10.368786 14.7425949,10.368786 C14.2711121,9.3148693 13.395,7.35022512 14.0529656,5.76361907 C14.9361121,3.56842977 15.7189828,3.13598093 17.1369484,2.50162837 C17.2196293,2.46439721 17.3005516,2.42143953 17.376207,2.37274651 C17.6436121,2.19805256 18.7783363,1.71834233 20.0608363,1.71834233 C20.7029656,1.71834233 21.2430516,1.84006605 21.6705516,2.08206419 C22.1842586,2.36988326 22.6768535,2.91976093 23.4210172,4.68392419 C24.8073102,7.83135814 23.9294484,9.59123535 23.4861121,10.2012502 C23.1923102,10.6064893 23.0920344,11.1177042 23.2063879,11.6017005 C23.5494484,13.0436767 23.3277758,13.65226 23.2697242,13.7739749 C23.2556465,13.7911633 23.0480516,14.053213 22.9425,14.1792228 C22.286293,14.9667949 21.0636121,16.4302544 21.0636121,19.4302042 C21.0636121,22.9671311 23.8291637,24.6153095 25.3808363,25.0262813 L25.4494484,25.0491917 C27.6256465,25.8267442 29.7561121,26.793314 30.1589828,29.2118876 L7.84101809,29.2118876 L7.84101809,29.2118876 Z M25.8875,23.3809643 C25.8875,23.3809643 22.791207,22.6463713 22.791207,19.4302042 C22.791207,16.6049484 24.0631465,15.609746 24.5539828,14.9224056 C24.5539828,14.9224056 25.563793,14.0431828 24.8864828,11.2064828 C26.0141637,9.6513814 26.3800949,7.11968 25.0008363,3.99372047 C24.2320344,2.16797953 23.5547242,1.16704186 22.5202758,0.585668372 C21.7620344,0.157514419 20.9,0 20.0608363,0 C18.5003707,0 17.0208363,0.549868837 16.4297242,0.935065116 C14.7021293,1.7068893 13.5410172,2.41713581 12.4502758,5.12496279 C11.5055516,7.40034093 12.6297242,9.86903302 13.1838879,11.1091056 C12.5083363,13.947246 13.4442586,14.9224056 13.4442586,14.9224056 C13.9368535,15.609746 15.2070344,16.6049484 15.2070344,19.4302042 C15.2070344,22.6463713 12.1125,23.3809643 12.1125,23.3809643 C10.1474051,24.0840553 6.04481465,25.4315256 6.04481465,30.0710602 C6.04481465,30.0710602 6.04481465,30.9302326 6.90861121,30.9302326 L31.0913879,30.9302326 C31.9551898,30.9302326 31.9551898,30.0710602 31.9551898,30.0710602 C31.9551898,25.4315256 27.8525949,24.0840553 25.8875,23.3809643 L25.8875,23.3809643 Z M34.333707,21.4879219 C34.333707,21.4879219 32.3985172,21.0511781 32.3985172,18.5495498 C32.3985172,16.3514972 33.0635172,15.5782414 33.4558363,15.0441205 C33.4558363,15.0441205 34.2052758,14.2837493 33.6651809,12.0785386 C34.1085172,11.1119688 35.0092586,9.19172279 34.2527758,7.42325581 C33.3801898,5.31827674 32.8013879,4.76411302 31.4203707,4.16412837 C30.9471293,3.86484744 29.7631465,3.43669349 28.5140777,3.43669349 C27.9247242,3.43669349 27.3230516,3.54122884 26.7724051,3.79038512 C26.9923191,4.34598047 27.178793,4.89728977 27.3125,5.44000047 C27.3336121,5.42710698 27.3564828,5.41135907 27.3793535,5.39847442 C27.6731465,5.23666512 28.0566637,5.15503581 28.5140777,5.15503581 C29.4077758,5.15503581 30.2786121,5.47723163 30.4914828,5.61183116 C30.5671293,5.66051535 30.6480516,5.70348186 30.7289828,5.73927256 C31.578707,6.1072893 31.8971293,6.24619256 32.6553707,8.07766 C33.1127758,9.14590186 32.4618535,10.5649633 32.1117586,11.3281977 C31.9499051,11.679026 31.8953707,12.1100433 31.9868535,12.4837865 C32.2225949,13.4489247 32.1135172,13.898553 32.0748191,14.0102465 C32.071293,14.0159819 32.0660172,14.02314 32.0607414,14.0302981 L32.0026898,14.1090553 C31.5364828,14.7348181 30.6709223,15.9032916 30.6709223,18.5495498 C30.6709223,21.506533 32.6694484,22.815344 33.828793,23.1332379 C34.9318535,23.5255932 35.9504656,24.1413337 36.2090777,25.7737625 L32.4741726,25.7751941 C32.804914,26.2806736 33.0775949,26.8563206 33.2851898,27.4935417 L37.1361981,27.4921083 C38,27.4921083 38,26.6329354 38,26.6329354 C38,23.1962419 35.9064828,22.0349274 34.333707,21.4879219 L34.333707,21.4879219 Z M4.17120433,23.1332379 C5.33055605,22.815344 7.32907414,21.506533 7.32907414,18.5495498 C7.32907414,15.9032916 6.46175949,14.7348181 5.99731465,14.1090553 L5.93925949,14.0302981 C5.93398191,14.02314 5.92870344,14.0159819 5.92342586,14.0102465 C5.88648191,13.898553 5.77564828,13.4489247 6.01314828,12.4837865 C6.1046293,12.1100433 6.05009223,11.679026 5.8882414,11.3281977 C5.53814828,10.5649633 4.88722242,9.14590186 5.34463019,8.07766 C6.1028707,6.24619256 6.41953707,6.1072893 7.27101898,5.73927256 C7.35370433,5.70348186 7.4328707,5.66051535 7.50851898,5.61183116 C7.72138879,5.47723163 8.59222242,5.15503581 9.48592233,5.15503581 C9.91518093,5.15503581 10.2723191,5.23379302 10.5590777,5.37699116 C10.6347242,5.08057349 10.7244484,4.78416465 10.8458363,4.48774698 C10.9513879,4.22426558 11.0639828,3.99944698 11.1730516,3.7660386 C10.6364828,3.53406186 10.0559223,3.43669349 9.48592233,3.43669349 C8.23685172,3.43669349 7.0528707,3.86484744 6.5796293,4.16412837 C5.19861121,4.76411302 4.61805605,5.31827674 3.74722242,7.42325581 C2.99074051,9.19172279 3.89148191,11.1119688 4.33481465,12.0785386 C3.79296293,14.2837493 4.54416637,15.0441205 4.54416637,15.0441205 C4.93648191,15.5782414 5.60324051,16.3514972 5.60324051,18.5495498 C5.60324051,21.0511781 3.66629656,21.4879219 3.66629656,21.4879219 C2.09527758,22.0349274 0,23.1962419 0,26.6329354 C0,26.6329354 0,27.4921083 0.863796293,27.4921083 L4.71481465,27.4935417 C4.92240777,26.8563206 5.19333363,26.2806736 5.52583274,25.7751941 L1.79092586,25.7737625 C2.04953707,24.1413337 3.06814828,23.5255932 4.17120433,23.1332379 L4.17120433,23.1332379 Z" id="Fill-3" fill="#007DC7"></path>
    </g>
</svg>