<svg width="38px" height="38px" viewBox="0 5 38 38" version="1.1" xmlns="http://www.w3.org/2000/svg" xmlns:xlink="http://www.w3.org/1999/xlink">
    <!-- Generator: Sketch 3.8.2 (29753) - http://www.bohemiancoding.com/sketch -->
    <desc>Created with Sketch.</desc>
    <defs></defs>
    <path d="M35.7569593,10.0506443 L1.70304269,10.0506443 L1.70304269,8.36824079 L35.7569593,8.36824079 L35.7569593,10.0506443 L35.7569593,10.0506443 Z M34.0539154,31.9407735 L3.40608496,31.9407735 L3.40608496,11.7347626 L34.0539154,11.7347626 L34.0539154,31.9407735 L34.0539154,31.9407735 Z M35.7569593,6.68411831 L20.4330435,6.68411831 C20.4330435,5.75459838 19.6699667,5 18.7299995,5 C17.7900324,5 17.0269598,5.75459838 17.0269598,6.68411831 L1.70304269,6.68411831 C0.763073917,6.68411831 0,7.4387167 0,8.36824079 L0,10.0506443 C0,10.9818832 0.763073917,11.7347626 1.70304269,11.7347626 L1.70304269,31.9407735 C1.70304269,32.8720124 2.46611661,33.6248918 3.40608496,33.6248918 L17.8784797,33.6248918 L17.8784797,35.8012137 L13.0190853,40.6066144 C12.8664691,40.7592485 12.7710835,40.9701945 12.7710835,41.2017181 C12.7710835,41.6664777 13.1526219,42.0437774 13.6226075,42.0437774 C13.8567325,42.0437774 14.0700423,41.9494515 14.2243941,41.7968175 L18.7299995,37.3412775 L23.235605,41.7968175 C23.3899527,41.9494515 23.6032666,42.0437774 23.8373915,42.0437774 C24.3073772,42.0437774 24.6889156,41.6664777 24.6889156,41.2017181 C24.6889156,40.9701945 24.59353,40.7592485 24.4409138,40.6066144 L19.5815194,35.8012137 L19.5815194,33.6248918 L34.0539154,33.6248918 C34.9938825,33.6248918 35.7569593,32.8720124 35.7569593,31.9407735 L35.7569593,11.7347626 C36.6969223,11.7347626 37.4599991,10.9818832 37.4599991,10.0506443 L37.4599991,8.36824079 C37.4599991,7.4387167 36.6969223,6.68411831 35.7569593,6.68411831 L35.7569593,6.68411831 Z M21.2845634,26.8901292 L29.7980433,26.8901292 C30.2680247,26.8901292 30.6495631,26.512828 30.6495631,26.0480701 C30.6495631,25.583308 30.2680247,25.2060109 29.7980433,25.2060109 L21.2845634,25.2060109 C20.8145777,25.2060109 20.4330435,25.583308 20.4330435,26.0480701 C20.4330435,26.512828 20.8145777,26.8901292 21.2845634,26.8901292 L21.2845634,26.8901292 Z M8.51347988,16.7871259 L15.3239158,16.7871259 L15.3239158,25.2060109 L8.51347988,25.2060109 L8.51347988,16.7871259 L8.51347988,16.7871259 Z M8.51347988,26.8901292 L15.3239158,26.8901292 C16.2638829,26.8901292 17.0269598,26.1372498 17.0269598,25.2060109 L17.0269598,16.7871259 C17.0269598,15.8576018 16.2638829,15.1030034 15.3239158,15.1030034 L8.51347988,15.1030034 C7.57350861,15.1030034 6.81043594,15.8576018 6.81043594,16.7871259 L6.81043594,25.2060109 C6.81043594,26.1372498 7.57350861,26.8901292 8.51347988,26.8901292 L8.51347988,26.8901292 Z M21.2845634,23.5218884 L24.6889156,23.5218884 C25.1588971,23.5218884 25.5404355,23.1445913 25.5404355,22.6798293 C25.5404355,22.2150672 25.1588971,21.8377701 24.6889156,21.8377701 L21.2845634,21.8377701 C20.8145777,21.8377701 20.4330435,22.2150672 20.4330435,22.6798293 C20.4330435,23.1445913 20.8145777,23.5218884 21.2845634,23.5218884 L21.2845634,23.5218884 Z M21.2845634,16.7871259 L26.3919554,16.7871259 C26.861941,16.7871259 27.2434794,16.4098287 27.2434794,15.9450625 C27.2434794,15.4803005 26.861941,15.1030034 26.3919554,15.1030034 L21.2845634,15.1030034 C20.8145777,15.1030034 20.4330435,15.4803005 20.4330435,15.9450625 C20.4330435,16.4098287 20.8145777,16.7871259 21.2845634,16.7871259 L21.2845634,16.7871259 Z M21.2845634,20.1536476 L29.7980433,20.1536476 C30.2680247,20.1536476 30.6495631,19.7780654 30.6495631,19.3115885 C30.6495631,18.8485413 30.2680247,18.4712442 29.7980433,18.4712442 L21.2845634,18.4712442 C20.8145777,18.4712442 20.4330435,18.8485413 20.4330435,19.3115885 C20.4330435,19.7780654 20.8145777,20.1536476 21.2845634,20.1536476 L21.2845634,20.1536476 Z" id="Fill-3" stroke="none" fill="#007DC7" fill-rule="evenodd"></path>
</svg>