<svg width="39px" height="39px" viewBox="141 754 39 39" version="1.1" xmlns="http://www.w3.org/2000/svg" xmlns:xlink="http://www.w3.org/1999/xlink">
    <!-- Generator: Sketch 3.8.3 (29802) - http://www.bohemiancoding.com/sketch -->
    <desc>Created with Sketch.</desc>
    <defs></defs>
    <g id="Page-1" stroke="none" stroke-width="1" fill="none" fill-rule="evenodd" transform="translate(141.000000, 754.000000)">
        <path d="M19.5,18.6134743 C19.5,19.1045864 19.1027757,19.5 18.6134743,19.5 C18.1241636,19.5 17.7269486,19.1045864 17.7269486,18.6134743 C17.7269486,18.1241636 18.1241636,17.7269486 18.6134743,17.7269486 C19.1027757,17.7269486 19.5,18.1241636 19.5,18.6134743 L19.5,18.6134743 Z M37.2269486,37.2269458 L33.6826379,37.2269458 L33.6826379,34.5673603 C33.6826379,34.0798603 33.2836121,33.6826406 32.7961121,33.6826406 L30.1365257,33.6826406 L30.1365257,31.0230561 C30.1365257,30.5337509 29.7393014,30.1365276 29.25,30.1365276 L26.0740257,30.1365276 L23.2013879,27.2386121 C23.0406986,27.0779136 22.8204136,26.9804136 22.5748621,26.9804136 C22.3094486,26.9804136 22.0783364,27.1013879 21.9158364,27.2873621 L21.3651379,27.8380514 C20.6736121,28.5295864 19.5523621,28.5295864 18.8590257,27.8380514 L11.1348621,20.1120864 C10.4433364,19.4205514 10.4433364,18.3011121 11.1348621,17.6077757 L17.6077757,11.1348621 C18.2993014,10.4433364 19.4205514,10.4433364 20.1120864,11.1348621 L21.2351379,12.2579136 C21.1231986,13.7384743 20.68625,15.1251379 19.9856986,16.3475 C19.5848621,16.10375 19.1172243,15.9556986 18.6134743,15.9556986 C17.1455607,15.9556986 15.9538879,17.1455607 15.9538879,18.6134743 C15.9538879,20.0831986 17.1455607,21.2730514 18.6134743,21.2730514 C20.0831986,21.2730514 21.2730514,20.0831986 21.2730514,18.6134743 C21.2730514,18.3372243 21.2188879,18.0772243 21.14125,17.82625 C21.9302757,16.6291636 22.5080514,15.2804136 22.8059743,13.82875 L27.83625,18.8608364 C28.5277757,19.5523621 28.5277757,20.6736121 27.83625,21.3651379 L27.3144486,21.8869486 C27.1284743,22.05125 27.0056986,22.2823621 27.0056986,22.5459743 C27.0056986,22.7915257 27.1068014,23.0136121 27.2656986,23.1743014 L37.2269486,33.1626406 L37.2269486,37.2269458 L37.2269486,37.2269458 Z M9.64708643,21.07625 C5.16208271,20.2041729 1.77305607,16.2644486 1.77305607,11.5248621 C1.77305607,6.13888786 6.13708364,1.77305143 11.5230514,1.77305143 C16.2698621,1.77305143 20.2186121,5.1675 21.0906986,9.65791357 C19.6986121,8.52041357 17.6529136,8.58541357 16.3547243,9.88180143 L9.88361214,16.3547243 C8.58902757,17.6493014 8.52041729,19.6877757 9.64708643,21.07625 L9.64708643,21.07625 Z M38.74,32.1695827 L29.1452757,22.5477757 C30.4669486,21.1611121 30.4506986,18.9709743 29.0893014,17.6077757 L23.0443014,11.5627757 C23.0443014,11.5483364 23.0461121,11.5356986 23.0461121,11.5248621 C23.0461121,5.15847429 17.8876379,0 11.5230514,0 C5.15847243,0 0,5.15847429 0,11.5248621 C0,17.8876379 5.15847243,23.0461121 11.5230514,23.0461121 C11.5356986,23.0461121 11.5483364,23.0443014 11.5609743,23.0443014 L17.6077757,29.0893014 C18.9781986,30.4597224 21.1881986,30.4687509 22.5748621,29.1236121 L25.0773621,31.6495836 C25.2380514,31.8102785 25.4601379,31.9095827 25.7038879,31.9095827 L28.3634743,31.9095827 L28.3634743,34.5673603 C28.3634743,35.0584734 28.7606986,35.4538906 29.25,35.4538906 L31.9095864,35.4538906 L31.9095864,38.1134731 C31.9095864,38.6045854 32.3068014,39 32.7961121,39 L38.1134743,39 C38.6027757,39 39,38.6045854 39,38.1134731 L39,32.7961103 C39,32.5523603 38.9006893,32.3302785 38.74,32.1695827 L38.74,32.1695827 Z" id="Fill-3" fill="#007DC7"></path>
    </g>
</svg>