<svg width="41px" height="41px" viewBox="50 0 41 41" version="1.1" xmlns="http://www.w3.org/2000/svg" xmlns:xlink="http://www.w3.org/1999/xlink">
    <!-- Generator: Sketch 3.7.2 (28276) - http://www.bohemiancoding.com/sketch -->
    <desc>Created with Sketch.</desc>
    <defs></defs>
    <path d="M70.2378106,0.355235597 C59.0999404,0.355235597 50.0706703,9.38214912 50.0706703,20.5171124 C50.0706703,31.6467658 59.0999404,40.6736793 70.2378106,40.6736793 C81.3703695,40.6736793 90.3996396,31.6467658 90.3996396,20.5171124 C90.3996396,9.38214912 81.3703695,0.355235597 70.2378106,0.355235597 L70.2378106,0.355235597 Z M80.047847,29.0395808 C80.047847,29.6342951 79.7557236,30.26671 79.1661654,30.26671 L74.2053781,30.26671 L74.2053781,22.8327813 L76.7282624,22.8327813 L77.1106786,19.6468118 L74.2053781,19.6468118 L74.2053781,17.745319 C74.2053781,16.8957271 74.4337656,16.4608423 75.6553727,16.4608423 L77.3921793,16.4608423 L77.3921793,13.6832079 C76.8610458,13.6460383 76.0377888,13.566389 74.9595878,13.566389 C72.7182042,13.566389 71.0185769,14.9363559 71.0185769,17.4532718 L71.0185769,19.6468118 L68.3629092,19.6468118 L68.3629092,22.8327813 L71.0185769,22.8327813 L71.0185769,30.26671 L61.8193441,30.26671 C61.2244745,30.26671 60.9270397,29.6342951 60.9270397,29.0395808 L60.9270397,11.6972869 C60.9270397,11.1025726 61.2244745,10.6198983 61.8193441,10.6198983 L79.1661654,10.6198983 C79.7557236,10.6198983 80.047847,11.1025726 80.047847,11.6972869 L80.047847,29.0395808 L80.047847,29.0395808 Z" id="Facebook" stroke="none" fill="#FFFFFF" fill-rule="evenodd"></path>
</svg>