<svg width="41px" height="41px" viewBox="0 0 41 41" version="1.1" xmlns="http://www.w3.org/2000/svg" xmlns:xlink="http://www.w3.org/1999/xlink">
    <!-- Generator: Sketch 3.7.2 (28276) - http://www.bohemiancoding.com/sketch -->
    <desc>Created with Sketch.</desc>
    <defs></defs>
    <path d="M20.2999237,0.408335088 C9.16205349,0.408335088 0.132783384,9.43524861 0.132783384,20.5702119 C0.132783384,31.6998653 9.16205349,40.7267788 20.2999237,40.7267788 C31.4324827,40.7267788 40.4617528,31.6998653 40.4617528,20.5702119 C40.4617528,9.43524861 31.4324827,0.408335088 20.2999237,0.408335088 L20.2999237,0.408335088 Z M16.3854696,27.6430642 C12.6250441,27.6430642 9.57633765,24.5101942 9.57633765,20.7454403 C9.57633765,16.9806863 12.6250441,13.882331 16.3854696,13.882331 C18.1488329,13.882331 19.7581675,14.5391717 20.9638407,15.6383312 C19.5404028,16.9870583 19.5882048,17.0555566 19.0252033,17.6184112 C18.3294183,17.0343168 17.564586,16.6116449 16.3854696,16.6116449 C14.1493974,16.6116449 12.4072794,18.4265855 12.4072794,20.6620741 C12.4072794,22.8975626 14.1493974,24.8617128 16.3854696,24.8617128 C18.5896738,24.8617128 19.4872894,23.8947711 20.066225,22.3017863 L16.4651396,22.3017863 L16.4651396,19.6468118 L22.9237234,19.6468118 C23.3751869,22.8327813 22.0048624,27.6430642 16.3854696,27.6430642 L16.3854696,27.6430642 Z M30.8057451,21.2397965 L28.6812109,21.2397965 L28.6812109,23.8947711 L27.0878103,23.8947711 L27.0878103,21.2397965 L24.4321427,21.2397965 L24.4321427,19.6468118 L27.0878103,19.6468118 L27.0878103,17.5228321 L28.6812109,17.5228321 L28.6812109,19.6468118 L30.8057451,19.6468118 L30.8057451,21.2397965 L30.8057451,21.2397965 Z" id="Google+" stroke="none" fill="#FFFFFF" fill-rule="evenodd"></path>
</svg>