<?xml version="1.0" encoding="iso-8859-1"?>
<!-- Generator: Adobe Illustrator 19.0.0, SVG Export Plug-In . SVG Version: 6.00 Build 0)  -->
<svg version="1.1" id="Capa_1" xmlns="http://www.w3.org/2000/svg" xmlns:xlink="http://www.w3.org/1999/xlink" x="0px" y="0px"
	 viewBox="0 0 463 463" style="enable-background:new 0 0 463 463;" xml:space="preserve">
<g>
	<path d="M455.5,348H447V91.5c0-12.958-10.542-23.5-23.5-23.5h-384C26.542,68,16,78.542,16,91.5V348H7.5c-4.143,0-7.5,3.357-7.5,7.5
		v16C0,384.458,10.542,395,23.5,395h416c12.958,0,23.5-10.542,23.5-23.5v-16C463,351.357,459.643,348,455.5,348z M31,91.5
		c0-4.687,3.813-8.5,8.5-8.5h384c4.687,0,8.5,3.813,8.5,8.5V348H31V91.5z M448,371.5c0,4.687-3.813,8.5-8.5,8.5h-416
		c-4.687,0-8.5-3.813-8.5-8.5V363h177.025c-0.011,0.166-0.025,0.331-0.025,0.5c0,4.143,3.357,7.5,7.5,7.5h64
		c4.143,0,7.5-3.357,7.5-7.5c0-0.169-0.014-0.334-0.025-0.5H448V371.5z"/>
	<path d="M407.5,100h-352c-4.143,0-7.5,3.357-7.5,7.5v216c0,4.143,3.357,7.5,7.5,7.5h352c4.143,0,7.5-3.357,7.5-7.5v-216
		C415,103.357,411.643,100,407.5,100z M63,115h177v201h-17v-48.5c0-6.236-1.829-12.05-4.968-16.947
		c1.941-0.697,3.548-2.173,4.376-4.133c1.124-2.661,0.621-5.73-1.294-7.893C212.145,228.399,207,209.801,207,187.5
		c0-30.603-24.897-55.5-55.5-55.5S96,156.897,96,187.5c0,22.301-5.145,40.899-14.114,51.027c-1.915,2.162-2.418,5.231-1.294,7.893
		c0.828,1.96,2.435,3.436,4.376,4.133C81.829,255.45,80,261.264,80,267.5V316H63V115z M184,187.5c0,17.921-14.579,32.5-32.5,32.5
		c-16.714,0-30.521-12.684-32.308-28.856c17.318-3.921,39.097-11.185,56.982-24.55C181.201,172.44,184,179.804,184,187.5z
		 M140.266,233.646C143.87,234.524,147.63,235,151.5,235s7.63-0.476,11.234-1.354c4.709,5.883,11.768,10.327,21.085,13.273
		C182.105,263.239,168.266,276,151.5,276s-30.605-12.761-32.319-29.081C128.498,243.973,135.556,239.529,140.266,233.646z
		 M177.476,227.238c6.793-4.455,12.376-10.601,16.153-17.838c1.532,9.779,4.12,18.534,7.696,25.952
		C193.011,234.327,183.531,232.001,177.476,227.238z M112.307,177.284C116.846,159.882,132.696,147,151.5,147
		c6.929,0,13.457,1.752,19.166,4.832C152.332,167.064,127.091,174.215,112.307,177.284z M109.371,209.399
		c3.777,7.237,9.361,13.383,16.154,17.839c-6.055,4.764-15.537,7.089-23.851,8.113C105.25,227.934,107.839,219.179,109.371,209.399z
		 M95,267.5c0-6.731,4.057-12.525,9.85-15.089C109.035,274.356,128.355,291,151.5,291s42.465-16.644,46.65-38.589
		c5.793,2.563,9.85,8.357,9.85,15.089V316H95V267.5z M400,316H255V115h145V316z"/>
	<path d="M279.5,163h8.5v0.5c0,4.143,3.357,7.5,7.5,7.5s7.5-3.357,7.5-7.5V163h72.5c4.143,0,7.5-3.357,7.5-7.5s-3.357-7.5-7.5-7.5
		H303v-0.5c0-4.143-3.357-7.5-7.5-7.5s-7.5,3.357-7.5,7.5v0.5h-8.5c-4.143,0-7.5,3.357-7.5,7.5S275.357,163,279.5,163z"/>
	<path d="M279.5,203H352v0.5c0,4.143,3.357,7.5,7.5,7.5s7.5-3.357,7.5-7.5V203h8.5c4.143,0,7.5-3.357,7.5-7.5s-3.357-7.5-7.5-7.5
		H367v-0.5c0-4.143-3.357-7.5-7.5-7.5s-7.5,3.357-7.5,7.5v0.5h-72.5c-4.143,0-7.5,3.357-7.5,7.5S275.357,203,279.5,203z"/>
	<path d="M279.5,243H328v0.5c0,4.143,3.357,7.5,7.5,7.5s7.5-3.357,7.5-7.5V243h32.5c4.143,0,7.5-3.357,7.5-7.5s-3.357-7.5-7.5-7.5
		H343v-0.5c0-4.143-3.357-7.5-7.5-7.5s-7.5,3.357-7.5,7.5v0.5h-48.5c-4.143,0-7.5,3.357-7.5,7.5S275.357,243,279.5,243z"/>
	<path d="M375.5,268H319v-0.5c0-4.143-3.357-7.5-7.5-7.5s-7.5,3.357-7.5,7.5v0.5h-24.5c-4.143,0-7.5,3.357-7.5,7.5
		s3.357,7.5,7.5,7.5H304v0.5c0,4.143,3.357,7.5,7.5,7.5s7.5-3.357,7.5-7.5V283h56.5c4.143,0,7.5-3.357,7.5-7.5
		S379.643,268,375.5,268z"/>
</g>
<g>
</g>
<g>
</g>
<g>
</g>
<g>
</g>
<g>
</g>
<g>
</g>
<g>
</g>
<g>
</g>
<g>
</g>
<g>
</g>
<g>
</g>
<g>
</g>
<g>
</g>
<g>
</g>
<g>
</g>
</svg>
