<svg width="42px" height="41px" viewBox="100 1 42 41" version="1.1" xmlns="http://www.w3.org/2000/svg" xmlns:xlink="http://www.w3.org/1999/xlink">
    <!-- Generator: Sketch 3.7.2 (28276) - http://www.bohemiancoding.com/sketch -->
    <desc>Created with Sketch.</desc>
    <defs></defs>
    <path d="M120.848813,1.13101916 C109.710943,1.13101916 100.681673,10.1579327 100.681673,21.292896 C100.681673,32.4225494 109.710943,41.4494629 120.848813,41.4494629 C131.981372,41.4494629 141.010642,32.4225494 141.010642,21.292896 C141.010642,10.1579327 131.981372,1.13101916 120.848813,1.13101916 L120.848813,1.13101916 Z M112.069176,18.053827 L115.787111,18.053827 L115.787111,30.26671 L112.069176,30.26671 L112.069176,18.053827 Z M113.710379,16.9918372 L113.683822,16.9918372 C112.297563,16.9918372 111.405259,15.9351573 111.405259,14.7616586 C111.405259,13.56692 112.32412,12.5951993 113.736935,12.5951993 C115.144439,12.5951993 116.010187,13.5987797 116.042055,14.7935183 C116.042055,15.967017 115.144439,16.9918372 113.710379,16.9918372 L113.710379,16.9918372 Z M131.189983,30.26671 L126.409782,30.26671 L126.409782,24.0806193 C126.409782,22.439845 125.862714,21.3247557 124.370229,21.3247557 C123.233603,21.3247557 122.574997,22.0787685 122.277563,22.8062315 C122.166025,23.066419 122.160713,23.4274956 122.160713,23.7938821 L122.160713,30.26671 L118.04974,30.26671 C118.04974,30.26671 118.102853,19.1158169 118.04974,18.053827 L122.160713,18.053827 L122.160713,20.1406371 C122.691847,19.312285 123.966567,18.1281663 126.154837,18.1281663 C128.86893,18.1281663 131.189983,19.8645197 131.189983,23.6133438 L131.189983,30.26671 L131.189983,30.26671 Z" id="Linkedin" stroke="none" fill="#FFFFFF" fill-rule="evenodd"></path>
</svg>