<svg width="14px" height="19px" viewBox="446 248 14 19" version="1.1" xmlns="http://www.w3.org/2000/svg" xmlns:xlink="http://www.w3.org/1999/xlink">
    <!-- Generator: Sketch 3.8.3 (29802) - http://www.bohemiancoding.com/sketch -->
    <desc>Created with Sketch.</desc>
    <defs></defs>
    <path d="M458.25,254.125 L457.375,254.125 L457.375,252.375 C457.375,249.925 455.45,248 453,248 C450.55,248 448.625,249.925 448.625,252.375 L448.625,254.125 L447.75,254.125 C446.7875,254.125 446,254.9125 446,255.875 L446,264.625 C446,265.5875 446.7875,266.375 447.75,266.375 L458.25,266.375 C459.2125,266.375 460,265.5875 460,264.625 L460,255.875 C460,254.9125 459.2125,254.125 458.25,254.125 L458.25,254.125 Z M453,262 C452.0375,262 451.25,261.2125 451.25,260.25 C451.25,259.2875 452.0375,258.5 453,258.5 C453.9625,258.5 454.75,259.2875 454.75,260.25 C454.75,261.2125 453.9625,262 453,262 L453,262 Z M455.7125,254.125 L450.2875,254.125 L450.2875,252.375 C450.2875,250.8875 451.5125,249.6625 453,249.6625 C454.4875,249.6625 455.7125,250.8875 455.7125,252.375 L455.7125,254.125 L455.7125,254.125 Z"></path>
</svg>