<svg width="24px" height="18px" viewBox="12 21 24 18" version="1.1" xmlns="http://www.w3.org/2000/svg" xmlns:xlink="http://www.w3.org/1999/xlink">
    <!-- Generator: Sketch 3.8.3 (29802) - http://www.bohemiancoding.com/sketch -->
    <desc>Created with Sketch.</desc>
    <defs></defs>
    <path d="M34.5,32 L13.5,32 C12.672,32 12,31.328 12,30.499 C12,29.671 12.672,29 13.5,29 L34.5,29 C35.329,29 36,29.671 36,30.499 C36,31.328 35.329,32 34.5,32 L34.5,32 L34.5,32 Z M34.5,25 L13.5,25 C12.672,25 12,24.327 12,23.5 C12,22.671 12.672,22 13.5,22 L34.5,22 C35.329,22 36,22.671 36,23.5 C36,24.327 35.329,25 34.5,25 L34.5,25 L34.5,25 Z M13.5,35.999 L34.5,35.999 C35.329,35.999 36,36.671 36,37.5 C36,38.328 35.329,38.999 34.5,38.999 L13.5,38.999 C12.672,38.999 12,38.328 12,37.5 C12,36.671 12.672,35.999 13.5,35.999 L13.5,35.999 L13.5,35.999 Z"></path>
</svg>