<svg width="36px" height="36px" viewBox="0 2 36 36" version="1.1" xmlns="http://www.w3.org/2000/svg" xmlns:xlink="http://www.w3.org/1999/xlink">
    <!-- Generator: Sketch 3.8.2 (29753) - http://www.bohemiancoding.com/sketch -->
    <desc>Created with Sketch.</desc>
    <defs></defs>
    <g id="rocket" stroke="none" stroke-width="1" fill="none" fill-rule="evenodd" transform="translate(0.000000, 2.000000)">
        <g id="Group" fill="#007DC7">
            <path d="M24.625,16.5 C22.2135,16.5 20.25,14.5365 20.25,12.125 C20.25,9.7135 22.2135,7.75 24.625,7.75 C27.0365,7.75 29,9.7135 29,12.125 C29,14.5365 27.0365,16.5 24.625,16.5 L24.625,16.5 Z M24.625,9.5 C23.17775,9.5 22,10.67775 22,12.125 C22,13.57225 23.17775,14.75 24.625,14.75 C26.07225,14.75 27.25,13.57225 27.25,12.125 C27.25,10.67775 26.07225,9.5 24.625,9.5 L24.625,9.5 Z" id="Shape"></path>
            <path d="M1.875,35.75 C1.6475,35.75 1.4235,35.66075 1.2555,35.4945 C1.01575,35.25475 0.93525,34.896 1.0525,34.5775 C3.74575,27.17325 6.57725,23.41775 9.4665,23.41775 C10.42025,23.41775 11.311,23.82725 12.11775,24.63225 C13.39175,25.90625 13.43725,27.175 13.25175,28.015 C12.66725,30.654 8.93975,33.23875 2.17425,35.69925 C2.07625,35.73425 1.97475,35.75175 1.875,35.75175 L1.875,35.75 Z M9.46825,25.166 C8.602,25.166 7.58175,25.9255 6.5195,27.36225 C5.47475,28.7745 4.42475,30.787 3.3905,33.3595 C5.72675,32.41975 7.6045,31.466 8.98875,30.51575 C10.856,29.233 11.409,28.24075 11.54375,27.63525 C11.6785,27.02975 11.4615,26.4505 10.8805,25.8695 C10.408,25.397 9.946,25.16775 9.4665,25.16775 L9.46825,25.166 Z" id="Shape"></path>
            <path d="M35.125,0.75 C30.58375,0.75 26.53775,1.52 23.0955,3.039 C20.25875,4.292 17.82975,6.049 15.875,8.2645 C15.511,8.6775 15.17325,9.09575 14.86,9.51575 C13.3515,9.6155 11.808,10.21575 10.268,11.30075 C8.96425,12.21775 7.65525,13.48825 6.37425,15.0755 C4.22175,17.7425 2.89875,20.37275 2.84275,20.483 C2.652,20.86625 2.76575,21.33175 3.11225,21.582 C3.26625,21.694 3.4465,21.74825 3.625,21.74825 C3.849,21.74825 4.073,21.6625 4.24275,21.4945 C4.2515,21.48575 5.088,20.66325 6.51425,19.8565 C7.69025,19.1915 9.50325,18.40925 11.696,18.271 C12.25075,19.69025 13.838,21.38775 14.59925,22.149 C15.3605,22.91025 17.058,24.4975 18.47725,25.05225 C18.339,27.245 17.55675,29.058 16.89175,30.234 C16.08325,31.662 15.2625,32.49675 15.2555,32.50375 C14.95275,32.8065 14.91425,33.286 15.1645,33.63425 C15.33425,33.86875 15.60025,33.99825 15.875,33.99825 C16.008,33.99825 16.141,33.9685 16.26525,33.9055 C16.3755,33.8495 19.00575,32.5265 21.67275,30.374 C23.26,29.093 24.5305,27.784 25.4475,26.48025 C26.5325,24.9385 27.131,23.39675 27.2325,21.88825 C27.65075,21.57675 28.069,21.239 28.48375,20.87325 C30.69925,18.9185 32.45625,16.4895 33.70925,13.65275 C35.22825,10.21225 35.99825,6.1645 35.99825,1.62325 L35.99825,0.74825 L35.12325,0.74825 L35.125,0.75 Z M6.43725,17.914 C8.105,15.49375 10.65475,12.4925 13.52825,11.54925 C12.3925,13.539 11.8045,15.366 11.59275,16.5245 C9.5645,16.64875 7.81625,17.2385 6.43725,17.914 L6.43725,17.914 Z M18.83775,30.3075 C19.51325,28.9285 20.103,27.182 20.2255,25.1555 C21.38225,24.94375 23.211,24.35575 25.199,23.22175 C24.254,26.09 21.2545,28.63975 18.836,30.3075 L18.83775,30.3075 Z M27.327,19.5625 C23.687,22.77375 19.9175,23.5 19.375,23.5 C19.3715,23.5 19.01275,23.493 18.04675,22.81225 C17.373,22.338 16.58725,21.6625 15.83825,20.9135 C15.08925,20.1645 14.41375,19.37875 13.9395,18.705 C13.25875,17.739 13.25175,17.38025 13.25175,17.37675 C13.25175,16.83425 13.978,13.06475 17.18925,9.42475 C21.03225,5.07075 26.914,2.689 34.24125,2.51225 C34.0645,9.8395 31.6845,15.72125 27.32875,19.56425 L27.327,19.5625 Z" id="Shape"></path>
        </g>
    </g>
</svg>