<svg width="162px" height="162px" viewBox="69 -1 162 162" version="1.1" xmlns="http://www.w3.org/2000/svg" xmlns:xlink="http://www.w3.org/1999/xlink">
    <!-- Generator: Sketch 3.7.2 (28276) - http://www.bohemiancoding.com/sketch -->
    <desc>Created with Sketch.</desc>
    <defs></defs>
    
        <path d="M80.2744744,59.152669 C74.3447327,59.152669 69.52012,54.3493544 69.52012,48.4437102 C69.52012,42.5380659 74.3437959,37.7345649 80.2744744,37.7345649 C86.2042162,37.7345649 91.0288289,42.5380659 91.0288289,48.4437102 C91.0288289,54.3493544 86.2042162,59.152669 80.2744744,59.152669 M80.2744744,39.6877536 C75.4256947,39.6877536 71.4806516,43.6163306 71.4806516,48.444643 C71.4806516,53.2727688 75.4256947,57.2013458 80.2744744,57.2013458 C85.1232542,57.2013458 89.0682972,53.2727688 89.0682972,48.444643 C89.0682972,43.6163306 85.1232542,39.6877536 80.2744744,39.6877536"></path>
        <path d="M89.2054876,116.915772 L71.3531281,116.915772 C70.2968952,116.915772 69.3914724,115.75244 69.3914724,114.800098 L69.3914724,91.9330521 C68.0227534,90.5395163 66.0419889,88.2930694 66.0419889,86.9749002 L66.0419889,65.9838113 C66.0419889,63.8071345 67.9680496,61.2644447 73.3951534,61.2644447 L86.6522066,61.2644447 C91.7338522,61.2644447 94.4742876,63.6963232 94.4742876,65.9838113 L94.5050116,86.9739675 C94.5050116,88.2949349 92.5060749,90.540449 91.1238673,91.9360369 L91.1238673,114.800098 C91.1257408,115.758223 90.2692142,116.915772 89.2054876,116.915772 M71.483518,114.962584 L89.0655433,114.962584 C89.1105053,114.909043 89.1575281,114.826961 89.1652091,114.780137 L89.1642724,91.1232343 L89.4539028,90.8376247 C91.0230775,89.2883189 92.4676699,87.4707527 92.5454167,86.9482234 L92.5137559,65.984744 C92.5137559,65.1165358 91.0375028,63.2167007 86.6522066,63.2167007 L73.3951534,63.2167007 C69.6696749,63.2167007 68.0025205,64.6065054 68.0025205,65.9828785 L68.0025205,86.9739675 C68.0774572,87.4716855 69.508561,89.2901844 71.0653711,90.840423 L71.3520041,91.1260325 L71.3520041,114.799165 C71.3636192,114.822111 71.4269408,114.908111 71.483518,114.962584"></path>
        <path d="M57.2539175,52.466682 C51.3241757,52.466682 46.499563,47.6633675 46.499563,41.7577232 C46.499563,35.852079 51.323239,31.0485779 57.2539175,31.0485779 C63.1836592,31.0485779 68.0082719,35.852079 68.0082719,41.7577232 C68.0082719,47.6633675 63.1836592,52.466682 57.2539175,52.466682 M57.2539175,33.0019531 C52.4051377,33.0019531 48.4600947,36.9303436 48.4600947,41.758656 C48.4600947,46.5867818 52.4051377,50.5153588 57.2539175,50.5153588 C62.1026972,50.5153588 66.0477403,46.5867818 66.0477403,41.758656 C66.0477403,36.9303436 62.1026972,33.0019531 57.2539175,33.0019531"></path>
        <path d="M91.9401529,41.7576299 C91.9401529,35.8529184 96.7649529,31.0486711 102.694507,31.0486711 C108.624249,31.0486711 113.449049,35.8519857 113.449049,41.7576299 C113.449049,47.6632742 108.625186,52.4665887 102.694507,52.4665887 C96.7649529,52.4665887 91.9401529,47.6632742 91.9401529,41.7576299 M93.9016213,41.7576299 C93.9016213,46.5859423 97.8468516,50.5143328 102.695631,50.5143328 C107.544224,50.5143328 111.489454,46.5859423 111.489454,41.7576299 C111.489454,36.9293176 107.543287,33.0018599 102.694507,33.0018599 C97.8459149,33.0018599 93.9016213,36.9293176 93.9016213,41.7576299"></path>
        <path d="M109.572929,56.5317584 L94.0389241,56.5317584 L94.0389241,54.5795024 L109.572929,54.5795024 C115.000033,54.5795024 116.926094,57.1220056 116.926094,59.298869 L116.926094,80.2899579 C116.926094,81.6081271 114.945329,83.8536412 113.57661,85.2481098 L113.57661,108.115155 C113.57661,109.067311 112.671187,110.23083 111.615142,110.23083 L94.0445443,110.23083 L94.0389241,108.278387 L111.485501,108.278387 C111.542078,108.223915 111.6054,108.136982 111.616078,108.115155 L111.616078,84.4409037 L111.902711,84.1554807 C113.459522,82.6052421 114.890625,80.7865566 114.965562,80.2890252 L114.965562,59.2979362 C114.965562,57.9215631 113.298408,56.5317584 109.572929,56.5317584"></path>
</svg>