<svg width="34px" height="36px" viewBox="0 0 34 36" version="1.1" xmlns="http://www.w3.org/2000/svg" xmlns:xlink="http://www.w3.org/1999/xlink">
      <g id="Group-5" stroke="none" stroke-width="1" fill="none" fill-rule="evenodd">
        <g id="select" fill="#007DC7">
            <g id="Group">
                <path d="M9.625,26.25 L2.625,26.25 C1.17775,26.25 0,25.07225 0,23.625 L0,2.625 C0,1.17775 1.17775,0 2.625,0 L27.125,0 C28.57225,0 29.75,1.17775 29.75,2.625 L29.75,14.875 C29.75,15.358 29.358,15.75 28.875,15.75 C28.392,15.75 28,15.358 28,14.875 L28,2.625 C28,2.142 27.608,1.75 27.125,1.75 L2.625,1.75 C2.142,1.75 1.75,2.142 1.75,2.625 L1.75,23.625 C1.75,24.108 2.142,24.5 2.625,24.5 L9.625,24.5 C10.108,24.5 10.5,24.892 10.5,25.375 C10.5,25.858 10.108,26.25 9.625,26.25 L9.625,26.25 Z" id="Shape"></path>
                <path d="M22.75,35 C22.4035,35 22.0745,34.79175 21.938,34.4505 L18.96825,27.027 L13.783,32.9525 C13.54325,33.22725 13.15825,33.3235 12.817,33.19575 C12.47575,33.068 12.25,32.74075 12.25,32.37675 L12.25,6.12675 C12.25,5.78025 12.45475,5.467 12.7715,5.327 C13.08825,5.187 13.4575,5.2465 13.71475,5.47925 L32.96475,22.97925 C33.2325,23.2225 33.3235,23.60575 33.19225,23.94175 C33.061,24.27775 32.73725,24.50175 32.37675,24.50175 L24.92,24.50175 L27.9405,32.05125 C28.12075,32.49925 27.902,33.0085 27.45225,33.18875 L23.07725,34.93875 C22.9705,34.98075 22.86025,35.00175 22.75175,35.00175 L22.75,35 Z M19.25,24.5 C19.299,24.5 19.348,24.5035 19.397,24.51225 C19.698,24.563 19.94825,24.76775 20.062,25.0495 L23.2365,32.9875 L25.9875,31.88675 L22.813,23.94875 C22.7045,23.67925 22.73775,23.373 22.9005,23.13325 C23.06325,22.8935 23.3345,22.74825 23.625,22.74825 L30.11225,22.74825 L14,8.10075 L14,30.044 L18.592,24.79575 C18.76,24.605 18.99975,24.4965 19.25,24.4965 L19.25,24.5 Z" id="Shape"></path>
            </g>
        </g>
    </g>
</svg>