<svg width="41px" height="41px" viewBox="198 1 41 41" version="1.1" xmlns="http://www.w3.org/2000/svg" xmlns:xlink="http://www.w3.org/1999/xlink">
    <!-- Generator: Sketch 3.7.2 (28276) - http://www.bohemiancoding.com/sketch -->
    <desc>Created with Sketch.</desc>
    <defs></defs>
    <path d="M218.622049,1.12988281 C207.484179,1.12988281 198.454909,10.1567963 198.454909,21.2917597 C198.454909,32.421413 207.484179,41.4483266 218.622049,41.4483266 C229.754608,41.4483266 238.783878,32.421413 238.783878,21.2917597 C238.783878,10.1567963 229.754608,1.12988281 218.622049,1.12988281 L218.622049,1.12988281 Z M212.006997,10.9988636 L212.006997,14.2433368 C219.582432,14.2483345 225.739534,20.4164319 225.746531,27.9988636 L229,27.9988636 C228.998001,23.3130687 227.092897,19.0670668 224.014346,15.9865165 C220.935795,12.9069657 216.691792,11.0008627 212.006997,10.9988636 L212.006997,10.9988636 Z M212.001999,16.780143 L212.001999,20.0256158 C214.120002,20.0266153 216.126058,20.8592235 217.624353,22.3615165 C219.125647,23.8598114 219.953257,25.8668669 219.957255,27.9928665 L219.957255,27.9988636 L223.218721,27.9988636 C223.215722,24.906319 221.958314,22.1056369 219.92627,20.0725937 C217.894226,18.0395504 215.093544,16.7811426 212.001999,16.780143 L212.001999,16.780143 Z M212.661689,27.3191835 L212.661689,27.318184 L212.660689,27.318184 L212.661689,27.3191835 L212.661689,27.3191835 Z M215.852187,24.1396797 C216.264993,24.5514859 216.515875,25.1092235 216.516874,25.7309309 C216.515875,26.3506393 216.264993,26.9093763 215.854186,27.318184 L215.852187,27.3191835 C215.44238,27.7279911 214.880644,27.9788731 214.256938,27.9788731 C213.632232,27.9788731 213.072495,27.7269916 212.661689,27.318184 C212.252881,26.9093763 212,26.3516388 212,25.7309309 C212,25.1092235 212.252881,24.5504864 212.661689,24.1396797 C213.072495,23.7308721 213.632232,23.4779911 214.256938,23.4779911 C214.880644,23.4779911 215.44238,23.7308721 215.852187,24.1396797 L215.852187,24.1396797 Z" id="Shape" stroke="none" fill="#ECECED" fill-rule="evenodd"></path>
</svg>