<svg width="16px" height="17px" viewBox="142 8 16 17" version="1.1" xmlns="http://www.w3.org/2000/svg" xmlns:xlink="http://www.w3.org/1999/xlink">
    <!-- Generator: Sketch 3.8.2 (29753) - http://www.bohemiancoding.com/sketch -->
    <desc>Created with Sketch.</desc>
    <defs></defs>
    <path d="M157.704343,24.704834 C157.310801,25.0983887 156.672461,25.0983887 156.278252,24.704834 L153.185943,21.6124278 C152.017989,22.4849186 150.573888,23.0072124 149.003721,23.0072124 C145.135666,23.0072124 142,19.8721156 142,16.0039397 C142,12.1357639 145.135666,9 149.003721,9 C152.871776,9 156.007441,12.1357639 156.007441,16.0039397 C156.007441,17.5734893 155.484497,19.018302 154.612033,20.1862923 L157.704343,23.2786984 C158.098552,23.6722531 158.098552,24.3106122 157.704343,24.704834 L157.704343,24.704834 Z M149.003721,11.0011256 C146.24092,11.0011256 144.001063,13.2410523 144.001063,16.0039397 C144.001063,18.7661601 146.24092,21.0067538 149.003721,21.0067538 C151.766522,21.0067538 154.006378,18.7661601 154.006378,16.0039397 C154.006378,13.2410523 151.766522,11.0011256 149.003721,11.0011256 L149.003721,11.0011256 Z"></path>
</svg>