<svg width="20px" height="19px" viewBox="16 19 20 19" version="1.1" xmlns="http://www.w3.org/2000/svg" xmlns:xlink="http://www.w3.org/1999/xlink">
    <!-- Generator: Sketch 3.8.3 (29802) - http://www.bohemiancoding.com/sketch -->
    <desc>Created with Sketch.</desc>
    <defs></defs>
    <path d="M26,27 C28.2,27 30,25.2 30,23 C30,20.8 28.2,19 26,19 C23.8,19 22,20.8 22,23 C22,25.2 23.8,27 26,27 L26,27 Z M26,21 C27.1,21 28,21.9 28,23 C28,24.1 27.1,25 26,25 C24.9,25 24,24.1 24,23 C24,21.9 24.9,21 26,21 L26,21 Z M20,30 C17.8,30 16,31.8 16,34 C16,36.2 17.8,38 20,38 C22.2,38 24,36.2 24,34 C24,31.8 22.2,30 20,30 L20,30 Z M20,36 C18.9,36 18,35.1 18,34 C18,32.9 18.9,32 20,32 C21.1,32 22,32.9 22,34 C22,35.1 21.1,36 20,36 L20,36 Z M26,28.1 C25,28.1 24.1,29 24.1,30 C24.1,31 25,31.9 26,31.9 C27,31.9 27.9,31 27.9,30 C27.9,29 27,28.1 26,28.1 L26,28.1 Z M32,30 C29.8,30 28,31.8 28,34 C28,36.2 29.8,38 32,38 C34.2,38 36,36.2 36,34 C36,31.8 34.2,30 32,30 L32,30 Z M32,36 C30.9,36 30,35.1 30,34 C30,32.9 30.9,32 32,32 C33.1,32 34,32.9 34,34 C34,35.1 33.1,36 32,36 L32,36 Z" id="Shape" stroke="none" fill="#FFFFFF" fill-rule="evenodd"></path>
</svg>