<svg width="41px" height="41px" viewBox="150 1 41 41" version="1.1" xmlns="http://www.w3.org/2000/svg" xmlns:xlink="http://www.w3.org/1999/xlink">
    <!-- Generator: Sketch 3.7.2 (28276) - http://www.bohemiancoding.com/sketch -->
    <desc>Created with Sketch.</desc>
    <defs></defs>
    <path d="M170.622049,1.12988281 C159.484179,1.12988281 150.454909,10.1567963 150.454909,21.2917597 C150.454909,32.421413 159.484179,41.4483266 170.622049,41.4483266 C181.754608,41.4483266 190.783878,32.421413 190.783878,21.2917597 C190.783878,10.1567963 181.754608,1.12988281 170.622049,1.12988281 L170.622049,1.12988281 Z M178.286306,17.0172506 C178.291617,17.1977889 178.296929,17.3783272 178.296929,17.5588654 C178.296929,23.0865225 174.191266,29.4637714 166.686349,29.4637714 C164.38123,29.4637714 162.23545,28.768168 160.429596,27.5840494 C160.748276,27.621219 161.072268,27.6424588 161.401571,27.6424588 C163.313651,27.6424588 165.077015,26.9734052 166.473896,25.853006 C164.683976,25.8158363 163.180868,24.6104779 162.660357,22.9484638 C162.90999,22.9962533 163.164934,23.0228031 163.425189,23.0228031 C163.802294,23.0228031 164.205956,22.9697036 164.545881,22.8741245 C162.676291,22.4918082 161.311278,20.7979344 161.311278,18.7695338 L161.311278,18.7217443 C161.842412,19.0297213 162.453215,19.2208795 163.122443,19.2421193 C162.022997,18.4934165 161.284721,17.2084088 161.284721,15.7587927 C161.284721,14.99416 161.475929,14.2720069 161.826478,13.6560528 C163.839474,16.1888985 166.840378,17.8509126 170.234321,18.0261409 C170.159963,17.7181639 170.125439,17.3995669 170.125439,17.0756601 C170.125439,14.7658322 171.950945,12.8914201 174.203482,12.8914201 C175.377287,12.8914201 176.438492,13.3958653 177.182079,14.2082875 C178.111563,14.0224393 178.982622,13.6772926 179.774011,13.1940872 C179.471265,14.1711179 178.822751,14.99416 177.978248,15.5092251 C178.806817,15.408336 179.592894,15.1853182 180.320547,14.8507914 C179.778791,15.6897633 179.083006,16.4278463 178.286306,17.0172506 L178.286306,17.0172506 Z" id="Twitter" stroke="none" fill="#FFFFFF" fill-rule="evenodd"></path>
</svg>