<svg width="0" height="0" style="position:absolute"><symbol viewBox="0 0 129 129" id="arrow"><path d="M40.4 121.3c-.8.8-1.8 1.2-2.9 1.2s-2.1-.4-2.9-1.2c-1.6-1.6-1.6-4.2 0-5.8l51-51-51-51c-1.6-1.6-1.6-4.2 0-5.8 1.6-1.6 4.2-1.6 5.8 0l53.9 53.9c1.6 1.6 1.6 4.2 0 5.8l-53.9 53.9z"/></symbol><symbol viewBox="0 0 297 297" id="blackboard"><path d="M287.63 193.236h-6.09V17.098a9.37 9.37 0 0 0-9.368-9.37H24.828a9.37 9.37 0 0 0-9.37 9.37v176.14H9.37A9.37 9.37 0 0 0 0 202.605v30.918a9.37 9.37 0 0 0 9.37 9.37h33.376l-11.348 34.044c-1.636 4.908 1.018 10.215 5.926 11.852.983.328 1.98.482 2.964.482a9.374 9.374 0 0 0 8.888-6.408l13.323-39.97h172l13.324 39.97a9.374 9.374 0 0 0 8.888 6.408c.98 0 1.98-.154 2.964-.482 4.908-1.637 7.56-6.943 5.926-11.852l-11.348-34.045h33.377a9.37 9.37 0 0 0 9.37-9.37v-30.917c0-5.174-4.195-9.37-9.37-9.37zM34.198 26.466h228.605v166.77H34.197V26.467zm-15.46 197.688v-12.18h259.524v12.18H18.74z"/><path d="M159.363 94.895c0-11.773-9.577-21.354-21.348-21.354-11.77 0-21.347 9.58-21.347 21.355a7.494 7.494 0 0 0 7.495 7.496 7.494 7.494 0 0 0 7.495-7.495c0-3.508 2.852-6.363 6.356-6.363s6.357 2.855 6.357 6.363c0 4.477-6.307 10.16-11.873 15.176-7.782 7.013-15.83 14.265-15.83 24.364a7.494 7.494 0 0 0 7.495 7.494h27.704a7.495 7.495 0 0 0 0-14.99H136.44c1.896-1.95 4.096-3.932 6.094-5.732 7.89-7.108 16.83-15.165 16.83-26.31zM217.84 72.527h-.003a21.318 21.318 0 0 0-16.28 7.543 7.496 7.496 0 0 0 .868 10.565c3.16 2.678 7.89 2.29 10.564-.865a6.436 6.436 0 0 1 4.848-2.252h.002c3.505 0 6.355 2.854 6.355 6.36 0 3.51-2.85 6.362-6.355 6.362a7.495 7.495 0 0 0 0 14.99c3.505 0 6.355 2.854 6.355 6.36 0 3.51-2.85 6.36-6.357 6.36-1.84 0-3.653-.84-4.85-2.25a7.495 7.495 0 0 0-11.43 9.7c4.068 4.793 10 7.54 16.277 7.54h.005c11.77 0 21.347-9.575 21.347-21.35 0-5.282-1.93-10.124-5.12-13.856a21.262 21.262 0 0 0 5.12-13.855c0-11.775-9.577-21.353-21.346-21.353zM65.31 72.527a7.495 7.495 0 0 0-7.496 7.496v55.424a7.495 7.495 0 0 0 7.496 7.494 7.495 7.495 0 0 0 7.495-7.493V80.023a7.496 7.496 0 0 0-7.495-7.496zM108.174 102.71h-4.218v-5.1a7.495 7.495 0 0 0-14.99 0v5.1h-4.214a7.494 7.494 0 0 0-7.494 7.495 7.494 7.494 0 0 0 7.495 7.494h4.216v5.097a7.496 7.496 0 0 0 14.99 0V117.7h4.218a7.495 7.495 0 0 0 0-14.99zM189.74 95.96h-19.5a7.494 7.494 0 0 0-7.496 7.495 7.494 7.494 0 0 0 7.495 7.496h19.5a7.494 7.494 0 0 0 7.494-7.495 7.494 7.494 0 0 0-7.495-7.494zM189.74 113.11h-19.5a7.494 7.494 0 0 0-7.496 7.495 7.494 7.494 0 0 0 7.495 7.494h19.5a7.495 7.495 0 0 0 0-14.99z"/></symbol><symbol viewBox="0 0 362.505 362.505" id="change-sync"><g fill="#222220"><path d="M102.452 151.928c-17.57 0-31.866 14.295-31.866 31.866s14.295 31.866 31.866 31.866 31.866-14.295 31.866-31.866-14.295-31.866-31.866-31.866zm0 48.733c-9.3 0-16.866-7.565-16.866-16.865s7.566-16.866 16.866-16.866 16.866 7.565 16.866 16.865-7.566 16.866-16.866 16.866z"/><path d="M201.265 202.454l-20.68-12.426c.197-2.184.29-4.227.29-6.233s-.094-4.05-.29-6.232l20.68-12.426a7.502 7.502 0 0 0 2.566-10.29l-28.22-46.97a7.5 7.5 0 1 0-12.858 7.725l24.358 40.54-18.407 11.062a7.5 7.5 0 0 0-3.56 7.497c.5 3.478.733 6.37.733 9.096s-.233 5.617-.734 9.097a7.5 7.5 0 0 0 3.56 7.497l18.408 11.06-20.495 34.11-18.403-11.057a7.498 7.498 0 0 0-8.303.385c-4.182 3.07-8.543 5.568-12.962 7.422a7.5 7.5 0 0 0-4.6 6.916v21.38H82.555v-21.38c0-4.143-3.358-7.5-7.5-7.5s-7.5 3.357-7.5 7.5v28.88a7.5 7.5 0 0 0 7.5 7.5h54.794a7.5 7.5 0 0 0 7.5-7.5v-24.085a78.716 78.716 0 0 0 7.276-4.172l20.693 12.433a7.5 7.5 0 0 0 10.29-2.565l28.22-46.968a7.502 7.502 0 0 0-2.565-10.293zM82.555 118.366v-21.38h39.794v21.38c0 4.143 3.357 7.5 7.5 7.5s7.5-3.357 7.5-7.5v-28.88a7.5 7.5 0 0 0-7.5-7.5H75.054a7.5 7.5 0 0 0-7.5 7.5v24.085a78.26 78.26 0 0 0-7.277 4.174L39.584 105.31a7.5 7.5 0 0 0-10.29 2.566l-28.22 46.97a7.5 7.5 0 0 0 2.565 10.29l20.68 12.426c-.2 2.183-.293 4.226-.293 6.232s.095 4.05.292 6.233L3.64 202.453a7.5 7.5 0 0 0-2.567 10.29l28.22 46.97a7.496 7.496 0 0 0 10.29 2.566 7.5 7.5 0 0 0 2.567-10.292l-24.357-40.54L36.2 200.39a7.5 7.5 0 0 0 3.56-7.497c-.5-3.478-.733-6.37-.733-9.096s.233-5.617.734-9.097a7.5 7.5 0 0 0-3.56-7.497l-18.407-11.06 20.495-34.11 18.403 11.057a7.502 7.502 0 0 0 8.303-.384c4.182-3.07 8.543-5.568 12.962-7.422a7.496 7.496 0 0 0 4.6-6.914zM246.005 125.533l51.473 34.927a7.495 7.495 0 0 0 7.722.42 7.5 7.5 0 0 0 3.988-6.626v-27.427h45.816c4.142 0 7.5-3.357 7.5-7.5s-3.358-7.5-7.5-7.5h-45.816V84.4a7.502 7.502 0 0 0-11.71-6.206l-51.474 34.927a7.5 7.5 0 0 0 0 12.413zm48.184-26.98V140.1l-30.617-20.773 30.616-20.775zM359.216 236.88l-51.473-34.926c-2.297-1.56-5.27-1.722-7.723-.42s-3.988 3.85-3.988 6.626v27.427h-45.816c-4.142 0-7.5 3.357-7.5 7.5s3.358 7.5 7.5 7.5h45.816v27.427a7.5 7.5 0 0 0 11.71 6.206l51.473-34.927a7.5 7.5 0 0 0 0-12.412zm-48.184 26.982v-41.55l30.615 20.775-30.615 20.775z"/></g></symbol><symbol viewBox="0 0 502.686 502.686" id="closed-padlock"><path d="M403.676 221.014v-68.746C403.696 68.293 335.34 0 251.406 0c-83.995 0-152.31 68.293-152.31 152.268v68.768H66.373v281.65h369.94V221.014h-32.637zm-247.223-68.746c0-52.31 42.58-94.825 94.933-94.825 52.266 0 94.825 42.538 94.825 94.825v68.768H156.454v-68.768zM277.55 425.462h-52.265l7.83-77.202c-9.664-6.018-16.178-16.76-16.178-29.077 0-18.96 15.402-34.362 34.47-34.362 18.96 0 34.32 15.403 34.32 34.363 0 12.317-6.408 23.038-16.158 29.077l7.98 77.202z" fill="#010002"/></symbol><symbol viewBox="0 0 470.03 470.03" id="flasks"><path d="M377.53 189.82V74.874c11.234-1.248 20-10.796 20-22.358 0-12.407-10.093-22.5-22.5-22.5h-100c-12.407 0-22.5 10.093-22.5 22.5 0 11.56 8.766 21.11 20 22.358v114.95c-22.675 8.812-42.852 23.265-58.606 42.033a7.5 7.5 0 0 0 5.74 12.322c2.14 0 4.265-.91 5.748-2.678 15.17-18.073 34.906-31.682 57.072-39.356a7.5 7.5 0 0 0 5.046-7.087V75.015h42.5a7.5 7.5 0 0 0 0-15h-55c-4.136 0-7.5-3.364-7.5-7.5s3.364-7.5 7.5-7.5h100c4.136 0 7.5 3.364 7.5 7.5s-3.364 7.5-7.5 7.5h-15a7.5 7.5 0 0 0 0 15h2.5v120.04a7.5 7.5 0 0 0 5.046 7.088c52.31 18.11 87.454 67.488 87.454 122.87 0 71.683-58.318 130-130 130-16.9 0-33.35-3.2-48.892-9.515a7.5 7.5 0 1 0-5.645 13.896c17.345 7.046 35.693 10.62 54.537 10.62 79.953 0 145-65.048 145-145 0-59.972-36.952-113.632-92.5-135.193z"/><circle cx="380.923" cy="351.39" r="7.5"/><circle cx="350.923" cy="381.39" r="7.5"/><path d="M282.67 415.62a7.5 7.5 0 0 0-6.362 13.584c15.316 7.174 31.708 10.812 48.722 10.812 63.41 0 115-51.59 115-115 0-20.213-5.323-40.098-15.394-57.506a7.492 7.492 0 0 0-7.525-3.672l-2.73.38c-.34.047-.68.12-1.013.213-11.338 3.22-17.453 8.13-22.366 12.076-5.442 4.372-9.04 7.26-19.415 7.26-8.86 0-12.86-3.435-18.393-8.19-6.125-5.26-13.748-11.81-28.167-11.81-14.418 0-22.04 6.55-28.165 11.812-5.533 4.754-9.53 8.188-18.39 8.188-10.374 0-13.97-2.888-19.412-7.26-4.913-3.946-11.027-8.857-22.363-12.075a7.322 7.322 0 0 0-1.015-.212l-2.73-.38a7.49 7.49 0 0 0-7.515 3.655c-.065.11-.128.224-.197.352a7.5 7.5 0 0 0 7.718 11.138l.125.018c8.09 2.38 12.22 5.695 16.585 9.202 6.466 5.194 13.153 10.565 28.806 10.565 14.42 0 22.04-6.55 28.166-11.812 5.533-4.754 9.53-8.188 18.39-8.188 8.86 0 12.858 3.435 18.392 8.19 6.125 5.26 13.748 11.81 28.167 11.81 15.654 0 22.34-5.37 28.81-10.564 3.852-3.095 7.52-6.04 13.89-8.325 7.044 13.92 10.746 29.414 10.746 45.14 0 55.14-44.86 100-100 100-14.798-.003-29.05-3.164-42.36-9.398z"/><path d="M181.03 193.796V44.873c11.234-1.248 20-10.796 20-22.358 0-12.407-10.093-22.5-22.5-22.5h-100c-12.407 0-22.5 10.093-22.5 22.5 0 11.56 8.766 21.11 20 22.358v120.184a7.5 7.5 0 0 0 15 0V45.015h42.5a7.5 7.5 0 0 0 0-15h-55c-4.136 0-7.5-3.364-7.5-7.5s3.364-7.5 7.5-7.5h100c4.136 0 7.5 3.364 7.5 7.5s-3.364 7.5-7.5 7.5h-15a7.5 7.5 0 0 0 0 15h2.5v150.042c0 .834.14 1.663.412 2.45l72.89 210.755c4.4 12.728 3.408 24.535-2.796 33.246-6.205 8.71-17.038 13.508-30.505 13.508h-155c-13.466 0-24.3-4.797-30.505-13.508-6.204-8.71-7.197-20.518-2.795-33.245L90.62 197.51a7.5 7.5 0 0 0-14.177-4.904L3.553 403.36c-6.032 17.438-4.343 34.077 4.754 46.85 9.097 12.77 24.27 19.805 42.723 19.805h155c18.453 0 33.626-7.034 42.723-19.806 9.097-12.773 10.786-29.412 4.754-46.85L181.03 193.795z"/><path d="M64.652 348.792a7.5 7.5 0 0 0-11.685 3.475l-21.062 60.9c-2.772 8.015-2.475 14.99.837 19.64 3.312 4.648 9.806 7.21 18.288 7.21h155c8.48 0 14.976-2.562 18.287-7.21 3.313-4.65 3.61-11.626.837-19.64l-21.063-60.902a7.498 7.498 0 0 0-11.683-3.474c-4.09 3.174-7.964 5.602-17.323 5.602-8.86 0-12.86-3.435-18.393-8.19-6.124-5.26-13.747-11.81-28.166-11.81-14.418 0-22.04 6.55-28.165 11.812-5.534 4.754-9.53 8.188-18.39 8.188-9.357-.002-13.23-2.428-17.318-5.6zm45.483 8.787c5.533-4.755 9.53-8.19 18.39-8.19 8.86 0 12.858 3.436 18.392 8.19 6.125 5.262 13.748 11.81 28.167 11.81 7.84 0 13.484-1.403 17.89-3.378l18.004 52.057c1.064 3.076 1.123 5.09 1.018 5.96-.787.383-2.71.986-5.966.986h-155c-3.256 0-5.18-.603-5.966-.986-.105-.87-.046-2.884 1.018-5.96l18.003-52.056c4.404 1.975 10.047 3.378 17.885 3.378 14.42-.002 22.04-6.55 28.165-11.813z"/></symbol><symbol viewBox="0 0 49.652 49.652" id="google-plus-logo-button"><path d="M21.5 28.94c-.16-.107-.326-.223-.5-.34a5.66 5.66 0 0 0-1.583-.24h-.066c-2.513 0-4.717 1.52-4.717 3.256 0 1.89 1.89 3.367 4.3 3.367 3.178 0 4.79-1.098 4.79-3.258 0-.204-.025-.416-.076-.63-.215-.837-.984-1.36-2.147-2.155zM19.72 22.352c.602 0 1.11-.237 1.502-.687.616-.702.89-1.854.727-3.077-.286-2.186-1.85-4.006-3.48-4.053l-.065-.002c-.577 0-1.092.238-1.483.686-.607.692-.864 1.79-.705 3.01.286 2.185 1.882 4.072 3.48 4.122h.022z"/><path d="M24.826 0C11.136 0 0 11.137 0 24.826c0 13.688 11.137 24.826 24.826 24.826 13.688 0 24.826-11.138 24.826-24.826C49.652 11.136 38.516 0 24.826 0zm-2.862 36.915c-.938.27-1.953.408-3.018.408-1.186 0-2.326-.136-3.39-.405-2.056-.52-3.576-1.503-4.286-2.77a3.526 3.526 0 0 1-.46-1.738c0-.623.148-1.255.442-1.88 1.127-2.403 4.098-4.02 7.39-4.02h.093a2.932 2.932 0 0 1-.396-1.47c0-.256.033-.516.1-.78-3.45-.08-6.034-2.607-6.034-5.94 0-2.353 1.88-4.646 4.57-5.572a7.458 7.458 0 0 1 2.434-.42h7.382c.25 0 .474.163.552.402a.578.578 0 0 1-.21.647l-1.652 1.195a.59.59 0 0 1-.34.108h-.592c.763.915 1.21 2.22 1.21 3.685 0 1.617-.818 3.146-2.307 4.31-1.15.897-1.195 1.144-1.195 1.655.014.28.815 1.198 1.7 1.823 2.058 1.456 2.824 2.885 2.824 5.27 0 2.49-1.892 4.642-4.818 5.492zm16.67-12.662c0 .32-.26.58-.58.58H33.86v4.197c0 .32-.26.58-.578.58h-1.195a.58.58 0 0 1-.582-.58v-4.197h-4.192a.58.58 0 0 1-.58-.58V23.06c0-.32.26-.582.58-.582h4.192v-4.193c0-.32.26-.58.582-.58h1.195a.58.58 0 0 1 .578.58v4.193h4.194c.32 0 .58.26.58.58v1.195z"/></symbol><symbol viewBox="0 0 736.605 736.605" id="group-of-people-outline"><path d="M554.316 200.396c34.705 0 62.935-28.234 62.935-62.948s-28.228-62.95-62.934-62.95c-34.733 0-62.992 28.235-62.992 62.95 0 34.714 28.26 62.948 62.992 62.948zm0-106.468c23.99 0 43.506 19.525 43.506 43.52 0 23.994-19.516 43.52-43.506 43.52-24.02 0-43.563-19.526-43.563-43.52 0-23.995 19.545-43.52 43.563-43.52zM182.318 198.86c34.71 0 62.95-28.233 62.95-62.948 0-34.704-28.24-62.934-62.95-62.934-34.733 0-62.992 28.23-62.992 62.934 0 34.715 28.258 62.95 62.992 62.95zm0-106.453c23.994 0 43.52 19.52 43.52 43.505 0 23.995-19.526 43.52-43.52 43.52-24.02 0-43.563-19.525-43.563-43.52 0-23.984 19.544-43.505 43.563-43.505zM236.286 503.463h-1.84c-19.328 0-36.143-17.312-36.143-36.638V247.418c0-7.305 1.812-14.824 4.298-22.353.982-2.963.754-6.348-1.072-8.88-1.826-2.524-4.478-4.157-7.597-4.157h-76.003c-30.28.005-55.624 27.613-55.624 51.13v177.768c0 5.362 6.203 9.112 11.57 9.112h27.287v200.24c0 5.362 5.11 8.616 10.472 8.616h124.654c5.362 0 10.588-3.254 10.588-8.616v-138.69c0-5.366-5.22-8.125-10.588-8.125zm-8.84 136H120.588v-198.54c0-5.363-3.59-10.317-8.957-10.317h-29.9V263.16c0-12.653 16.277-31.693 36.196-31.693h63.498c-.967 4.857-2.55 10.773-2.55 15.956V466.83c0 27.365 19.43 50.082 48.572 53.904v118.73z"/><path d="M514.017 466.825V247.418c0-28.623-28.486-59.67-66.27-59.67H288.844c-36.108 0-66.256 31.688-66.256 59.67v219.407c0 5.362 6.493 7.494 11.855 7.494h36.715v250.89c0 5.362 4.537 11.396 9.9 11.396h174.487c5.362 0 9.898-6.028 9.898-11.396V474.32h36.7c5.364 0 11.872-2.128 11.872-7.495zM494.59 454.89h-39.043c-5.362 0-9.53 6.573-9.53 11.936v250.352h-155.43V466.825c0-5.362-4.162-11.935-9.53-11.935h-39.04V247.418c0-16.543 20.904-40.24 46.827-40.24H447.75c27.277 0 46.843 23.488 46.843 40.24V454.89h-.004zM368.322 150.834c41.572 0 75.388-33.825 75.388-75.402C443.71 33.84 409.89 0 368.322 0c-41.616 0-75.47 33.84-75.47 75.427 0 41.582 33.854 75.407 75.47 75.407zm0-131.405c30.857 0 55.96 25.12 55.96 55.997 0 30.862-25.103 55.974-55.96 55.974-30.9 0-56.042-25.11-56.042-55.973 0-30.877 25.14-55.998 56.042-55.998z"/><path d="M618.664 212.034h-75.432c-3.07 0-5.96 2.346-7.79 4.81-1.832 2.462-1.837 6.09-.957 9.034 2.16 7.237 3.817 14.78 3.817 21.54v219.408c0 19.326-16.835 36.638-36.156 36.638h-1.826c-5.362 0-10.59 2.754-10.59 8.12v140.212c0 5.362 5.223 11.953 10.59 11.953h124.668c5.362 0 10.457-6.587 10.457-11.954V450.034h27.288c5.362 0 11.57-2.225 11.57-7.587V264.705c0-24.067-23.946-52.67-55.64-52.67zm36.21 218.57h-29.886c-5.362 0-8.972 6.476-8.972 11.843V644.32H509.16V520.73c29.143-3.833 48.57-26.545 48.57-53.905V247.418c0-4.644-1.51-11.1-2.297-15.956h63.23c20.974 0 36.21 20.415 36.21 33.242v165.9z"/></symbol><symbol viewBox="0 0 470 470" id="image"><path d="M270.998 127.087v65.208c0 4.143 3.358 7.5 7.5 7.5s7.5-3.357 7.5-7.5v-65.208c0-4.143-3.358-7.5-7.5-7.5s-7.5 3.357-7.5 7.5zM467.803 435.983L409.26 377.44a7.5 7.5 0 0 0-10.605 0l-5.303 5.303-10.845-10.844C397.142 354.84 406 332.684 406 308.497c0-53.762-43.74-97.5-97.5-97.5s-97.5 43.738-97.5 97.5 43.737 97.5 97.5 97.5c24.186 0 46.34-8.856 63.4-23.492l10.846 10.844-5.303 5.303a7.5 7.5 0 0 0 0 10.607l58.542 58.542a7.477 7.477 0 0 0 5.303 2.196c1.92 0 3.84-.732 5.303-2.196l21.214-21.213a7.5 7.5 0 0 0 0-10.607zM225.998 308.498c0-45.49 37.01-82.5 82.5-82.5s82.5 37.01 82.5 82.5-37.01 82.5-82.5 82.5-82.5-37.01-82.5-82.5zm215.29 143.396l-47.937-47.936 5.302-5.302 5.306-5.306 47.936 47.937-10.607 10.607z"/><path d="M229.22 390.998H15V15h196.41v82.087a7.5 7.5 0 0 0 7.5 7.5H301v83.91c0 4.144 3.358 7.5 7.5 7.5s7.5-3.356 7.5-7.5v-91.41c0-.25-.013-.5-.038-.75-.018-.183-.05-.364-.08-.544-.012-.06-.017-.122-.03-.182a7.298 7.298 0 0 0-.158-.63c-.007-.026-.012-.053-.02-.078a7.357 7.357 0 0 0-.224-.625l-.023-.064a7.61 7.61 0 0 0-.27-.57c-.015-.03-.028-.063-.044-.094a7.977 7.977 0 0 0-.3-.505c-.027-.042-.05-.086-.077-.127a7.546 7.546 0 0 0-.33-.446c-.037-.048-.07-.098-.11-.145a7.586 7.586 0 0 0-.45-.498c-.015-.016-.027-.032-.042-.047L224.215 2.196c-.018-.018-.038-.033-.057-.05a7.503 7.503 0 0 0-.486-.44c-.054-.046-.112-.084-.168-.127-.138-.108-.275-.215-.42-.312-.05-.034-.105-.062-.156-.095a7.352 7.352 0 0 0-.475-.284c-.035-.02-.073-.036-.11-.054a7.376 7.376 0 0 0-.554-.262c-.024-.01-.05-.017-.074-.027a7.637 7.637 0 0 0-.616-.22c-.027-.01-.054-.014-.08-.022a7.686 7.686 0 0 0-.63-.158c-.062-.013-.127-.018-.19-.03a7.203 7.203 0 0 0-.537-.08 7.433 7.433 0 0 0-.75-.037H7.5A7.5 7.5 0 0 0 0 7.5v390.998a7.5 7.5 0 0 0 7.5 7.5h221.72a7.5 7.5 0 0 0 0-15zm-2.81-365.392l63.98 63.98h-63.98v-63.98z"/><path d="M308.498 240.998c-37.22 0-67.5 30.28-67.5 67.5s30.28 67.5 67.5 67.5 67.5-30.28 67.5-67.5-30.28-67.5-67.5-67.5zm0 120c-28.95 0-52.5-23.552-52.5-52.5s23.55-52.5 52.5-52.5 52.5 23.552 52.5 52.5-23.55 52.5-52.5 52.5zM112.114 191.408l63.19 66.672a7.5 7.5 0 0 0 10.885 0l43.916-46.337 3.736 3.942a7.5 7.5 0 1 0 10.888-10.32l-9.18-9.687a7.5 7.5 0 0 0-10.887 0l-43.917 46.337-63.19-66.672a7.5 7.5 0 0 0-10.885 0L32.058 254.07A7.498 7.498 0 0 0 30 259.23v109.267a7.5 7.5 0 0 0 7.5 7.5h167.107c4.142 0 7.5-3.357 7.5-7.5s-3.358-7.5-7.5-7.5H45V262.22l67.114-70.812z"/><path d="M149.146 160.866c0 17.424 14.175 31.6 31.6 31.6s31.6-14.176 31.6-31.6-14.176-31.6-31.6-31.6-31.6 14.176-31.6 31.6zm48.2 0c0 9.153-7.447 16.6-16.6 16.6-9.153 0-16.6-7.446-16.6-16.6s7.447-16.6 16.6-16.6c9.153 0 16.6 7.447 16.6 16.6zM188.91 30H37.5a7.5 7.5 0 0 0-7.5 7.5v178.12c0 4.143 3.358 7.5 7.5 7.5s7.5-3.357 7.5-7.5V45h143.91c4.143 0 7.5-3.357 7.5-7.5s-3.357-7.5-7.5-7.5z"/></symbol><symbol viewBox="0 0 463 463" id="laptop"><path d="M455.5 348H447V91.5c0-12.958-10.542-23.5-23.5-23.5h-384C26.542 68 16 78.542 16 91.5V348H7.5a7.5 7.5 0 0 0-7.5 7.5v16C0 384.458 10.542 395 23.5 395h416c12.958 0 23.5-10.542 23.5-23.5v-16a7.5 7.5 0 0 0-7.5-7.5zM31 91.5c0-4.687 3.813-8.5 8.5-8.5h384c4.687 0 8.5 3.813 8.5 8.5V348H31V91.5zm417 280c0 4.687-3.813 8.5-8.5 8.5h-416c-4.687 0-8.5-3.813-8.5-8.5V363h177.025c-.01.166-.025.33-.025.5a7.5 7.5 0 0 0 7.5 7.5h64a7.5 7.5 0 0 0 7.5-7.5c0-.17-.014-.334-.025-.5H448v8.5z"/><path d="M407.5 100h-352a7.5 7.5 0 0 0-7.5 7.5v216a7.5 7.5 0 0 0 7.5 7.5h352a7.5 7.5 0 0 0 7.5-7.5v-216a7.5 7.5 0 0 0-7.5-7.5zM63 115h177v201h-17v-48.5c0-6.236-1.83-12.05-4.968-16.947a7.493 7.493 0 0 0 3.082-12.026C212.144 228.4 207 209.8 207 187.5c0-30.603-24.897-55.5-55.5-55.5S96 156.897 96 187.5c0 22.3-5.145 40.9-14.114 51.027a7.493 7.493 0 0 0 3.082 12.026A31.304 31.304 0 0 0 80 267.5V316H63V115zm121 72.5c0 17.92-14.58 32.5-32.5 32.5-16.714 0-30.52-12.684-32.308-28.856 17.318-3.92 39.097-11.185 56.982-24.55C181.2 172.44 184 179.804 184 187.5zm-43.734 46.146c3.604.878 7.364 1.354 11.234 1.354s7.63-.476 11.234-1.354c4.71 5.883 11.768 10.327 21.085 13.273-1.715 16.32-15.554 29.08-32.32 29.08s-30.605-12.76-32.32-29.08c9.318-2.947 16.376-7.39 21.086-13.274zm37.21-6.408A47.818 47.818 0 0 0 193.63 209.4c1.53 9.78 4.12 18.534 7.695 25.952-8.314-1.025-17.794-3.35-23.85-8.114zm-65.17-49.954C116.847 159.882 132.697 147 151.5 147a40.25 40.25 0 0 1 19.166 4.832c-18.334 15.232-43.575 22.383-58.36 25.452zm-2.935 32.115a47.83 47.83 0 0 0 16.155 17.838c-6.055 4.764-15.537 7.09-23.85 8.113 3.575-7.416 6.164-16.17 7.696-25.95zM95 267.5c0-6.73 4.057-12.525 9.85-15.09 4.185 21.946 23.505 38.59 46.65 38.59s42.465-16.644 46.65-38.59c5.793 2.564 9.85 8.358 9.85 15.09V316H95v-48.5zM400 316H255V115h145v201z"/><path d="M279.5 163h8.5v.5c0 4.143 3.357 7.5 7.5 7.5s7.5-3.357 7.5-7.5v-.5h72.5c4.143 0 7.5-3.357 7.5-7.5s-3.357-7.5-7.5-7.5H303v-.5c0-4.143-3.357-7.5-7.5-7.5s-7.5 3.357-7.5 7.5v.5h-8.5c-4.143 0-7.5 3.357-7.5 7.5s3.357 7.5 7.5 7.5zM279.5 203H352v.5c0 4.143 3.357 7.5 7.5 7.5s7.5-3.357 7.5-7.5v-.5h8.5c4.143 0 7.5-3.357 7.5-7.5s-3.357-7.5-7.5-7.5H367v-.5c0-4.143-3.357-7.5-7.5-7.5s-7.5 3.357-7.5 7.5v.5h-72.5c-4.143 0-7.5 3.357-7.5 7.5s3.357 7.5 7.5 7.5zM279.5 243H328v.5c0 4.143 3.357 7.5 7.5 7.5s7.5-3.357 7.5-7.5v-.5h32.5c4.143 0 7.5-3.357 7.5-7.5s-3.357-7.5-7.5-7.5H343v-.5c0-4.143-3.357-7.5-7.5-7.5s-7.5 3.357-7.5 7.5v.5h-48.5c-4.143 0-7.5 3.357-7.5 7.5s3.357 7.5 7.5 7.5zM375.5 268H319v-.5c0-4.143-3.357-7.5-7.5-7.5s-7.5 3.357-7.5 7.5v.5h-24.5c-4.143 0-7.5 3.357-7.5 7.5s3.357 7.5 7.5 7.5H304v.5c0 4.143 3.357 7.5 7.5 7.5s7.5-3.357 7.5-7.5v-.5h56.5c4.143 0 7.5-3.357 7.5-7.5s-3.357-7.5-7.5-7.5z"/></symbol><symbol viewBox="0 0 64 64" id="leaf"><path fill="#1D1D1B" d="M61.642.026L21.674 6.75C10.384 8.446 3.41 12.253.952 18.065c-2.756 6.514 1.218 12.944 2.5 14.758 1.325 1.874 2.56 3.056 2.643 3.133l2.683 2.452C-.242 51.03 1.32 61.6 1.44 62.31a2.025 2.025 0 0 0 2.328 1.66 2.034 2.034 0 0 0 1.666-2.334c-.103-.642-1.438-10.3 7.404-21.93.067-.055.146-.084.206-.15.128-.14.2-.31.28-.473 5.477-6.953 14.61-14.555 29.835-21.33a2.037 2.037 0 0 0 1.03-2.683 2.017 2.017 0 0 0-2.672-1.036c-14.876 6.62-24.287 14.096-30.24 21.158l-2.428-2.22c-.01-.008-1.017-.978-2.096-2.508-.978-1.38-4.012-6.24-2.078-10.808 1.847-4.36 7.93-7.433 17.632-8.892L59.72 4.473c-.835 6.877-4.552 26.267-20.493 38.393a1.708 1.708 0 0 0-.208.18c-.345.343-8.628 8.313-20.187-1.5a2.016 2.016 0 0 0-2.853.24 2.042 2.042 0 0 0 .24 2.868c5.2 4.42 9.966 5.836 13.94 5.836 6.417 0 10.776-3.698 11.588-4.44 20.986-16.024 22.21-42.807 22.25-43.94.023-.613-.23-1.2-.686-1.605a2.034 2.034 0 0 0-1.67-.48z"/></symbol><symbol viewBox="0 0 260.771 260.771" id="lightbulb"><path d="M172.49 50.81c-22.05-14.56-49.42-16.622-75.096-5.66-16.1 6.875-28.84 19.31-35.877 35.02-7.332 16.367-9.425 33.665-6.054 50.025 3.154 15.306 10.844 29.117 22.237 39.94 10.603 10.074 16.685 24.49 16.685 39.552v15.49c0 4.275 1.916 8.26 5.257 10.93l11.41 9.118c.477.38.75.947.75 1.555 0 7.714 6.276 13.99 13.99 13.99h9.187c7.713 0 13.99-6.276 13.99-13.99 0-.608.27-1.175.746-1.555l11.413-9.12a13.924 13.924 0 0 0 5.255-10.928v-15.494c0-14.952 6.188-29.47 16.98-39.83 15.165-14.56 23.517-34.152 23.517-55.167 0-25.774-12.858-49.654-34.393-63.875zm-35.52 195.97c0 1.098-.894 1.99-1.99 1.99h-9.188a1.993 1.993 0 0 1-1.99-1.99c0-4.275-1.916-8.26-5.257-10.93l-11.41-9.118a1.98 1.98 0 0 1-.75-1.555v-9.68h48v9.68c0 .608-.273 1.175-.748 1.555l-11.413 9.12a13.922 13.922 0 0 0-5.255 10.928zm17.718-43.28h-48.6c-1.47-16.06-8.614-31.13-20.122-42.064-20.64-19.61-25.813-48.868-13.498-76.36 5.8-12.945 16.325-23.205 29.638-28.89 9.354-3.993 18.95-5.973 28.33-5.973 12.582 0 24.77 3.564 35.44 10.61 18.163 11.995 29.006 32.13 29.006 53.864 0 17.717-7.042 34.235-19.83 46.512-11.638 11.174-18.866 26.326-20.364 42.3zM130.385 29.333a6 6 0 0 0 6-6V6a6 6 0 0 0-12 0v17.333a6 6 0 0 0 6 6zM202.996 33.59L190.74 45.85a6 6 0 0 0 8.486 8.485l12.256-12.257a6 6 0 0 0-8.486-8.485zM239.073 108.688H221.74a6 6 0 0 0 0 12h17.333a6 6 0 0 0 0-12zM199.225 175.042a6 6 0 1 0-8.485 8.485l12.256 12.256c1.17 1.17 2.707 1.757 4.243 1.757s3.07-.586 4.242-1.757a6 6 0 0 0 0-8.485l-12.257-12.256zM61.545 175.042L49.29 187.298a6 6 0 0 0 8.485 8.485l12.256-12.256a6 6 0 0 0-8.485-8.485zM39.03 108.688H21.7a6 6 0 0 0 0 12H39.03a6 6 0 0 0 0-12zM61.545 54.333a5.984 5.984 0 0 0 4.243 1.757 6 6 0 0 0 4.243-10.242L57.775 33.59a6 6 0 0 0-8.485 8.486l12.255 12.257z"/><path d="M129.774 74.41c-5.523.337-9.726 5.087-9.39 10.61l4 65.45a6.01 6.01 0 0 0 12 0l4-65.45c.022-.384.025-.83 0-1.222-.336-5.522-5.087-9.726-10.61-9.39z"/><circle cx="130.385" cy="175.187" r="7"/></symbol><symbol viewBox="0 0 65 65" id="question"><path d="M32.5 0C14.58 0 0 14.58 0 32.5S14.58 65 32.5 65 65 50.42 65 32.5 50.42 0 32.5 0zm0 61C16.785 61 4 48.215 4 32.5S16.785 4 32.5 4 61 16.785 61 32.5 48.215 61 32.5 61z"/><circle cx="33.017" cy="49.541" r="3.345"/><path d="M32.385 12.79c-3.067 0-6.022 1.3-8.32 3.66a2 2 0 1 0 2.865 2.79c1.54-1.58 3.477-2.45 5.455-2.45 4.326 0 7.846 3.44 7.846 7.67 0 4.085-3.807 7.668-7.86 7.668-1.105 0-2.25.896-2.25 2v7.214a2 2 0 0 0 4 0v-5.396c6-.984 9.86-5.845 9.86-11.486 0-6.436-5.063-11.67-11.595-11.67z"/></symbol><symbol viewBox="0 0 463 463" id="question-1"><path d="M394.772 75.678c-43.666-37.428-101.65-58.04-163.272-58.04S111.894 38.25 68.228 75.677C24.23 113.39 0 163.628 0 217.138c0 28.337 6.758 55.718 20.086 81.38 12.01 23.126 28.77 43.787 49.863 61.482-9.163 22.863-22.083 48.78-29.276 62.77-2.793 5.43-2.2 11.796 1.544 16.61 2.992 3.846 7.438 5.982 12.137 5.982 1.176 0 2.367-.134 3.556-.408 22.877-5.274 66.355-17.08 104.112-37.51 22.517 6.1 45.875 9.192 69.48 9.192 61.62 0 119.605-20.613 163.27-58.04C438.77 320.883 463 270.645 463 217.135S438.77 113.39 394.772 75.68zM231.5 401.638c-23.263 0-46.265-3.18-68.366-9.45a7.503 7.503 0 0 0-5.693.66c-36.754 20.452-80.245 32.268-102.898 37.49-.155.037-.3.07-.483-.166-.195-.25-.115-.404-.045-.54 9.61-18.69 22.946-45.88 31.915-69.294a7.5 7.5 0 0 0-2.325-8.544C62.132 334.657 45.24 314.407 33.4 291.606 21.19 268.1 15 243.046 15 217.136c0-101.732 97.12-184.5 216.5-184.5S448 115.405 448 217.137s-97.12 184.5-216.5 184.5z"/><path d="M231.5 322.637c-7.995 0-14.5 6.505-14.5 14.5s6.505 14.5 14.5 14.5 14.5-6.505 14.5-14.5-6.505-14.5-14.5-14.5zM231.5 97.637c-57.07 0-103.5 39.252-103.5 87.5 0 13.58 3.57 26.593 10.614 38.678a7.5 7.5 0 1 0 12.96-7.552c-5.69-9.764-8.574-20.236-8.574-31.127 0-39.977 39.7-72.5 88.5-72.5s88.5 32.523 88.5 72.5c0 17.21-7.52 33.905-21.175 47.01-13.834 13.28-32.963 22.036-53.862 24.654C233.013 258.3 224 268.33 224 280.13v17.007c0 4.142 3.357 7.5 7.5 7.5s7.5-3.358 7.5-7.5V280.13c0-4.325 3.292-7.876 7.828-8.444 24.08-3.018 46.236-13.216 62.385-28.715 16.63-15.96 25.787-36.5 25.787-57.833 0-48.247-46.43-87.5-103.5-87.5z"/></symbol><symbol viewBox="0 0 611.98 611.98" id="rocket-travelling-space-transport"><path d="M85.31 478.813c-21.603 0-39.874 14.307-45.83 33.957l-20.8 68.585a9.592 9.592 0 0 0-.402 2.797c0 5.286 4.29 9.576 9.576 9.576.977 0 1.916-.153 2.796-.402l68.585-20.8c19.65-5.956 33.957-24.228 33.957-45.832 0-26.45-21.432-47.88-47.88-47.88zM583.278 0c-103.29 0-202.96 4.5-286.81 59.104-44.204 28.786-80.92 69.083-110.548 114.13-71.69 4.386-138.417 40.7-180.57 99.785a28.756 28.756 0 0 0-3.16 27.655c3.772 9.155 11.988 15.686 21.756 17.352 25.818 4.348 54.413 15.936 83.275 33-5.208 19.114-9.46 37.673-12.467 55.045a28.688 28.688 0 0 0 7.987 25.224l77.932 77.912a28.692 28.692 0 0 0 20.3 8.408c1.648 0 3.276-.134 4.923-.422 17.39-3.007 35.95-7.26 55.063-12.468 17.065 28.9 28.652 57.496 33.02 83.313 1.646 9.767 8.215 17.964 17.352 21.775a28.84 28.84 0 0 0 27.657-3.16c59.066-42.137 95.398-108.883 99.746-180.59 45.047-29.648 85.344-66.345 114.11-110.567 54.565-83.794 59.124-187.62 59.124-286.81.04-15.84-12.832-28.69-28.69-28.69zM63.057 278.382c25.318-26.01 57.476-44.146 92.467-52.555-13.215 25.856-24.38 52.287-33.594 78.334-19.842-10.935-39.626-19.726-58.874-25.778zM333.622 548.95c-6.053-19.287-14.844-39.07-25.8-58.895 26.067-9.212 52.5-20.378 78.355-33.612-8.408 35.01-26.545 67.206-52.555 92.506zm171.11-264.784C445.187 375.62 316.77 436.218 210.567 457.86l-56.462-56.442c21.662-106.22 82.26-234.62 173.694-294.164 63.414-41.273 142.8-48.57 226.574-49.643-1.052 83.774-8.368 163.142-49.642 226.556zm-93.83-35.183c26.45 0 47.882-21.432 47.882-47.88s-21.432-47.882-47.88-47.882-47.882 21.433-47.882 47.882 21.432 47.88 47.88 47.88z"/></symbol><symbol viewBox="0 0 486.392 486.392" id="share__facebook"><path d="M243.196 0C108.89 0 0 108.89 0 243.196s108.89 243.196 243.196 243.196 243.196-108.89 243.196-243.196C486.392 108.86 377.502 0 243.196 0zm62.866 243.165l-39.854.03-.03 145.917h-54.69V243.196H175.01v-50.28l36.48-.03-.062-29.61c0-41.04 11.126-65.997 59.43-65.997h40.25v50.31h-25.17c-18.818 0-19.73 7.022-19.73 20.124l-.06 25.17h45.233l-5.318 50.28z" fill="#010002"/></symbol><symbol viewBox="0 0 49.652 49.652" id="share__google-plus"><path d="M21.5 28.94c-.16-.107-.326-.223-.5-.34a5.66 5.66 0 0 0-1.583-.24h-.066c-2.513 0-4.717 1.52-4.717 3.256 0 1.89 1.89 3.367 4.3 3.367 3.178 0 4.79-1.098 4.79-3.258 0-.204-.025-.416-.076-.63-.215-.837-.984-1.36-2.147-2.155zM19.72 22.352c.602 0 1.11-.237 1.502-.687.616-.702.89-1.854.727-3.077-.286-2.186-1.85-4.006-3.48-4.053l-.065-.002c-.577 0-1.092.238-1.483.686-.607.692-.864 1.79-.705 3.01.286 2.185 1.882 4.072 3.48 4.122h.022z"/><path d="M24.826 0C11.136 0 0 11.137 0 24.826c0 13.688 11.137 24.826 24.826 24.826 13.688 0 24.826-11.138 24.826-24.826C49.652 11.136 38.516 0 24.826 0zm-2.862 36.915c-.938.27-1.953.408-3.018.408-1.186 0-2.326-.136-3.39-.405-2.056-.52-3.576-1.503-4.286-2.77a3.526 3.526 0 0 1-.46-1.738c0-.623.148-1.255.442-1.88 1.127-2.403 4.098-4.02 7.39-4.02h.093a2.932 2.932 0 0 1-.396-1.47c0-.256.033-.516.1-.78-3.45-.08-6.034-2.607-6.034-5.94 0-2.353 1.88-4.646 4.57-5.572a7.458 7.458 0 0 1 2.434-.42h7.382c.25 0 .474.163.552.402a.578.578 0 0 1-.21.647l-1.652 1.195a.59.59 0 0 1-.34.108h-.592c.763.915 1.21 2.22 1.21 3.685 0 1.617-.818 3.146-2.307 4.31-1.15.897-1.195 1.144-1.195 1.655.014.28.815 1.198 1.7 1.823 2.058 1.456 2.824 2.885 2.824 5.27 0 2.49-1.892 4.642-4.818 5.492zm16.67-12.662c0 .32-.26.58-.58.58H33.86v4.197c0 .32-.26.58-.578.58h-1.195a.58.58 0 0 1-.582-.58v-4.197h-4.192a.58.58 0 0 1-.58-.58V23.06c0-.32.26-.582.58-.582h4.192v-4.193c0-.32.26-.58.582-.58h1.195a.58.58 0 0 1 .578.58v4.193h4.194c.32 0 .58.26.58.58v1.195z"/></symbol><symbol viewBox="0 0 49.652 49.652" id="share__linked-in"><path d="M29.35 21.298c-2.125 0-3.074 1.168-3.605 1.988v-1.704h-4.002c.052 1.128 0 12.04 0 12.04h4.002v-6.726c0-.36.023-.72.13-.977.29-.72.95-1.466 2.055-1.466 1.448 0 2.027 1.104 2.027 2.724v6.442h4.002v-6.905c-.002-3.696-1.977-5.417-4.61-5.417zm-3.608 2.03h-.025c.008-.014.02-.027.025-.04v.04zM15.523 21.582h4.002v12.04h-4.002z"/><path d="M24.826 0C11.136 0 0 11.137 0 24.826c0 13.688 11.137 24.826 24.826 24.826 13.688 0 24.826-11.138 24.826-24.826C49.652 11.136 38.516 0 24.826 0zM37.99 36.055c0 1.056-.875 1.91-1.958 1.91h-22.58c-1.08 0-1.958-.854-1.958-1.91V13.21c0-1.054.877-1.91 1.957-1.91h22.582c1.082 0 1.96.857 1.96 1.91v22.845z"/><path d="M17.55 15.777c-1.367 0-2.263.898-2.263 2.08 0 1.155.87 2.08 2.21 2.08h.027c1.396 0 2.265-.925 2.265-2.08-.028-1.18-.87-2.08-2.24-2.08z"/></symbol><symbol viewBox="0 0 512 512" id="share__rss"><path d="M256 0C114.615 0 0 114.615 0 256s114.615 256 256 256 256-114.615 256-256S397.385 0 256 0zm-96 384c-17.673 0-32-14.327-32-32s14.327-32 32-32 32 14.327 32 32-14.327 32-32 32zm88 0c0-66.168-53.832-120-120-120v-48c92.636 0 168 75.364 168 168h-48zm96 0c0-57.695-22.47-111.938-63.266-152.735C239.938 190.468 185.696 168 128 168v-48c70.517 0 136.812 27.46 186.678 77.324C364.538 247.187 392 313.482 392 384h-48z"/></symbol><symbol viewBox="0 0 49.652 49.652" id="share__twitter"><path d="M24.826 0C11.136 0 0 11.137 0 24.826c0 13.688 11.137 24.826 24.826 24.826 13.688 0 24.826-11.138 24.826-24.826C49.652 11.136 38.516 0 24.826 0zM35.9 19.144c.012.246.018.494.018.742 0 7.55-5.746 16.255-16.26 16.255-3.226 0-6.23-.942-8.758-2.564.447.053.902.08 1.363.08 2.678 0 5.14-.914 7.097-2.446a5.72 5.72 0 0 1-5.338-3.97 5.76 5.76 0 0 0 2.58-.095 5.715 5.715 0 0 1-4.583-5.603v-.072a5.69 5.69 0 0 0 2.587.714 5.71 5.71 0 0 1-2.54-4.755c0-1.05.28-2.03.772-2.875a16.225 16.225 0 0 0 11.776 5.972 5.707 5.707 0 0 1-.147-1.303 5.714 5.714 0 0 1 9.883-3.91 11.406 11.406 0 0 0 3.63-1.387 5.74 5.74 0 0 1-2.516 3.162 11.36 11.36 0 0 0 3.282-.9 11.494 11.494 0 0 1-2.85 2.954z"/></symbol><symbol viewBox="0 0 49.652 49.652" id="social-media"><path d="M29.35 21.298c-2.125 0-3.074 1.168-3.605 1.988v-1.704h-4.002c.052 1.128 0 12.04 0 12.04h4.002v-6.726c0-.36.023-.72.13-.977.29-.72.95-1.466 2.055-1.466 1.448 0 2.027 1.104 2.027 2.724v6.442h4.002v-6.905c-.002-3.696-1.977-5.417-4.61-5.417zm-3.608 2.03h-.025c.008-.014.02-.027.025-.04v.04zM15.523 21.582h4.002v12.04h-4.002z"/><path d="M24.826 0C11.136 0 0 11.137 0 24.826c0 13.688 11.137 24.826 24.826 24.826 13.688 0 24.826-11.138 24.826-24.826C49.652 11.136 38.516 0 24.826 0zM37.99 36.055c0 1.056-.875 1.91-1.958 1.91h-22.58c-1.08 0-1.958-.854-1.958-1.91V13.21c0-1.054.877-1.91 1.957-1.91h22.582c1.082 0 1.96.857 1.96 1.91v22.845z"/><path d="M17.55 15.777c-1.367 0-2.263.898-2.263 2.08 0 1.155.87 2.08 2.21 2.08h.027c1.396 0 2.265-.925 2.265-2.08-.028-1.18-.87-2.08-2.24-2.08z"/></symbol><symbol viewBox="0 0 470.586 470.586" id="text-document"><path d="M327.08 0H90.235C74.33 0 61.38 12.96 61.38 28.86V441.72c0 15.924 12.95 28.863 28.854 28.863H380.35c15.917 0 28.855-12.94 28.855-28.863V89.234L327.08 0zm6.81 43.184l35.997 39.12H333.89v-39.12zm51.082 398.54c0 2.54-2.08 4.628-4.635 4.628H90.234c-2.55 0-4.62-2.087-4.62-4.63V28.86a4.616 4.616 0 0 1 4.62-4.614h219.41v70.18c0 6.683 5.444 12.1 12.13 12.1h63.198v335.197zM128.364 128.89H334.15a9.08 9.08 0 0 1 9.08 9.08 9.08 9.08 0 0 1-9.08 9.078H128.364c-5.012 0-9.08-4.066-9.08-9.08 0-5.01 4.068-9.078 9.08-9.078zm214.865 70.09c0 5.012-4.067 9.08-9.08 9.08H128.364c-5.012 0-9.08-4.067-9.08-9.08s4.068-9.08 9.08-9.08H334.15c5.013 0 9.08 4.068 9.08 9.08zm0 59.013a9.08 9.08 0 0 1-9.08 9.08H128.364c-5.012 0-9.08-4.067-9.08-9.08s4.068-9.08 9.08-9.08H334.15a9.08 9.08 0 0 1 9.08 9.08zm0 60.018a9.08 9.08 0 0 1-9.08 9.08H128.364c-5.012 0-9.08-4.066-9.08-9.08s4.068-9.078 9.08-9.078H334.15a9.08 9.08 0 0 1 9.08 9.08z"/></symbol><symbol viewBox="0 0 49.652 49.652" id="twitter-logo-button"><path d="M24.826 0C11.136 0 0 11.137 0 24.826c0 13.688 11.137 24.826 24.826 24.826 13.688 0 24.826-11.138 24.826-24.826C49.652 11.136 38.516 0 24.826 0zM35.9 19.144c.012.246.018.494.018.742 0 7.55-5.746 16.255-16.26 16.255-3.226 0-6.23-.942-8.758-2.564.447.053.902.08 1.363.08 2.678 0 5.14-.914 7.097-2.446a5.72 5.72 0 0 1-5.338-3.97 5.76 5.76 0 0 0 2.58-.095 5.715 5.715 0 0 1-4.583-5.603v-.072a5.69 5.69 0 0 0 2.587.714 5.71 5.71 0 0 1-2.54-4.755c0-1.05.28-2.03.772-2.875a16.225 16.225 0 0 0 11.776 5.972 5.707 5.707 0 0 1-.147-1.303 5.714 5.714 0 0 1 9.883-3.91 11.406 11.406 0 0 0 3.63-1.387 5.74 5.74 0 0 1-2.516 3.162 11.36 11.36 0 0 0 3.282-.9 11.494 11.494 0 0 1-2.85 2.954z"/></symbol><symbol viewBox="0 0 463 463" id="user"><path d="M423.5 80h-384C17.72 80 0 97.72 0 119.5v224C0 365.28 17.72 383 39.5 383h384c21.78 0 39.5-17.72 39.5-39.5v-224c0-21.78-17.72-39.5-39.5-39.5zM448 343.5c0 13.51-10.99 24.5-24.5 24.5h-384C25.99 368 15 357.01 15 343.5v-224C15 105.99 25.99 95 39.5 95h384c13.51 0 24.5 10.99 24.5 24.5v224z"/><path d="M221.727 288.54a23.513 23.513 0 0 0-17.327-18.897l-40.283-10.358v-14.14c14.906-10.31 24-27.418 24-45.645v-24c0-26.19-21.31-47.5-47.5-47.5h-16c-26.19 0-47.5 21.31-47.5 47.5v24c0 18.227 9.094 35.335 24 45.644v14.14l-40.282 10.36a23.517 23.517 0 0 0-17.328 18.895l-3.183 19.097a23.463 23.463 0 0 0 5.25 19.054 23.46 23.46 0 0 0 17.93 8.31h138.227a23.46 23.46 0 0 0 17.932-8.31 23.458 23.458 0 0 0 5.25-19.053l-3.185-19.097zm-13.512 28.454c-1.643 1.938-3.945 3.006-6.485 3.006H63.504c-2.54 0-4.843-1.067-6.485-3.006-1.643-1.938-2.317-4.386-1.9-6.892l3.183-19.097a8.508 8.508 0 0 1 6.27-6.835l45.913-11.807a7.5 7.5 0 0 0 5.632-7.264v-24.075a7.503 7.503 0 0 0-3.74-6.49c-12.497-7.24-20.26-20.664-20.26-35.036v-24c0-17.92 14.58-32.5 32.5-32.5h16c17.92 0 32.5 14.58 32.5 32.5v24c0 14.37-7.763 27.796-20.26 35.035a7.502 7.502 0 0 0-3.74 6.49V265.1a7.5 7.5 0 0 0 5.632 7.264l45.915 11.807a8.507 8.507 0 0 1 6.268 6.836l3.183 19.097a8.386 8.386 0 0 1-1.9 6.89zM255.5 151h96c4.143 0 7.5-3.358 7.5-7.5s-3.357-7.5-7.5-7.5h-96c-4.143 0-7.5 3.358-7.5 7.5s3.357 7.5 7.5 7.5zM415.5 168h-160c-4.143 0-7.5 3.358-7.5 7.5s3.357 7.5 7.5 7.5h160c4.143 0 7.5-3.358 7.5-7.5s-3.357-7.5-7.5-7.5zM383.5 248h-96c-4.143 0-7.5 3.358-7.5 7.5s3.357 7.5 7.5 7.5h96c4.143 0 7.5-3.358 7.5-7.5s-3.357-7.5-7.5-7.5zM383.5 280h-96c-4.143 0-7.5 3.358-7.5 7.5s3.357 7.5 7.5 7.5h96c4.143 0 7.5-3.358 7.5-7.5s-3.357-7.5-7.5-7.5z"/><path d="M407.5 208h-144c-8.547 0-15.5 6.953-15.5 15.5v96c0 8.547 6.953 15.5 15.5 15.5h144c8.547 0 15.5-6.953 15.5-15.5v-96c0-8.547-6.953-15.5-15.5-15.5zm.5 111.5a.5.5 0 0 1-.5.5h-144a.5.5 0 0 1-.5-.5v-96a.5.5 0 0 1 .5-.5h144a.5.5 0 0 1 .5.5v96z"/></symbol></svg>