<svg width="0" height="0" style="position:absolute"><symbol viewBox="0 0 17 17" id="angle-left"><path d="M5.207 8.47l7.146 7.148-.707.707L3.793 8.47 11.647.62l.707.707L5.207 8.47z"/></symbol><symbol viewBox="0 0 17 17" id="angle-right"><path d="M13.207 8.472l-7.854 7.854-.707-.707 7.146-7.147-7.146-7.148.707-.707 7.854 7.854z"/></symbol><symbol viewBox="0 0 1792 1792" id="facebook"><path d="M1343 12v264h-157q-86 0-116 36t-30 108v189h293l-39 296h-254v759H734V905H479V609h255V391q0-186 104-288.5T1115 0q147 0 228 12z"/></symbol><symbol viewBox="0 0 1792 1792" id="google-plus"><path d="M896 786h725q12 67 12 128 0 217-91 387.5T1282.5 1568 896 1664q-157 0-299-60.5T352 1440t-163.5-245T128 896t60.5-299T352 352t245-163.5T896 128q300 0 515 201l-209 201q-123-119-306-119-129 0-238.5 65T484 652.5 420 896t64 243.5T657.5 1316t238.5 65q87 0 160-24t120-60 82-82 51.5-87 22.5-78H896V786z"/></symbol><symbol viewBox="0 0 17 17" id="help-alt"><path d="M8.5 0C3.813 0 0 3.813 0 8.5S3.813 17 8.5 17 17 13.187 17 8.5 13.187 0 8.5 0zm0 16C4.364 16 1 12.636 1 8.5S4.364 1 8.5 1 16 4.364 16 8.5 12.636 16 8.5 16zm1.158-3.78a1.032 1.032 0 1 1-2.064-.003 1.032 1.032 0 0 1 2.064.002zm1.004-8.005c.448.565.674 1.328.55 1.855-.243 1.027-.842 1.567-1.37 2.043-.544.49-.935.84-.935 1.647h-1c0-1.25.67-1.856 1.264-2.39.462-.415.897-.807 1.067-1.53.034-.142-.04-.6-.36-1.004-.307-.39-.728-.586-1.248-.586-1.78 0-1.87 1.444-1.874 1.61l-1-.028C5.78 4.94 6.41 3.25 8.63 3.25c.817 0 1.538.343 2.032.965z"/></symbol><symbol viewBox="0 0 17 17" id="info-alt"><path d="M8.5 0C3.813 0 0 3.813 0 8.5S3.813 17 8.5 17 17 13.187 17 8.5 13.187 0 8.5 0zm0 16C4.364 16 1 12.636 1 8.5S4.364 1 8.5 1 16 4.364 16 8.5 12.636 16 8.5 16zm.5-3.63h.98v1H7.02v-1H8V7.95h-.946v-1H9v5.42zM7.185 4.985a.985.985 0 1 1 1.97 0 .985.985 0 0 1-1.97 0z"/></symbol><symbol viewBox="0 0 1792 1792" id="linked-in"><path d="M477 625v991H147V625h330zm21-306q1 73-50.5 122T312 490h-2q-82 0-132-49t-50-122q0-74 51.5-122.5T314 148t133 48.5T498 319zm1166 729v568h-329v-530q0-105-40.5-164.5T1168 862q-63 0-105.5 34.5T999 982q-11 30-11 81v553H659q2-399 2-647t-1-296l-1-48h329v144h-2q20-32 41-56t56.5-52 87-43.5T1285 602q171 0 275 113.5t104 332.5z"/></symbol><symbol viewBox="0 0 17 17" id="lock"><path d="M9.5 10.972a.985.985 0 0 1-.5.846v2.154H8V11.82a.984.984 0 0 1-.5-.848 1 1 0 0 1 2 0zm5.465-2.512v7.08c0 .827-.673 1.5-1.5 1.5h-9.99c-.826 0-1.5-.673-1.5-1.5V8.46c0-.827.674-1.5 1.5-1.5H3.5V4.972c0-2.757 2.243-5 5-5s5 2.243 5 5v1.992c.81.018 1.465.68 1.465 1.496zM4.5 6.96h8V4.972c0-2.206-1.794-4-4-4s-4 1.794-4 4V6.96zm9.465 1.5a.497.497 0 0 0-.465-.493v.004h-10v-.01h-.024a.5.5 0 0 0-.5.5v7.08a.5.5 0 0 0 .5.5h9.99a.5.5 0 0 0 .5-.5V8.46z"/></symbol><symbol viewBox="92 4 24 12" id="long-arrow-right"><path d="M113.088 10.452l-4.5 4.46a.53.53 0 0 0 0 .76c.215.21.562.21.775 0l5.477-5.378a.53.53 0 0 0 0-.76l-5.477-5.377a.555.555 0 0 0-.774 0 .53.53 0 0 0 0 .76l4.498 4.46H92.533a.54.54 0 0 0-.533.537c0 .297.237.538.533.538h20.555z"/></symbol><symbol viewBox="0 0 1792 1792" id="mail"><path d="M1792 710v794q0 66-47 113t-113 47H160q-66 0-113-47T0 1504V710q44 49 101 87 362 246 497 345 57 42 92.5 65.5t94.5 48 110 24.5h2q51 0 110-24.5t94.5-48 92.5-65.5q170-123 498-345 57-39 100-87zm0-294q0 79-49 151t-122 123q-376 261-468 325-10 7-42.5 30.5t-54 38-52 32.5-57.5 27-50 9h-2q-23 0-50-9t-57.5-27-52-32.5-54-38T639 1015q-91-64-262-182.5T172 690q-62-42-117-115.5T0 438q0-78 41.5-130T160 256h1472q65 0 112.5 47t47.5 113z"/></symbol><symbol viewBox="0 0 17 17" id="receipt"><path d="M2 0v16.902l2.028-2.48L5.53 16.3l1.502-1.876 1.5 1.875 1.5-1.874 1.5 1.875 1.498-1.874 1.97 2.46V0H2zm12 14.036l-.97-1.21-1.5 1.874-1.5-1.875-1.5 1.875-1.498-1.875-1.5 1.875-1.496-1.87L3 14.098V1h11v13.036zM10.997 4h-6V3h6v1zm-2 4h-4V7h4v1zm2.98-2h-7V5h7v1zM5 10h7v1H5v-1z"/></symbol><symbol viewBox="0 0 1792 1792" id="rss"><path d="M576 1344q0 80-56 136t-136 56-136-56-56-136 56-136 136-56 136 56 56 136zm512 123q2 28-17 48-18 21-47 21H889q-25 0-43-16.5t-20-41.5q-22-229-184.5-391.5T250 902q-25-2-41.5-20T192 839V704q0-29 21-47 17-17 43-17h5q160 13 306 80.5T826 902q114 113 181.5 259t80.5 306zm512 2q2 27-18 47-18 20-46 20h-143q-26 0-44.5-17.5T1329 1476q-12-215-101-408.5t-231.5-336-336-231.5T252 398q-25-1-42.5-19.5T192 335V192q0-28 20-46 18-18 44-18h3q262 13 501.5 120T1186 542q187 186 294 425.5t120 501.5z"/></symbol><symbol viewBox="0 0 1792 1792" id="twitter"><path d="M1684 408q-67 98-162 167 1 14 1 42 0 130-38 259.5T1369.5 1125 1185 1335.5t-258 146-323 54.5q-271 0-496-145 35 4 78 4 225 0 401-138-105-2-188-64.5T285 1033q33 5 61 5 43 0 85-11-112-23-185.5-111.5T172 710v-4q68 38 146 41-66-44-105-115t-39-154q0-88 44-163 121 149 294.5 238.5T884 653q-8-38-8-74 0-134 94.5-228.5T1199 256q140 0 236 102 109-21 205-78-37 115-142 178 93-10 186-50z"/></symbol><symbol viewBox="0 0 1792 1792" id="xing"><path d="M789 667q-10 18-257 456-27 46-65 46H228q-21 0-31-17t0-36l253-448q1 0 0-1L289 388q-12-22-1-37 9-15 32-15h239q40 0 66 45zm806-642q11 16 0 37l-528 934v1l336 615q11 20 1 37-10 15-32 15h-239q-42 0-66-45L728 997q18-32 531-942 25-45 64-45h241q22 0 31 15z"/></symbol></svg>