<svg width="0" height="0" style="position:absolute"><symbol viewBox="0 5 38 38" id="blackboard"><path d="M35.757 10.05H1.703V8.37h34.054v1.683zm-1.703 21.89H3.406V11.736h30.648V31.94zm1.703-25.256H20.433c0-.93-.763-1.684-1.703-1.684-.94 0-1.703.755-1.703 1.684H1.703C.763 6.684 0 7.44 0 8.368v1.683c0 .932.763 1.685 1.703 1.685V31.94c0 .932.763 1.685 1.703 1.685h14.472V35.8l-4.86 4.807a.84.84 0 0 0-.247.595c0 .464.383.842.853.842a.854.854 0 0 0 .6-.247l4.507-4.456 4.506 4.457a.854.854 0 0 0 1.453-.595.84.84 0 0 0-.25-.595L19.583 35.8v-2.175h14.472c.94 0 1.703-.753 1.703-1.684V11.736c.94 0 1.703-.753 1.703-1.684V8.37c0-.93-.763-1.684-1.703-1.684zM21.285 26.89h8.513c.47 0 .852-.377.852-.842a.847.847 0 0 0-.852-.842h-8.513a.847.847 0 0 0-.852.842c0 .465.382.842.852.842zM8.513 16.787h6.81v8.42h-6.81v-8.42zm0 10.103h6.81c.94 0 1.704-.753 1.704-1.684v-8.42c0-.928-.763-1.683-1.703-1.683h-6.81c-.94 0-1.704.755-1.704 1.684v8.42c0 .93.764 1.683 1.703 1.683zm12.772-3.368h3.404c.47 0 .85-.377.85-.842a.847.847 0 0 0-.85-.842h-3.405a.847.847 0 0 0-.852.842c0 .465.382.842.852.842zm0-6.735h5.107c.47 0 .85-.377.85-.842a.847.847 0 0 0-.85-.842h-5.107a.847.847 0 0 0-.852.842c0 .465.382.842.852.842zm0 3.367h8.513c.47 0 .852-.376.852-.842a.847.847 0 0 0-.852-.84h-8.513a.847.847 0 0 0-.852.84c0 .466.382.842.852.842z"/></symbol><symbol viewBox="50 0 41 41" id="facebook"><path d="M70.238.355C59.1.355 50.07 9.382 50.07 20.517c0 11.13 9.03 20.157 20.168 20.157 11.132 0 20.162-9.027 20.162-20.157C90.4 9.382 81.37.355 70.238.355zm9.81 28.685c0 .594-.292 1.227-.882 1.227h-4.96v-7.434h2.522l.383-3.186h-2.905v-1.902c0-.85.23-1.284 1.45-1.284h1.737v-2.777c-.53-.037-1.354-.117-2.432-.117-2.242 0-3.94 1.37-3.94 3.887v2.194h-2.657v3.186h2.656v7.434h-9.2c-.596 0-.893-.633-.893-1.227V11.697c0-.594.297-1.077.892-1.077h17.346c.59 0 .882.483.882 1.077V29.04z"/></symbol><symbol viewBox="0 0 41 41" id="google-plus"><path d="M20.3.408C9.162.408.133 9.435.133 20.57c0 11.13 9.03 20.157 20.167 20.157 11.132 0 20.162-9.027 20.162-20.157C40.462 9.435 31.432.408 20.3.408zm-3.915 27.235c-3.76 0-6.81-3.133-6.81-6.898 0-3.764 3.05-6.863 6.81-6.863 1.764 0 3.373.657 4.58 1.756-1.425 1.35-1.377 1.418-1.94 1.98-.696-.584-1.46-1.006-2.64-1.006-2.236 0-3.978 1.815-3.978 4.05 0 2.236 1.742 4.2 3.978 4.2 2.205 0 3.102-.967 3.68-2.56h-3.6v-2.655h6.46c.45 3.186-.92 7.996-6.54 7.996zm14.42-6.403h-2.124v2.655H27.09V21.24h-2.656v-1.593h2.656v-2.124h1.593v2.124h2.126v1.593z"/></symbol><symbol viewBox="100 1 42 41" id="linked-in"><path d="M120.85 1.13c-11.14 0-20.168 9.028-20.168 20.163 0 11.13 9.03 20.156 20.167 20.156 11.13 0 20.16-9.027 20.16-20.157 0-11.135-9.03-20.162-20.16-20.162zm-8.78 16.924h3.717v12.213h-3.718V18.054zm1.64-1.062h-.026c-1.386 0-2.28-1.057-2.28-2.23 0-1.195.92-2.167 2.333-2.167 1.407 0 2.273 1.004 2.305 2.2 0 1.172-.898 2.197-2.332 2.197zm17.48 13.275h-4.78V24.08c0-1.64-.547-2.755-2.04-2.755-1.136 0-1.795.754-2.092 1.48-.112.26-.117.622-.117.99v6.472h-4.11s.053-11.15 0-12.213h4.11v2.087c.532-.828 1.807-2.012 3.995-2.012 2.714 0 5.035 1.737 5.035 5.485v6.654z"/></symbol><symbol viewBox="69 -1 162 162" id="portfolio__human-resources-development"><path d="M80.274 59.153c-5.93 0-10.754-4.804-10.754-10.71 0-5.905 4.824-10.708 10.754-10.708s10.755 4.803 10.755 10.71c0 5.904-4.826 10.708-10.756 10.708m0-19.465c-4.848 0-8.793 3.928-8.793 8.757 0 4.828 3.946 8.756 8.794 8.756 4.85 0 8.794-3.927 8.794-8.755 0-4.83-3.945-8.757-8.794-8.757M89.205 116.916H71.353c-1.056 0-1.962-1.164-1.962-2.116V91.933c-1.367-1.393-3.348-3.64-3.348-4.958v-20.99c0-2.178 1.926-4.72 7.353-4.72h13.257c5.082 0 7.822 2.43 7.822 4.72l.03 20.99c0 1.32-1.998 3.565-3.38 4.96V114.8c.002.958-.855 2.116-1.92 2.116m-17.72-1.953h17.582a.49.49 0 0 0 .1-.183l-.002-23.657.29-.285c1.57-1.55 3.014-3.367 3.09-3.89l-.03-20.963c0-.868-1.476-2.768-5.862-2.768H73.395c-3.725 0-5.392 1.39-5.392 2.766v20.99c.074.5 1.506 2.317 3.062 3.867l.287.286V114.8a.93.93 0 0 0 .132.163M57.254 52.467c-5.93 0-10.754-4.804-10.754-10.71 0-5.905 4.823-10.708 10.754-10.708 5.93 0 10.754 4.802 10.754 10.708 0 5.905-4.824 10.71-10.754 10.71m0-19.466c-4.85 0-8.794 3.928-8.794 8.757 0 4.827 3.945 8.755 8.794 8.755 4.85 0 8.794-3.928 8.794-8.756 0-4.83-3.945-8.758-8.794-8.758M91.94 41.758c0-5.905 4.825-10.71 10.755-10.71 5.93 0 10.754 4.804 10.754 10.71 0 5.905-4.825 10.71-10.755 10.71-5.93 0-10.755-4.805-10.755-10.71m1.962 0c0 4.828 3.945 8.756 8.794 8.756 4.848 0 8.793-3.928 8.793-8.756 0-4.83-3.947-8.756-8.795-8.756-4.85 0-8.793 3.927-8.793 8.756"/><path d="M109.573 56.532H94.04V54.58h15.533c5.427 0 7.353 2.542 7.353 4.72v20.99c0 1.318-1.98 3.564-3.35 4.958v22.867c0 .952-.905 2.116-1.96 2.116h-17.57l-.007-1.952h17.446a.91.91 0 0 0 .13-.163V84.44l.287-.285c1.557-1.55 2.988-3.368 3.063-3.866V59.297c0-1.376-1.668-2.766-5.393-2.766"/></symbol><symbol viewBox="198 1 41 41" id="rss"><path d="M218.622 1.13c-11.138 0-20.167 9.027-20.167 20.162 0 11.13 9.03 20.156 20.167 20.156 11.133 0 20.162-9.027 20.162-20.156 0-11.135-9.03-20.162-20.162-20.162zM212.007 11v3.243c7.575.005 13.733 6.173 13.74 13.756H229a16.954 16.954 0 0 0-4.986-12.013A16.938 16.938 0 0 0 212.007 11zm-.005 5.78v3.246c2.118 0 4.124.833 5.622 2.336a7.933 7.933 0 0 1 2.333 5.63V28h3.262a11.193 11.193 0 0 0-3.294-7.927 11.176 11.176 0 0 0-7.924-3.293zm.66 10.54v-.002zm3.19-3.18a2.237 2.237 0 0 1 .002 3.178h-.002c-.41.41-.97.66-1.595.66a2.248 2.248 0 0 1-1.595-.66A2.234 2.234 0 0 1 212 25.73c0-.62.253-1.18.662-1.59a2.25 2.25 0 0 1 3.19 0z"/></symbol><symbol viewBox="142 1309 28 34" id="sheet"><path d="M160.667 1318.164v-7.636h.777l7 7.636h-7.777zm7.777 21.38c0 .846-.697 1.528-1.555 1.528h-21.78c-.858 0-1.554-.682-1.554-1.527v-27.49c0-.843.696-1.527 1.555-1.527h14v7.636c0 .843.7 1.527 1.557 1.527h7.777v19.855zM162.222 1309h-17.11c-1.718 0-3.112 1.367-3.112 3.055v27.49c0 1.688 1.394 3.055 3.11 3.055h21.78c1.716 0 3.11-1.367 3.11-3.055V1317.4l-7.778-8.4zm-14 13.745a.77.77 0 0 0 .778.764h14a.77.77 0 0 0 .778-.765.772.772 0 0 0-.778-.764h-14a.772.772 0 0 0-.778.765zM163 1328.09h-14a.77.77 0 0 0-.778.765.77.77 0 0 0 .778.764h14a.77.77 0 0 0 .778-.765.77.77 0 0 0-.778-.764zm-14-10.69h3.89a.77.77 0 0 0 .777-.764.77.77 0 0 0-.778-.764H149a.77.77 0 0 0-.778.764.77.77 0 0 0 .778.764zm9.333 16.8H149a.77.77 0 0 0-.778.764.77.77 0 0 0 .778.764h9.333a.77.77 0 0 0 .778-.764.77.77 0 0 0-.777-.764z" fill="none" fill-rule="evenodd"/></symbol><symbol viewBox="142 1726 31 38" id="solutions"><path d="M161.806 1758.128a.852.852 0 0 0-.862.844c0 .468.385.846.862.846.476 0 .86-.378.86-.846a.852.852 0 0 0-.86-.844zm-5.167-5.074a.852.852 0 0 1-.862-.845c0-.468.384-.847.86-.847.477 0 .862.38.862.846a.852.852 0 0 1-.86.844zm0-3.382c-1.428 0-2.584 1.137-2.584 2.537s1.156 2.536 2.583 2.536c1.425 0 2.582-1.137 2.582-2.537s-1.157-2.538-2.583-2.538zm7.75 0c-.95 0-1.723.76-1.723 1.69 0 .935.772 1.692 1.722 1.692s1.72-.757 1.72-1.69c0-.933-.77-1.692-1.72-1.692zm-1.723 11.837h-10.334c-4.747 0-8.61-3.794-8.61-8.456 0-4.453 1.41-7.042 3.042-10.038.225-.415.453-.84.684-1.275.154-.08 3.764-1.897 8.635.836 1.643.922 3.23 1.266 4.686 1.266 2.976 0 5.407-1.44 6.65-2.357.273.523.547 1.035.815 1.53 1.633 2.997 3.043 5.586 3.043 10.04 0 4.66-3.864 8.454-8.61 8.454zm-12.103-30.438h13.872c.214 3.768 1.137 6.527 2.22 8.86-1.29 1.034-5.268 3.67-9.716 1.175-3.572-2.003-6.616-1.882-8.453-1.48 1.02-2.27 1.872-4.952 2.077-8.555zm-3.397-3.38h20.666v1.69h-20.666v-1.69zm19.006 3.38h1.66c.95 0 1.723-.758 1.723-1.69v-1.69c0-.934-.773-1.692-1.723-1.692h-20.666c-.95 0-1.723.758-1.723 1.69v1.692c0 .932.773 1.69 1.723 1.69h1.66c-.624 10.32-6.827 12.347-6.827 21.982 0 5.603 4.627 10.146 10.333 10.146h10.334c5.706 0 10.333-4.543 10.333-10.146 0-9.635-6.203-11.663-6.827-21.982zm.8 15.22a.852.852 0 0 0-.862.845c0 .467.386.845.862.845.477 0 .86-.378.86-.845a.852.852 0 0 0-.86-.846zm-16.362-1.692c-.95 0-1.72.758-1.72 1.69 0 .935.77 1.692 1.72 1.692s1.723-.757 1.723-1.69c0-.934-.772-1.692-1.722-1.692zm-.86 10.146a.852.852 0 0 0-.86.845c0 .468.384.847.86.847s.86-.38.86-.846a.852.852 0 0 0-.86-.844z" fill="none" fill-rule="evenodd"/></symbol><symbol viewBox="150 1 41 41" id="twitter"><path d="M170.622 1.13c-11.138 0-20.167 9.027-20.167 20.162 0 11.13 9.03 20.156 20.167 20.156 11.133 0 20.162-9.027 20.162-20.156 0-11.135-9.03-20.162-20.162-20.162zm7.664 15.887c.006.18.01.36.01.542 0 5.527-4.105 11.904-11.61 11.904-2.305 0-4.45-.696-6.256-1.88a8.082 8.082 0 0 0 6.044-1.73c-1.79-.038-3.293-1.244-3.814-2.906.25.048.505.075.765.075.377 0 .78-.053 1.12-.15-1.87-.38-3.234-2.075-3.234-4.103v-.048c.532.308 1.143.5 1.812.52a4.22 4.22 0 0 1-1.837-3.483c0-.766.19-1.488.54-2.104 2.014 2.533 5.015 4.195 8.41 4.37a4.045 4.045 0 0 1-.11-.95c0-2.31 1.826-4.185 4.078-4.185 1.174 0 2.235.506 2.98 1.318.93-.186 1.8-.53 2.59-1.014-.302.977-.95 1.8-1.795 2.315a7.87 7.87 0 0 0 2.343-.66 8.32 8.32 0 0 1-2.034 2.167z"/></symbol></svg>