<svg width="0" height="0" style="position:absolute"><symbol viewBox="0 0 17 17" id="angle-left"><path d="M5.207 8.47l7.146 7.148-.707.707L3.793 8.47 11.647.62l.707.707L5.207 8.47z"/></symbol><symbol viewBox="0 0 17 17" id="angle-right"><path d="M13.207 8.472l-7.854 7.854-.707-.707 7.146-7.147-7.146-7.148.707-.707 7.854 7.854z"/></symbol><symbol viewBox="0 0 17 17" id="arrow-circle-left"><path d="M10.854 4.854L7.207 8.5l3.646 3.646-.707.707L5.793 8.5l4.354-4.354.707.708zM17 8.5c0 4.687-3.813 8.5-8.5 8.5S0 13.187 0 8.5 3.813 0 8.5 0 17 3.813 17 8.5zm-1 0C16 4.364 12.636 1 8.5 1S1 4.364 1 8.5 4.364 16 8.5 16 16 12.636 16 8.5z"/></symbol><symbol viewBox="0 0 17 17" id="arrow-circle-right"><path d="M6.854 4.146L11.207 8.5l-4.354 4.354-.707-.707L9.793 8.5 6.146 4.854l.708-.708zM17 8.5c0 4.687-3.813 8.5-8.5 8.5S0 13.187 0 8.5 3.813 0 8.5 0 17 3.813 17 8.5zm-1 0C16 4.364 12.636 1 8.5 1S1 4.364 1 8.5 4.364 16 8.5 16 16 12.636 16 8.5z"/></symbol><symbol viewBox="0 0 17 17" id="help-alt"><path d="M8.5 0C3.813 0 0 3.813 0 8.5S3.813 17 8.5 17 17 13.187 17 8.5 13.187 0 8.5 0zm0 16C4.364 16 1 12.636 1 8.5S4.364 1 8.5 1 16 4.364 16 8.5 12.636 16 8.5 16zm1.158-3.78a1.032 1.032 0 1 1-2.064-.003 1.032 1.032 0 0 1 2.064.002zm1.004-8.005c.448.565.674 1.328.55 1.855-.243 1.027-.842 1.567-1.37 2.043-.544.49-.935.84-.935 1.647h-1c0-1.25.67-1.856 1.264-2.39.462-.415.897-.807 1.067-1.53.034-.142-.04-.6-.36-1.004-.307-.39-.728-.586-1.248-.586-1.78 0-1.87 1.444-1.874 1.61l-1-.028C5.78 4.94 6.41 3.25 8.63 3.25c.817 0 1.538.343 2.032.965z"/></symbol><symbol viewBox="0 0 17 17" id="info-alt"><path d="M8.5 0C3.813 0 0 3.813 0 8.5S3.813 17 8.5 17 17 13.187 17 8.5 13.187 0 8.5 0zm0 16C4.364 16 1 12.636 1 8.5S4.364 1 8.5 1 16 4.364 16 8.5 12.636 16 8.5 16zm.5-3.63h.98v1H7.02v-1H8V7.95h-.946v-1H9v5.42zM7.185 4.985a.985.985 0 1 1 1.97 0 .985.985 0 0 1-1.97 0z"/></symbol><symbol viewBox="0 0 17 17" id="lock"><path d="M9.5 10.972a.985.985 0 0 1-.5.846v2.154H8V11.82a.984.984 0 0 1-.5-.848 1 1 0 0 1 2 0zm5.465-2.512v7.08c0 .827-.673 1.5-1.5 1.5h-9.99c-.826 0-1.5-.673-1.5-1.5V8.46c0-.827.674-1.5 1.5-1.5H3.5V4.972c0-2.757 2.243-5 5-5s5 2.243 5 5v1.992c.81.018 1.465.68 1.465 1.496zM4.5 6.96h8V4.972c0-2.206-1.794-4-4-4s-4 1.794-4 4V6.96zm9.465 1.5a.497.497 0 0 0-.465-.493v.004h-10v-.01h-.024a.5.5 0 0 0-.5.5v7.08a.5.5 0 0 0 .5.5h9.99a.5.5 0 0 0 .5-.5V8.46z"/></symbol></svg>