<svg width="0" height="0" style="position:absolute"><symbol viewBox="0 0 486.392 486.392" id="share__facebook"><path d="M243.196 0C108.89 0 0 108.89 0 243.196s108.89 243.196 243.196 243.196 243.196-108.89 243.196-243.196C486.392 108.86 377.502 0 243.196 0zm62.866 243.165l-39.854.03-.03 145.917h-54.69V243.196H175.01v-50.28l36.48-.03-.062-29.61c0-41.04 11.126-65.997 59.43-65.997h40.25v50.31h-25.17c-18.818 0-19.73 7.022-19.73 20.124l-.06 25.17h45.233l-5.318 50.28z" fill="#010002"/></symbol><symbol viewBox="0 0 49.652 49.652" id="share__google-plus"><path d="M21.5 28.94c-.16-.107-.326-.223-.5-.34a5.66 5.66 0 0 0-1.583-.24h-.066c-2.513 0-4.717 1.52-4.717 3.256 0 1.89 1.89 3.367 4.3 3.367 3.178 0 4.79-1.098 4.79-3.258 0-.204-.025-.416-.076-.63-.215-.837-.984-1.36-2.147-2.155zM19.72 22.352c.602 0 1.11-.237 1.502-.687.616-.702.89-1.854.727-3.077-.286-2.186-1.85-4.006-3.48-4.053l-.065-.002c-.577 0-1.092.238-1.483.686-.607.692-.864 1.79-.705 3.01.286 2.185 1.882 4.072 3.48 4.122h.022z"/><path d="M24.826 0C11.136 0 0 11.137 0 24.826c0 13.688 11.137 24.826 24.826 24.826 13.688 0 24.826-11.138 24.826-24.826C49.652 11.136 38.516 0 24.826 0zm-2.862 36.915c-.938.27-1.953.408-3.018.408-1.186 0-2.326-.136-3.39-.405-2.056-.52-3.576-1.503-4.286-2.77a3.526 3.526 0 0 1-.46-1.738c0-.623.148-1.255.442-1.88 1.127-2.403 4.098-4.02 7.39-4.02h.093a2.932 2.932 0 0 1-.396-1.47c0-.256.033-.516.1-.78-3.45-.08-6.034-2.607-6.034-5.94 0-2.353 1.88-4.646 4.57-5.572a7.458 7.458 0 0 1 2.434-.42h7.382c.25 0 .474.163.552.402a.578.578 0 0 1-.21.647l-1.652 1.195a.59.59 0 0 1-.34.108h-.592c.763.915 1.21 2.22 1.21 3.685 0 1.617-.818 3.146-2.307 4.31-1.15.897-1.195 1.144-1.195 1.655.014.28.815 1.198 1.7 1.823 2.058 1.456 2.824 2.885 2.824 5.27 0 2.49-1.892 4.642-4.818 5.492zm16.67-12.662c0 .32-.26.58-.58.58H33.86v4.197c0 .32-.26.58-.578.58h-1.195a.58.58 0 0 1-.582-.58v-4.197h-4.192a.58.58 0 0 1-.58-.58V23.06c0-.32.26-.582.58-.582h4.192v-4.193c0-.32.26-.58.582-.58h1.195a.58.58 0 0 1 .578.58v4.193h4.194c.32 0 .58.26.58.58v1.195z"/></symbol><symbol viewBox="0 0 49.652 49.652" id="share__linked-in"><path d="M29.35 21.298c-2.125 0-3.074 1.168-3.605 1.988v-1.704h-4.002c.052 1.128 0 12.04 0 12.04h4.002v-6.726c0-.36.023-.72.13-.977.29-.72.95-1.466 2.055-1.466 1.448 0 2.027 1.104 2.027 2.724v6.442h4.002v-6.905c-.002-3.696-1.977-5.417-4.61-5.417zm-3.608 2.03h-.025c.008-.014.02-.027.025-.04v.04zM15.523 21.582h4.002v12.04h-4.002z"/><path d="M24.826 0C11.136 0 0 11.137 0 24.826c0 13.688 11.137 24.826 24.826 24.826 13.688 0 24.826-11.138 24.826-24.826C49.652 11.136 38.516 0 24.826 0zM37.99 36.055c0 1.056-.875 1.91-1.958 1.91h-22.58c-1.08 0-1.958-.854-1.958-1.91V13.21c0-1.054.877-1.91 1.957-1.91h22.582c1.082 0 1.96.857 1.96 1.91v22.845z"/><path d="M17.55 15.777c-1.367 0-2.263.898-2.263 2.08 0 1.155.87 2.08 2.21 2.08h.027c1.396 0 2.265-.925 2.265-2.08-.028-1.18-.87-2.08-2.24-2.08z"/></symbol><symbol viewBox="0 0 512 512" id="share__rss"><path d="M256 0C114.615 0 0 114.615 0 256s114.615 256 256 256 256-114.615 256-256S397.385 0 256 0zm-96 384c-17.673 0-32-14.327-32-32s14.327-32 32-32 32 14.327 32 32-14.327 32-32 32zm88 0c0-66.168-53.832-120-120-120v-48c92.636 0 168 75.364 168 168h-48zm96 0c0-57.695-22.47-111.938-63.266-152.735C239.938 190.468 185.696 168 128 168v-48c70.517 0 136.812 27.46 186.678 77.324C364.538 247.187 392 313.482 392 384h-48z"/></symbol><symbol viewBox="0 0 49.652 49.652" id="share__twitter"><path d="M24.826 0C11.136 0 0 11.137 0 24.826c0 13.688 11.137 24.826 24.826 24.826 13.688 0 24.826-11.138 24.826-24.826C49.652 11.136 38.516 0 24.826 0zM35.9 19.144c.012.246.018.494.018.742 0 7.55-5.746 16.255-16.26 16.255-3.226 0-6.23-.942-8.758-2.564.447.053.902.08 1.363.08 2.678 0 5.14-.914 7.097-2.446a5.72 5.72 0 0 1-5.338-3.97 5.76 5.76 0 0 0 2.58-.095 5.715 5.715 0 0 1-4.583-5.603v-.072a5.69 5.69 0 0 0 2.587.714 5.71 5.71 0 0 1-2.54-4.755c0-1.05.28-2.03.772-2.875a16.225 16.225 0 0 0 11.776 5.972 5.707 5.707 0 0 1-.147-1.303 5.714 5.714 0 0 1 9.883-3.91 11.406 11.406 0 0 0 3.63-1.387 5.74 5.74 0 0 1-2.516 3.162 11.36 11.36 0 0 0 3.282-.9 11.494 11.494 0 0 1-2.85 2.954z"/></symbol></svg>